<svg xmlns="http://www.w3.org/2000/svg" viewBox="0 0 1154.73 701.9"><defs><style>.cls-1{fill:#ecf7f6;}.cls-2{fill:#fdfefd;}.cls-3{fill:#f9d7ca;}.cls-4{fill:#74cac0;}.cls-5{fill:#2e3b3e;}.cls-6{fill:#37b4a3;}.cls-7{fill:#9b96a6;}.cls-8{fill:#eaa19e;}.cls-9{fill:#cb8d89;}.cls-10{fill:#eba4a1;}.cls-11{fill:#44b8a8;}.cls-12{fill:#b0d5c8;}.cls-13{fill:#e3edec;}.cls-14{fill:#425657;}.cls-15{fill:#8ed2c9;}.cls-16{fill:#d0d8c9;}</style></defs><g id="Layer_2" data-name="Layer 2"><g id="Layer_1-2" data-name="Layer 1"><path class="cls-1" d="M0,353.4v-4c3.45-1,1.92-3.89,1.93-5.88Q2.05,175.83,2,8.13C2,1,2,1,9.34,1q180.51,0,361,0c2.07,0,4.36.82,6.18-1h4c1,3.45,3.88,1.91,5.88,1.93,117,.71,233.93-.26,350.9.81C874.26,4,1011.21,2.36,1148.14,4c2.17,0,4.33,0,6.49,0q0,346.67.1,693.33c0,3.74-.85,4.59-4.59,4.58Q587.05,701.76,24,701.81c-.38-2.44-2.3-2-3.89-2-3.82,0-7.65,0-11.48,0C.18,699.75,1,700.7,1,692.45Q1,526,1,359.58C1,357.52,1.78,355.23,0,353.4ZM286.59,571l.05.05c0-1.37,0-2.73-.05-4.09a17,17,0,0,0,0-10.92l.13-18.74c1.54-.56,1.73-1.82,1.71-3.23,0-3.66,0-7.31,0-11q.25-7.44.53-14.88c10-3.88,20.22-2.32,30.41-1,.14,3.83,1.2,7.44,2.17,11.12,2.25,8.57,4.1,17.24,6.26,25.84,2.31,9.21,4.79,18.39,7.19,27.58-.74,1.55-1.62,3.12.49,4.35L335,578a5,5,0,0,0-.08,4c-2.13,3-.83,6.35-1.09,9.55-.17,3.84,2.66,4.29,5.35,4.34,8.47.15,16.94.14,25.41,0,3,0,5.33-1.1,4.35-4.89-2.58-2.54-4.32-6-8.17-7.15-1.08-2.14-2.93-1.94-4.83-1.6-1.92-2-5-3.06-5.43-6.37.5-1.76-.84-2.93-1.4-4.34,1.14-4.08-1.32-7.78-1.35-11.66-.14-18-2.36-35.82-3.27-53.75,5.6-1.88,5.39-6.39,5-11v-2.92l.12-1c1.53-1.61,3.26-.87,5-.54,7.09,1.34,14.13,2.18,21.43.77,4.36-.84,9-.2,13.54-.23,0,1.32,0,2.65,0,4,.23,15.08-3.66,29.86-3.19,45,.16,5.24,1.36,6.29,6.24,4.25,5.24-2.18,10.43-3.1,15.88-1-.38,7.39,3.28,14.17,3.26,21.51l.78,9.25a40.49,40.49,0,0,0-9.95,13.9c-1.37,3-.74,5.45,2.52,6.89,4.39,1.93,16.1-.3,19.76-3.8,4.29-4.1,4.77-9.58,1.49-17l.18-4.44c4.82,2.48,9.24,5.72,14.51,7.34,1.88.58,3.36.8,5-.78s.78-2.84.3-4.46c-1.7-5.73-4.56-10.92-7.09-16.27-.47-3.42,2.81-6,2.21-9.4q2.92-5.91,5.84-11.83c10.06,3.81,11.49,3.15,14.66-6.58,3.36-10.28,6.93-20.49,10.09-30.83,1-3.4,2.75-6.78,2.17-10.56a18.73,18.73,0,0,0,3.82.85c12.28.17,24.61-.64,36.73,2.19.19,1.32.47,2.63.54,3.95.73,13.92,2.76,27.68,4.59,41.48,1.2,9,5.9,17.22,5.23,26.52a2.4,2.4,0,0,0,1.59,2.31c1.39,1.16,3.23,2,3,4.31-.36.52-1,1-1.05,1.57-.17,7.18-3.57,11.18-10.64,13.39-4.13,1.29-9.06,3.9-8.17,10.15.68,2.23,2.14,3,4.49,3,5.66-.13,11.35.35,17-.19,3.32-.32,6.33-1.14,9.8,0s5.75-.73,5.43-4.76a74.07,74.07,0,0,0,0-23.07l1.63-4.44a5.63,5.63,0,0,1,.57-.72c1.84-1,1.78-2.24.46-3.64-.65-2.56-1-5,.32-7.6a22.37,22.37,0,0,0,1.73-6.68,340,340,0,0,0,3.38-54.29l23.29.62c.71,16.41,3.35,32.54,6.85,48.57,1.52,7,5.56,13.48,3.68,21.07a2.48,2.48,0,0,0,2.13,3.31l1.31,3.84c-.28,7.43-1.33,14.87.54,22.24-.27,5.42,1.55,7.34,6.34,5.5a10.14,10.14,0,0,1,7.57.07c4.81.08,9.63.33,14.44.17,2.41-.09,5.12,1.21,7.27-1,.24-1,1.36-1.6,1-2.77.25-4.37-2.61-6.72-6-8-7.69-3-13.92-6.78-13-16.41l.16-3.63c1.74-.92,2.84-2.26,2.64-4.33-.75-7.81,3-14.94,3.3-22.67.63-15.48,2.44-30.92,1.33-46.45,8.69-.48,17.33-2,26.08-1.43,0,14.78.12,29.56-.13,44.33-.08,4.65,1.91,6.29,6.13,6.35,3.65,0,7.3.19,10.95.29l.18,4.51c-.38,1.36-.63,2.68,1,3.42q.24,3,.46,5.94a3.77,3.77,0,0,0-.5,4.62c2,2.69,1.45,5.64,1.75,8.53-1,7-2.34,14-3,21.09-.59,6,1,7.49,7,7.54,3.49,0,7,.13,10.48-.1s5.38-2.11,4.73-6c-1.24-7.52-2.34-15.07-3.49-22.6l-.09-10.5q.78-8.82,1.57-17.65c10.12-2.77,20.42-2.06,30.71-1.6-.24,6.22,2.68,12,2.36,18.26,1.3,3.74-.64,8.08,2.14,11.54.12,5.36.85,10.72-.43,16.06a14.19,14.19,0,0,0,.95,8.65c-.22,3,1.86,3.72,4.1,3.76,8.4.13,16.81.2,25.21,0,1.69,0,4.16-.1,4.51-2.85.48-6.07-4.53-8.16-8.37-10.47-5.89-3.54-9.18-8.26-9.8-15a41.67,41.67,0,0,0-.05-10.76c0-.77,0-1.53,0-2.3q.13-7.65.28-15.29c1.67-1.64,3-3.24,3-5.92-.19-15.6-.2-31.2-.27-46.79,2,0,4-.17,5.94-.07,14.54.71,29,2.34,43.47,3.94l.08,19c-.14,1.37-.21,2.71,1.7,2.87a47.67,47.67,0,0,0,.11,5.35c.51,3.92-1.3,8.08,1.19,11.79.21,2.66-1,5.46.82,7.94,1.48,3.54-.61,8.06,3,11-.07,1.6-.6,3.27.78,4.63-.29,2.74,1.34,4.59,3,6.4.87.93,2.37,1.56,2.09,3.1-.84,4.74,1.16,8.45,4,11.92a23.66,23.66,0,0,1-7,14.2c-1,1-3.46,3.06,0,4.58-.06,1.58,0,3,2.19,3,5.95,0,11.9.21,17.85.25,2,0,3-1.21,3.07-3.14a2,2,0,0,0,1.76-2,38.46,38.46,0,0,0-3.13-17l-.06-3c2.61-3.39.68-7.34,1.39-11a14.19,14.19,0,0,0,4.78-9c-.55-8.85,3.29-17.37,2-26.28.63-5.15,2.4-10.28.27-15.49.66-5.74,2-11.49-.06-17.23,1.74-8.95.75-18,.92-27,1.27-4.52,1.06-9.15,1-13.78q.69-5.48,1.36-11h.71v4.81l0,3.37c0,7.95-.44,15.95,2,23.71-.4,1-1.41,2,0,3.06-.14,8.07-.13,16.12,1.14,24.11,0,1.28-.07,2.56-.1,3.84-.13,7.37-.26,14.75,2,21.9v5c-.59,4.44,1.3,8.66,1.15,13.06.37,2-1.52,4.59,1.71,5.69.15,2.12.09,4.24,1.19,6.24,2.33,4.21,5.84,7.93,5.13,13.42-.23,1.7,1.46,2.83,3.08,3.47l.24,2.18c-.46,2.6-1.46,5.24-1.25,7.77.3,3.69-2.44,7.66.88,11.08.38,4.11,4,3.76,6.4,3.92a178.68,178.68,0,0,0,19.91.11c2.45-.11,5.45-.48,6.24-3.84,1.17-6.35-4.49-6.8-7.93-8.08-5.47-2-8.54-5.17-8.92-10.94,0-.42.08-.83.11-1.24a3.1,3.1,0,0,0,1-3.15c-.61-4.5,1.24-8.12,3.32-12,2-3.62,3.58-7.64,3.54-12q1.52-8.88,3.05-17.76c-.07-9,1.78-17.91,1.11-26.93v-3.41c1-9.18,2.32-18.35,1.87-27.63l0-3q0-12.46,0-24.92c0-1.61,0-3.22,0-4.83q0-8.61,0-17.22l.13-8.94c2.16,0,4.33-.06,6.48.08,3.38.22,5.32-1.66,5.3-4.62-.06-11.76,1.26-23.51.2-35.27a2.17,2.17,0,0,1,.05-.88c2.62-1.26,3-4.21,4.54-6.25a318.17,318.17,0,0,0,21.65-31.9c3.6-6.07,6.83-12.21,4-20C911.81,297.66,905,283.65,898,269.62c-8.76-17.73-24.84-24-42.14-28.83a12.45,12.45,0,0,1-7-6.63,7.27,7.27,0,0,0-4.92-4.4l.21-14.32a9.05,9.05,0,0,0,7.46-4.86c3-2.59,4-5.89,3.79-9.73a65.74,65.74,0,0,1,1.14-13.35c.94-5.74-.6-8.26-5.91-11-3.61-1.86-7-3.9-9.41-7.62-4.2-6.45-12-7.33-18-2.22a21.41,21.41,0,0,1-9.14,4.49c-10.58,2.59-14.36,9-11.62,19.74a15.39,15.39,0,0,1,.4,7.35c-1.58,7.09,2,11.91,9.19,12.5,1.11,4.63,2.64,9.17,5.48,13a9.89,9.89,0,0,1,1.75,5.89c-2.26.79-3.21,2.48-3.74,4.75a28.54,28.54,0,0,1-4.47,10.27c-3.25,1.89-7.18,1.76-10.46,3.89a72.29,72.29,0,0,0-22.94,24.28c-4.47,7.54-7.28,15.79-9.86,24.12a13.6,13.6,0,0,0-5.79-.14c-4,.77-6.58,2.14-3.81,6.67-12.46-1.61-25-.58-37.49-1.24,0-2.71-2.6-4.87-1.65-7.79,6-3,11.8-6.38,18-8.88,4.12-1.68,4.68-4.09,3.52-7.66-.85-2.64-2.3-5.09-2.36-8,6.84-3.15,12-8.57,17.89-13,5.48-4.14,8.71-9.57,10.75-16.11,3.19-10.2,6.8-20.28,10.62-30.25,1.91-5,3.49-10.26,8-14,5.94-5,12.39-9.84,11.57-19-.1-1.12,1.15-2.33.26-3.29-1.16-1.25-2.44.07-3.66.33-2.1.46-3.22,2.17-4.62,3.56-1.58,1.58-2.31,4.06-4.82,4.68l-.3-.3c-.22-1.7-.17-4-2.66-1.53a24.4,24.4,0,0,0-3.09,3.78c-9.89,14.54-15.49,31.19-22.36,47.12-5.13,11.92-15,15.57-25.36,19.58l-.21-.14-.21.13c.89-2.61,2-5.1.29-8-1.81-3.07-.71-5.53,1.72-8.21,6.06-6.7,5.71-10.45-1.1-16.32-3-2.55-3.44-4.92-1.77-8.61,2.57-5.71,3.39-12.24-6.07-14.91-2.79-.79-5.24-1.88-6.75-4.58-6.86-12.32-18.76-15.09-30.26-7.18-3.92,2.69-8.25,4.4-13,3-8.49-2.57-15,2.44-14,11.55.4,4.07-1.53,6.66-5.87,6.95a15.65,15.65,0,0,0-8.59,3.58l-1.38-1.33c.29-5.33,3-10,4-15.22,2.61-14.51,5.66-28.94,5.26-43.8-.17-6.6-1.21-13-4.51-18.87A59.43,59.43,0,0,0,645.66,105c-1.57-5.38-.27-14.14-9.55-15.33-.31,0-.54-.76-.8-1.17-.73-1.11-1.81-3.76-2.37-2.77-1,1.81-3.78,2-3.76,4.68,0,4,.29,8,2.07,11.6,1.25,2.53,1.16,4.88.75,7.64-2.51-.77-3.13-3.47-5.89-3.54.6,8.71,6,15.71,7.81,23.85-6.46,11.51-9.36,24.3-12.29,36.89-4.14,17.76-10.78,34-22.66,48-4.2,4.94-8.38,9.38-15.48,10.57-3.37.57-7.34-.16-10.32,2.42-4.22,0-5.15-3.73-6.84-6.34-3.45-5.3-2.68-13.85,1.57-16.64s6-6.33,5.34-11.21a12.51,12.51,0,0,0,3.13-12.77c-1.4-4.81-2.75-9.5-2.82-14.71-.15-9.76-6.22-12.34-14.2-11.27-4.94.67-9,3.24-12.47,6.69-2.41,2.37-5,4.09-8.65,4.08-7.13,0-11.47,4.35-11.78,11.62-.23,5.5,0,10.93,2.11,16.13-1,4.75.38,8.61,4.66,11.06,1.91,1.09,2.7,2.89,3.74,4.52,4.82,7.59,1.79,14.54-1.88,21.42-6.65.39-11.41,4.79-16.51,8.18-6.47,4.3-13.29,8.45-16.86,15.88a94.81,94.81,0,0,0-6.49,18.05c-2.16-1.84,1.06-5.66-2.57-6.95a41.37,41.37,0,0,0-5.56-20.85c-5.53-9.34-7.12-19.34-7.82-29.79-.68-10.16-2.59-20-8.91-28.43-5.54-7.43-14.7-9.15-21.11-3.74-1.45.07-3.08-.39-4,1.34-7-2.9-14.18-3.6-21.26-1.07-5.64,2-10.85,5.06-12.63,11.57-3.59,3.45-2.8,7.86-2.68,12.13,0,4.94-.42,9.91,0,14.81s1.51,9.59,7.16,11.13c2.1.58,1.76,2.08,1.72,3.51-.12,5-3,8.48-6.14,11.9-8.17,1.18-14.4,5.72-19.89,11.52a47.57,47.57,0,0,1-2-6.06c-.49-2.47-2.52-1.61-3.88-2.18-.78-.33-1.49-.52-2.07.47-2.67,4.57-4.17,9.29-1.55,14.37,1.33,2.59,1.56,5.34,1.74,8.13-3.55,11.07-6,22.3-5,34l-1.18.14c-2-5.41-5.06-6.38-12.2-5.09-3.8.68-4.56,1.89-2.74,5.06l-11.35-.12c-1.45-13-6-25-11.38-36.76.6-5.29-1.81-9.33-5.5-12.74a7.18,7.18,0,0,1-2-8.54c3.47-9.07,2.14-16.81-6.17-22.75-3.62-2.59-5.11-6.22-5-10.77.14-6.6.63-13.17-1.46-19.72-3.26-10.26-15.24-18.53-25.33-16.37-3.61.77-6.13-.26-8.71-3-6.3-6.77-12.23-6-17.55,1.59a12.27,12.27,0,0,0-2.47,7.34c0,3.88,3.49,5.57,5.93,8a13.82,13.82,0,0,1-2.25,1.66c-6.13,2.68-9.31,7.17-8.87,14q.24,3.74.23,7.47c0,4.69-1.82,8.12-6.39,10.14-6.11,2.71-9.41,10.8-8,17.25,1.49,7,3.15,14.15-4.23,19.34a12.86,12.86,0,0,0-2.73,3.52c-7.58,11.22-3,22,10.08,23.72,2.35,3.8.22,7.75.25,11.61.13,14.42.34,28.86-2.82,43.1-1.69,7.59-3.44,15.84.31,22.78,4,7.32,8.15,14.23,8.68,22.73a98.26,98.26,0,0,0-1.18,20.41l-.9,4.88c-1.26.94-1.05,2.34-1.08,3.64-.35,17-1,34-.92,51,0,7.73,1.13,15.47.87,23.24-1.13.77-.95,1.91-.85,3,.53,2.83.19,6.4,1.81,8.3,2,2.4,5.45-.54,8.32-.29,1.13.1,2.28.1,3.41.14.51,5.45.5,11,1.63,16.32,3.42,16,5.09,32.3,6.89,48.55a5.39,5.39,0,0,0-1.17,4.55c-.35,1.41-.71,2.83-1.06,4.24-1.75,1.28-3.1,2.8-3.14,5.12-1.93,1.07-1.91,2.89-1.8,4.74-1.65,3.63-.34,5.72,3.47,6.08a81.48,81.48,0,0,0,8.42.07c8.21-.07,10.68,1.89,9.95-9.42-.12-1.8-.18-3.6-.27-5.4.13-1.91.32-3.83-.62-5.62l0-2.14C288.68,571.94,287.91,571.36,286.59,571Z"/><path class="cls-2" d="M720.72,302.23c12.5.66,25-.37,37.5,1.24,5.76,7,10.77,7.63,15.83,2L816,308.51c.23.6.45,1.21.68,1.82a11.41,11.41,0,0,0,.05,7.28q-.29,17.4-.56,34.81a3.23,3.23,0,0,0-1,2.7c-.67,14.06-1.42,28.11-1.94,42.17-.11,2.89-.88,5.94.69,8.73l.18,16.49c0,1.93-.07,3.86-.11,5.79l0-.06c-.89.55-1.19,1.13-.12,1.81.48,8.11-1.62,16.12-.94,24.24-1.28,2-1,4.37-1.57,6.54.31,9.95-2.13,19.59-3.37,29.37a3.34,3.34,0,0,1-2.8,2.1L794,492.15a1.94,1.94,0,0,0-2.06-.9c-2.43-1.6-5.16-.89-7.78-1-14.47-1.6-28.93-3.23-43.47-3.94-2-.1-4,0-5.94.06l-55.54-.06c-1.17-1.57-1.71-.81-2.08.56-1.79.1-3.59.22-5.39.28-9.47.29-19-.38-28.32,2.13-8.75-.6-17.39,1-26.08,1.43l-39.48.5-23.29-.62c-2-.09-3.94-.27-5.91-.25-11.32.1-22.57-2-33.91-1-12.12-2.83-24.45-2-36.73-2.19a18.73,18.73,0,0,1-3.82-.85l-19.67.19c-1.12-1.68-1.74-1.1-2.13.47-14.94-.34-29.74,1.94-44.65,2.43-6,.2-12.26,0-18.2,1.82-4.52,0-9.18-.61-13.54.23-7.3,1.41-14.34.57-21.43-.77-1.78-.33-3.51-1.07-5,.54-1.15-.65-2.25-1.76-3.45-1.87-8.36-.74-14.36-4.09-15.53-13.21,0-.27,0-.55,0-.83q0-28,0-55.91c0-.69,0-1.37,0-2.05.07-2,0-4,.25-6,1.52-12,3.6-23.91,2.67-36.07l5.07-3.11c5.59.57,10.45-2.83,15.92-2.89a52.82,52.82,0,0,0,5.48.08c2.19-.18,4.07-4,3-5.85-2.57-4.46-12.3-5.79-16.47-2.26a14.81,14.81,0,0,0-6.76,1.53,11.87,11.87,0,0,1-9.27-9.17c-1.15-13.46-3.76-26.81-3-40.41-.15-3.58.52-6.53,5.14-5.64,6.22,1.22,12.48.78,18.74.78l11.35.12q1.26,1.85,2.53,3.68c2.4,3.4,5.94,1.8,9,1.77,3.36,0,3.44-2.87,3.45-5.42l1.18-.14c20.25-1.46,40.54-.69,60.8-1.11-.2,2.93-.74,6.42,3.26,6.88,3.11.36,6.82,1.4,9.08-2.54a48.26,48.26,0,0,1,4.48-5.69l23.94-.45c3.41.48,6.69-.48,10-.93,9.09,2.08,18.09,0,27.12-.65l12.9-.28c.55.91,1.3.59,2,.32,2.32.73,2.81,3.14,4.15,4.72,2.46,2.9,5.79,2.08,8.59,2a4.29,4.29,0,0,0,4.15-5.13c1.19-2.2,2.83-3,5.52-3,8.78,0,17.54.26,26.29,1.09l.13.2c2.2,1,4.4,1.91,6.89,1.2l11.12.82c5.88,3.41,12,1.94,18,.76h18a15,15,0,0,0,11-.1l8.95-.79.51,1c1.36.67,2.71,1.22,3.91-.28a4.8,4.8,0,0,1,3.62-.38c.11,1.27.52,2.3,2,2.52l1.26,2c-.13,1.23.63,1.78,1.63,2.15,2.68,2.85,5.92,2.64,9,1.15,4-1.93,1.47-5.35,1.44-8.19C692.52,303.61,706.52,301.69,720.72,302.23ZM428.44,423.37c.47,2.85,2.33,3,4.43,2,2.79-1.27,1.55-3.46.59-5.05-6.65-11-9.41-23.57-14.28-35.29q-4.15-10-8.72-19.81c-1.94-4.18-10.41-5.78-12.42-2.32s-4.13,7.29-5.13,11.22c-4.12,16.24-10.87,31.53-16.56,47.2-.84,2.32-.49,3.82,1.37,5.13,3.43,2.42,7.09.22,10.56.14,2.46-.06,3.07-3.24,3.28-5.93.82-10,3.8-12.57,13.91-12.4,1.81,0,3.62.49,5.43.56,2.26.09,3.29,1.21,4.35,3.23,1.94,3.7,2.64,7.84,4.57,11.48,1.22,2.33,2.69,4.88,5.74,1.78ZM548.1,384.64c0-2.32-.08-4.65,0-7,.31-7.56-3.36-12.31-10-15.66-6.83-3.47-14-2.57-21-2.15-10.28.62-22,8.31-25,19.49-2.81,10.69-1.1,21,1.13,31.43,2.56,11.93,11.5,18.44,23.37,17.48,3.31-.27,6.61-.69,9.92-.94,8.92-.67,14-5.86,16.72-14C546.42,404,549.07,394.64,548.1,384.64Zm-97.44-23.39c-.83,0-1.66,0-2.49,0l-6.49.16c-4.78.13-6.31,1.83-5.31,6.53a35.17,35.17,0,0,1,1.21,9.36c-.63,11.42,0,22.85-.22,34.27-.06,3.8-1,7.55,0,11.39.71,2.82,2.29,4.49,5.19,4.25,9.05-.75,18.05.53,27.23-1.59,14-3.24,17.29-19.18,11.81-29.78-1.26-2.44-2.63-10.25-2.11-13.1a23.11,23.11,0,0,0,.48-5.43c-.48-8.28-4.36-12.69-12.41-14.5A76.3,76.3,0,0,0,450.66,361.25Zm260.62,26.07c0,3.26.19,6.43,0,9.56-.54,7.29-3.29,13.42-9.75,17.47s-11.12,2.67-14.18-4.62c-5.59-13.33-2.51-27.05-1.2-40.6.23-2.43.87-4.45-.83-6.39-2.16-2.5-4.95-1.18-7.42-.91s-3.39,2.26-3.65,4.64c-.64,5.72-1,11.41-1.07,17.2-.13,10.11.65,20.15,1.1,30.21.22,5.06,2.73,8.89,7.37,11.55s9.8,2.78,14.88,3.21c5.89.51,11.41-.23,16.29-4.22,8.63-7.06,10.43-16.84,11-27s-2.32-20.09-1.4-30.21c.28-3.11.59-6.15-3.59-5.93-8,.44-8.48-.28-8.78,5.34C709.67,373.62,712.4,380.39,711.28,387.32Zm-156.75.9c.26,8.94,0,17.92,1.71,26.78a14.94,14.94,0,0,0,4.8,9c6.15,5.23,26.57,6.58,33.44.64,8.42-7.26,10.82-16.65,11-26.56.13-9.72-1.2-19.5-1.14-29.29,0-8.1,0-8.1-7.86-7.27-4.55.47-6.16,2.6-4.59,9.28,1.78,7.6,1.29,15.17,1.5,22.78a25.54,25.54,0,0,1-6.11,17.77c-5.13,6.13-13,7.06-16.54,1.47-3-4.77-5.13-10.42-4.94-15.84.32-9.54-.67-19.25,2.3-28.63.87-2.77.72-5.84-2.89-6.84-4.5-1.24-7.59.78-9,4.55C553.58,373.35,555.21,380.85,554.53,388.22Zm199.82-28.4c-5.33.16-10.54.89-15.28,3.56-9.66,5.44-12,27.82,3.21,33.6,3.09,1.18,6.27,2.12,9.35,3.31,4.56,1.74,5.31,5.41,4.8,9.73s-3.41,4.71-6.85,4.63c-3.65-.09-7.3.12-10.71-1.66-3.9-2-5.5.54-7.33,3.47-1.94,3.12-1.34,5.2,1.41,7.16,7.2,5.15,15.13,5,23.36,3.47,6.52-1.21,11.45-4.4,13.74-10.73,3.47-9.61,2.64-23.69-12-28.16a41.26,41.26,0,0,1-8.61-3.72,6.37,6.37,0,0,1-3.2-8c1-3.16,3.74-4.06,7.1-4.17,3-.1,5.41,1.44,8.09,2.11,4.23,1.05,6.78,0,8-4.16,1.23-4.32-.51-7.68-4.74-8.92A28.05,28.05,0,0,0,754.35,359.82ZM624.5,399.52c.64,6.9.12,14.05-.21,21.19-.22,4.65,1.35,6.75,6.17,6.59,4.27-.15,6.8-1.12,6.72-6.27-.21-13.79,0-27.59.13-41.39,0-7.22.07-7.2,7-7.26a38.28,38.28,0,0,0,6-.29c4.18-.69,3.71-4.11,3.75-7,0-3.27-2.23-4.47-5-4.17-11.3,1.23-22.61.26-33.91.45-3.89.06-6,1.08-5.95,5.25.07,3.94,1.49,6.36,5.93,6,1.81-.16,3.69.2,5.48-.1,3.26-.53,4,.91,3.91,3.85C624.41,384,624.5,391.62,624.5,399.52Z"/><path class="cls-3" d="M330.58,419.37q0,28,0,55.91c-2.9-1.67-2.66-5.11-4-8.09-1.65,2.6-2.18,4.67-.46,6.83.83,1,1.79,2,.7,3.49-.68.91-1.81,2.17-.53,3,1.49.93,2.22-.81,3-1.81a20.88,20.88,0,0,0,1.37-2.56c1.17,9.12,7.17,12.47,15.53,13.21,1.2.11,2.3,1.22,3.45,1.87l-.12,1c-1.68.51-4.51.46-4.51,2.26,0,3.85-2,6.09-5.54,8.05,5,.5,6.52-.29,7-4,.29-2,.47-3.62,3-3.44.42,4.61.63,9.12-5,11-4.83,0-9.66-.17-14.47.08-3.56.19-7.31-1.17-10.69,1-10.19-1.29-20.39-2.85-30.41,1-.92-2.69-3-2.3-4.92-1.65-2.46.84-4.95.38-7.41.58-2.71.21-4.35-1.38-4.53-3.64-.35-4.6-2.1-9.1-2.13-13.5-.1-12-1.93-23.83-1.3-35.79a76.45,76.45,0,0,0-2.59-22.9,119.62,119.62,0,0,0-2.35,27.31c.16,8.3-.54,16.7.57,24.87a109.73,109.73,0,0,1,1.08,22.74c-1.13,0-2.28,0-3.41-.14-2.87-.25-6.29,2.69-8.32.29-1.62-1.9-1.28-5.47-1.81-8.3,2.39.11,5.59-2.52,6.71,2a.93.93,0,0,0,1.6.26,2.31,2.31,0,0,0,.2-1.8c-1.15-4.15-4.57-3.49-7.66-3.51.26-7.77-.84-15.51-.87-23.24-.06-17,.57-34,.92-51,0-1.3-.18-2.7,1.08-3.64,4.4.5,3.51,4.55,4.34,7.82,4.68-5.53-2.16-9.24-1.05-14,.19-.8-1.4,1.1-2.39,1.27A98.26,98.26,0,0,1,255.88,392c7.46.16,14.93.39,22.4.44,4.91,0,7.22-1.92,7.05-6.81a23.26,23.26,0,0,1,3.39-13.19c3.91,2,7.17,1.77,9.35-2.62.2-.41,1.19-.43,1.81-.64,3,.13,4.94,2.53,7.54,3.59,6.75,2.74,13.16,7.86,20.77,2.1a2.45,2.45,0,0,1,1.78,0c.75,4.2,2.42,0,3.54.41.93,12.16-1.15,24.09-2.67,36.07-.25,2-.18,4-.25,6-3.85,1-2-3.86-4.47-4.59C325,417,325.19,420,330.58,419.37Zm-48-19.12c-3.2,1.52-1.32,6.51-5.54,7.32,5.2.24,5.54-.23,5.66-7.19.89-.15,2,.28,2.45-.92.07-.2-.45-.85-.77-.91C283.13,398.32,282.76,399.22,282.6,400.25Zm1.09,47.95a1.53,1.53,0,0,0-1.92-.76c-.12,0-.18.24-.27.37l2.12.48c3.48,4.77,7.74-.62,11.46,1.21-2.12-1.84-3.93-4.58-7.05-1.78C286.86,448.77,285.16,448.11,283.69,448.2Zm22.53-54c1.8-1.16,4-2.21,6.61-.18.87.68,2-.69,1.05-1.65-1.6-1.68-3.23-4.09-6.15-1.74-1.32,1.06-2.77,1.78-4.33.09-.84-.91-2.21-2.22-3.16-.47-.66,1.2,1,1.8,2,2.39C303.3,393.33,304.18,394.47,306.22,394.21ZM316,491c-3-.72-6-2.06-7.74,1.92-.73,1.63-1.6,2.46-3.24.79a1.24,1.24,0,0,0-2.06.44,1.83,1.83,0,0,0,1,2.47c1.75.76,4.05,1.1,5-.63C310.59,493.05,313,491.86,316,491Zm-39.91,4.75c.42,2.59.75,5.23,4.1,5.37,2.1.09,3.9.41,5.09,2.31.35.55.75,1.25,1.49.76a1.53,1.53,0,0,0,.49-2.17c-1-1.29-2.1-3.41-3.56-3.06C280.2,499.79,278.52,497.35,276.11,495.76Zm42.18-59.32c-2.22,2.53-2.29,5-.43,7.48,1,1.31,2.53,2.42.9,4.22-.64.71-1,1.45.15,1.83a2,2,0,0,0,1.74-.59c1.38-1.71,1.76-4.26.29-5.43C318.29,441.82,318.61,439.21,318.29,436.44Zm-28.07,40.72c7.42.08,5.2-7,9.21-9.18-1.9-1.19-3.93-.87-4.11.52C294.84,472,292.91,474.51,290.22,477.16Z"/><path class="cls-4" d="M855.9,240.79c17.3,4.84,33.38,11.1,42.14,28.83,6.94,14,13.77,28,19.13,42.79,2.83,7.81-.4,13.95-4,20a318.17,318.17,0,0,1-21.65,31.9c-1.58,2-1.92,5-4.54,6.25-1.62-4.26-5.92-5.11-9.35-6.34-3-1.05-2.35,3.24-3.88,4.78-1,1,0,1.88,1.09,2,4,.44,8,2.53,12.09.43,1.06,11.76-.26,23.51-.2,35.27,0,3-1.92,4.84-5.3,4.62-2.15-.14-4.32-.06-6.48-.08-4.52-3-9.24-2.52-14-.79l-7.87-1.33c-.35-.63-.73-.72-1.14,0l-.1.09-1.83.12c-1.79-1.74-4.85-1.37-6.25-3.75q0-4.24,0-8.49c0-1.15,0-2.31,0-3.46l.28-2.27c.18-15.38,3.16-30.54,3.33-46,.06-5.05.4-10.23.81-15.33,1.28-16,2.25-32,4-47.87.87-7.89.26-15.86,2-23.69A72.49,72.49,0,0,0,855.9,240.79Zm35,88.73c3.46-13.67,3.46-13.67-.7-21.28C890.12,316.23,889.56,322.89,890.86,329.52Z"/><path class="cls-4" d="M288.72,372.41a23.26,23.26,0,0,0-3.39,13.19c.17,4.89-2.14,6.84-7.05,6.81-7.47-.05-14.94-.28-22.4-.44-.53-8.5-4.72-15.41-8.68-22.73-3.75-6.94-2-15.19-.31-22.78,3.16-14.24,3-28.68,2.82-43.1,0-3.86,2.1-7.81-.25-11.61,3.68-1.47,2.52-5.06,3.1-7.69,3.55-15.84,7.86-23.11,24.17-28.65,3.71-1.27,6.08-3.25,5.9-7.4-.09-2.1.34-3.66,2.91-3.51,4.25,4.67,6.87,9.83,5.35,16.42-.43,1.87-.83,3.93.8,5.6.07,1.31-.21,2.77.27,3.91,3.48,8.3,3.18,17.27,4.74,25.91,0,8.78.16,17.56-.07,26.34a10.58,10.58,0,0,0,4,9.11c8.93,7.34,18.83,13.43,27.5,21.12.55.49,1.55.48,2.34.7a11.87,11.87,0,0,0,9.27,9.17c.62,3.25-.87,6.25-1.17,9.39l-5.07,3.11c-1.12-.44-2.79,3.79-3.54-.41a2.45,2.45,0,0,0-1.78,0c-7.61,5.76-14,.64-20.77-2.1-2.6-1.06-4.53-3.46-7.54-3.59-2.41-2.41-4.38-6.94-8-5.8C288.65,364.38,288.92,369,288.72,372.41Z"/><path class="cls-5" d="M599.27,305.74l-11.12-.82c-2.09-1.6-4.59-.84-6.89-1.2l-.13-.2a40,40,0,0,1-1.64-5.69c-2.89-21-6-42-6.39-63.27l.06-6.74c3-2.59,7-1.86,10.33-2.43,7.1-1.19,11.28-5.63,15.48-10.57,11.88-14,18.52-30.25,22.66-48,2.93-12.59,5.83-25.38,12.29-36.88,4.57-2.45,9.24-1.77,13.93-.43,3.3,5.86,4.34,12.27,4.51,18.87.4,14.86-2.65,29.29-5.26,43.8-.94,5.22-3.69,9.89-4,15.22-2.1,1.94-2.73,4.5-3,7.2l-.17.21.11.24c-2,1.33-1.94,3.64-2.62,5.6-.15.42-.31.85-.47,1.27a2.63,2.63,0,0,0-1.41,2.72c-.53,1.43-1,2.85-1.58,4.27-.93.67-1.7,1.43-1.48,2.72-.12.56-.23,1.13-.35,1.7-1.87,1.27-2.09,3.36-2.63,5.29-.12.59-.23,1.18-.34,1.77-2.22,1.49-2.31,3.94-2.81,6.21-.11.45-.21.91-.32,1.36-2,1.74-2.27,4.24-2.8,6.62l-.28,1.26c-3.92,6.4-3.36,13.47-3.06,20.5a6.56,6.56,0,0,0-.33,4.3c-1.57,2.47-1,5.22-1.07,7.89l-.42,8.38c-1.64,1.12-1.54,3-1.44,4.5.26,3.79-1.42,4.89-5,4.61C607.54,305.68,603.4,305.81,599.27,305.74Z"/><path class="cls-6" d="M855.9,240.79a72.49,72.49,0,0,1-1.78,17.7c-1.72,7.83-1.11,15.8-2,23.69-1.76,15.91-2.73,31.91-4,47.87-.41,5.1-.75,10.28-.81,15.33-.17,15.42-3.15,30.58-3.33,46-1.33.24-2.83-.41-4,.8l-9.85.45h-2.33l-9.76-1.14c-1.12-1.77-1.05-3.74-1.05-5.73,0-9.37,0-18.75,0-28.13,0-1.73.63-3.65-.87-5.16q.29-17.4.56-34.81c1.95-2.44,2-4.87-.05-7.28L816,308.5c.33-.71,1.07-1.53.93-2.14-2-8.6.4-17.52-1.81-26.05-1.93-7.44,0-15.17-2.12-22.57-1.2-4.27-2.59-8.54-1.9-13.09a28.54,28.54,0,0,0,4.47-10.27c.53-2.27,1.48-4,3.74-4.75a62.62,62.62,0,0,0,24.7.13,7.27,7.27,0,0,1,4.92,4.4A12.45,12.45,0,0,0,855.9,240.79Z"/><path class="cls-4" d="M643.46,489.28c9.31-2.51,18.85-1.84,28.32-2.13,1.8-.06,3.6-.18,5.39-.28a1.76,1.76,0,0,0,2.08-.56l55.54.06c.07,15.6.08,31.2.27,46.8,0,2.68-1.33,4.28-3,5.92h-1.79c-6.41-.14-12.6-2.81-19.12-1.63-10.29-.46-20.59-1.17-30.71,1.6l-20,1.18c-3.65-.1-7.3-.24-10.95-.29-4.22-.06-6.21-1.7-6.13-6.35C643.58,518.84,643.45,504.06,643.46,489.28Z"/><path class="cls-5" d="M644.5,208.72a15.65,15.65,0,0,1,8.59-3.58c4.34-.29,6.27-2.88,5.87-6.95-.92-9.11,5.56-14.12,14-11.55,4.79,1.44,9.12-.27,13-3,11.5-7.91,23.4-5.14,30.26,7.18,1.51,2.7,4,3.79,6.75,4.58,9.46,2.67,8.64,9.2,6.07,14.91-1.67,3.69-1.2,6.06,1.77,8.61,6.81,5.87,7.16,9.62,1.1,16.32-2.43,2.68-3.53,5.14-1.72,8.21,1.69,2.86.6,5.35-.29,8-7.81,2.41-15.61,4.82-23.87,5.13-.29,0-.56.33-.84.51-3.22-1.88-6.24-3.92-6.34-8.21.22-1,.13-1.82-.91-2.3,0-.38-.11-.75-.16-1.13a32.83,32.83,0,0,0,4,.1C706,245.16,709.1,243,710,239s.24-8-4.66-9.52c-.28-5.78,1.3-11.53-.06-17.34-.82-3.53-1.91-6.71-5.58-8.11s-6.36.47-8.46,3.38c-1.17,1.62-2.74,2.09-4.73,2.14-8.73.23-8.79.28-10.31,9.11-.4,2.31-1.21,4-3.53,4.8-5.36,1.76-5.94,3.33-3.31,9a11.55,11.55,0,0,1-1.51,2.5c-2.94,2.91-2.13,6.61-1.26,9.66s4.06,4.41,7.48,4.2c-.83,6-3.58,10.69-8.88,13.77-2-.35-2.3.81-2.19,2.37a1.6,1.6,0,0,0-1.06,1.53l-.1-.1c-4.45,4.65-9.92,3.87-15.43,2.89a2.13,2.13,0,0,0-2-1.12,1.33,1.33,0,0,0-1.12-1.57c-.66-1.73-1.31-3.45-2-5.18,0-1.18,0-2.36,0-3.53.6-1.74,1.92-3.25,1.63-5.26a6,6,0,0,0,.06-4c.46-1.67-.74-2.15-1.9-2.66l-.17-.26a3,3,0,0,0-2.68-2.13h0a3.46,3.46,0,0,0-1.85-2.56l0-.36-.35-.08c-.28-.63-.55-1.26-.83-1.9-1-5.45,2-8.79,6.2-11.44a5.2,5.2,0,0,0,2.37-6.66A14.54,14.54,0,0,1,644.5,208.72Z"/><path class="cls-7" d="M480.36,305.44l-23.94.45a52.66,52.66,0,0,0-4.78-2.33c-4.9-1.83-9.55-.36-12,3.68-20.26.42-40.55-.35-60.8,1.11-1-11.74,1.47-23,5-34,2.5.83,2.31,3.41,3.36,5.19,1.91,3.23,7.46,5.29,11.41,3.85,3.59-1.31,1.72-4.57,1.73-6.89A39.5,39.5,0,0,0,399,267.2c-.35-1.49-1.26-3.47-2.46-4-2-.86-1.23,2.75-3.63,2.94-.45-2.18-.91-4.37-1.36-6.57,5.49-5.8,11.72-10.34,19.89-11.53.42,5.34,4,8.16,8.55,9.44,11.14,3.13,20.53-.62,28.78-8.11a21.09,21.09,0,0,1,10.55,2c4.42,6.4,7.71,13.26,8.44,21.43,2.23-2,1.4-6.12,3.28-6.57,3-.73,2.31,3.77,4.35,5.08.8,5.85,3.77,11.31,3.61,17.25C478.85,294.29,482.6,299.62,480.36,305.44Z"/><path class="cls-4" d="M454.57,486.47l19.67-.19c.58,3.78-1.13,7.16-2.17,10.56-3.16,10.34-6.73,20.55-10.09,30.83-3.17,9.73-4.6,10.39-14.66,6.58l-10.72-5a28.12,28.12,0,0,1-3.06,12.89l-8,2.83c-5.73.23-11.18-2.36-16.95-1.69-5.45-2.05-10.64-1.13-15.88,1-4.88,2-6.08,1-6.24-4.25-.47-15.1,3.42-29.88,3.19-45,0-1.32,0-2.65,0-4,5.94-1.83,12.17-1.62,18.2-1.82,14.91-.49,29.71-2.77,44.65-2.42A1.93,1.93,0,0,0,454.57,486.47Z"/><path class="cls-6" d="M285.54,244.5c-2.57-.15-3,1.41-2.91,3.51.18,4.15-2.19,6.13-5.9,7.4-16.31,5.54-20.62,12.81-24.17,28.65-.58,2.63.58,6.22-3.1,7.69C236.4,290,231.8,279.25,239.38,268a12.86,12.86,0,0,1,2.73-3.52c7.38-5.19,5.72-12.39,4.23-19.34-1.38-6.45,1.92-14.54,8-17.25,4.57-2,6.39-5.45,6.39-10.14q0-3.74-.23-7.47c-.44-6.84,2.74-11.33,8.87-14a13.82,13.82,0,0,0,2.25-1.66c-2.44-2.48-5.88-4.17-5.93-8a12.27,12.27,0,0,1,2.47-7.34c5.32-7.59,11.25-8.36,17.55-1.59,2.58,2.77,5.1,3.8,8.71,3,10.09-2.16,22.07,6.11,25.33,16.37,2.09,6.55,1.6,13.12,1.46,19.72-.1,4.55,1.39,8.18,5,10.77,8.31,5.94,9.64,13.68,6.17,22.75a7.18,7.18,0,0,0,2,8.54c3.69,3.41,6.1,7.45,5.5,12.74-2.69-1.77-4.31-4.51-6.25-6.94-3.83-4.81-7.88-9.45-13.79-11.68-2.1-.79-3-1.54-3.58-3.82-.59-2.12-.67-5.59-4.41-5.63-1.43-4.52-1.89-8.94,0-13.55,3.86-9.37,3.58-19.08,1.5-28.77-1.13-5.29-4.69-7.18-10-5.7-2.57.71-5.14,1.58-7.81,1.21-5.34-.73-7.4,2.55-8.69,6.82a18.83,18.83,0,0,0-1.1,5.33c0,3.58-2.19,4.64-5.06,4.74-2.69.1-5.07.49-5.84,3.45-.86,3.35,1.37,5.41,3.8,6.85a16.39,16.39,0,0,1,4.78,4C287.68,233.12,286.18,238.81,285.54,244.5Z"/><path class="cls-4" d="M475.39,271.33c-2-1.31-1.31-5.81-4.35-5.08-1.88.45-1.05,4.56-3.28,6.57-.73-8.17-4-15-8.44-21.43a67.66,67.66,0,0,1-4.66-18.93c-.21-2.76-1.33-3.06-3.41-1.68-3.89,2.58-8.27,2.88-12.74,2.8-1.66-3-.91-6.5-1.86-9.69-.63-2.11-.76-4.63,3.11-3.23,2.14.78,3.26-1.43,4.13-2.79a4.6,4.6,0,0,0-.46-5.57c-.77-1-1.74-1.69-3-.9-4.74,3-3.9-.78-4-3.31-.05-1.49.06-3,.09-4.48.16-6.43-1.89-8.91-8.18-9.94a42.18,42.18,0,0,1-5.35-1.06c-4.63-1.39-8.06.09-10.55,4.1l-1.07-2.13c1.78-6.51,7-9.56,12.63-11.57,7.08-2.53,14.3-1.83,21.26,1.07,2.71,4,6.38,7.32,8.83,12.45,1.16-6.34-2.45-9.83-4.86-13.79,6.41-5.41,15.57-3.69,21.11,3.74,6.32,8.47,8.23,18.27,8.91,28.43.7,10.45,2.29,20.45,7.82,29.79a41.37,41.37,0,0,1,5.56,20.85c.11,9.14-.19,18.2-4.92,26.45-.71,1.25-1,2.87-3.14,2.81a21.75,21.75,0,0,0-.31-2.46C482.52,284.84,481.78,276.89,475.39,271.33Z"/><path class="cls-5" d="M530.39,303.58l-12.9.28c-7.41-.73-14.81-.22-22.21.1-3.28.15-4.53-.95-4-4.25.45-2.75,1.36-5.47.8-8.31-.11-6.49,2.41-12.55,3.14-18.9a94.81,94.81,0,0,1,6.49-18.05c3.57-7.43,10.39-11.58,16.86-15.88,5.1-3.39,9.86-7.79,16.51-8.18.39,2.37.79,4.75,1.18,7.13l4.47,59.13c-1.71,1.47-3.42,2.9-5.9,2.86-2,0-2.28,1.46-2.45,3A2.11,2.11,0,0,0,530.39,303.58Z"/><path class="cls-5" d="M577.9,491.21l39.48-.5c1.11,15.53-.7,31-1.33,46.45-.31,7.73-4,14.86-3.3,22.67.2,2.07-.9,3.41-2.64,4.33-6.51,1-13-.45-19.54,0a2.48,2.48,0,0,1-2.14-3.31c1.88-7.59-2.16-14.12-3.68-21.07C581.25,523.75,578.61,507.62,577.9,491.21Z"/><path class="cls-5" d="M514.79,489.32c11.34-1,22.59,1.12,33.91,1,2,0,3.94.16,5.91.25a340,340,0,0,1-3.38,54.29,22.37,22.37,0,0,1-1.73,6.68c-1.32,2.62-1,5-.32,7.59-1.18,1.08-.73,2.38-.46,3.65a4.8,4.8,0,0,0-.56.72l-21.41.07a2.41,2.41,0,0,1-1.6-2.32c.67-9.3-4-17.52-5.23-26.52-1.83-13.8-3.86-27.56-4.59-41.48C515.26,492,515,490.64,514.79,489.32Z"/><path class="cls-3" d="M874.84,470.18c.45,9.28-.82,18.45-1.87,27.63-2,.61-2.76,2-3.14,4-1.49,7.81-3.4,15.3-10.24,20.7-2.77,2.19-3.88,6.13-3.56,10a11.32,11.32,0,0,1-4.76,10.37c-4.85,3.55-6.65,8.53-7.79,13.88-.46,2.16-1.77,6,.86,6.41,1.91.33,2.67-3.8,2.5-6.2-.33-4.81,1.76-8.24,5.22-11.17a17.6,17.6,0,0,0,6.7-12.79,17.37,17.37,0,0,1,6.31-12.88,19.1,19.1,0,0,0,5.35-8.57c1.19-3.44.56-7.22,2.55-10.35.67,9-1.18,17.94-1.11,26.93-2.77,1.8-4.62,4.73-4.53,7.6.21,6.66-3,11.1-7.41,15.44s-4.68,6.61-2.56,11.51c0-8.36,6.93-11.7,11.45-16.79,0,4.36-1.57,8.38-3.54,12-2.08,3.85-3.93,7.47-3.32,12a3.1,3.1,0,0,1-1,3.15c-5-3.36-10.36-2.1-15.67-1-1.63-.64-3.32-1.77-3.09-3.47.71-5.49-2.8-9.21-5.13-13.42-1.1-2-1-4.12-1.19-6.24-.92-3.36,3.74-5,2.78-8.43-2.54-.51-2.47,2.72-4.49,2.74.15-4.4-1.74-8.62-1.15-13.06a6.34,6.34,0,0,0,3-5.94c-.35-6.53,2.8-11.14,7.34-15.41a16.47,16.47,0,0,0,5.6-12.24,13.58,13.58,0,0,1,4.74-10.45c3.68-3.38,7.16-7.15,7.23-12.49s1.82-9.72,5.86-13c4.73-3.85,6.29-9.06,7.05-14.72.18-1.28-.21-2.71,1-3.67v24.92c-3.86,1.23-4.81,4.67-4.79,7.86,0,6.16-2.53,10.73-7,14.58a17,17,0,0,0-6.06,13.08c-.1,4.36-1.7,8.12-5.37,10.67-3.37,2.33-5.76,5.82-6.08,9.39-.48,5.42-2.45,10.16-4.19,15.09-.07.17.3.5.64,1,3.22-2.26,4.41-5.44,5-9.11.83-5,1.24-10.42,5.76-13.87,4.37-3.34,6.49-7.66,7.1-13.07.48-4.4,1.41-8.72,5.25-11.8,4.3-3.46,7.18-7.73,6.83-13.61A10.18,10.18,0,0,1,874.84,470.18Z"/><path class="cls-8" d="M536.26,237.52c-.39-2.38-.79-4.76-1.18-7.13,3.67-6.88,6.7-13.83,1.88-21.42-1-1.63-1.83-3.43-3.74-4.52-4.28-2.45-5.62-6.31-4.66-11.06,1.21-.16,2.33-.11,3.05,1.09s1.53,2.85,3.39,2.09,2.11-2.52,2.19-4.15c.18-3.48.21-7,.15-10.45-.06-2.89.47-4,3.67-2.47,5.94,2.79,12.31,4.35,18.83,2.6,4.62-1.24,5.53.63,5.54,4.65,0,8.31.14,8.31,7.36,6.84a1.7,1.7,0,0,1,.5,0c.61,4.88-1.12,8.44-5.34,11.21s-5,11.34-1.57,16.64c1.69,2.61,2.62,6.34,6.84,6.35,0,2.25,0,4.49-.07,6.74a3.57,3.57,0,0,0-2.74,1.88c-3.61,5.33-7.33,10.6-10.91,15.95-3.26,4.86-3.82,5-8.27,1A169.31,169.31,0,0,1,536.26,237.52Z"/><path class="cls-4" d="M811.08,244.65c-.69,4.55.7,8.82,1.9,13.09,2.09,7.4.19,15.13,2.12,22.57,2.21,8.53-.15,17.45,1.81,26.05.14.61-.6,1.43-.93,2.14l-41.93-3.07c-.76-3.79-1.13-7.87-6.23-8.49,2.58-8.33,5.39-16.58,9.86-24.12a72.29,72.29,0,0,1,22.94-24.28C803.9,246.41,807.83,246.54,811.08,244.65Z"/><path class="cls-8" d="M412.46,196.71c2.49-4,5.92-5.49,10.55-4.1a42.18,42.18,0,0,0,5.35,1.06c6.29,1,8.34,3.51,8.18,9.94,0,1.49-.14,3-.09,4.48.09,2.53-.75,6.27,4,3.31,1.25-.79,2.22-.05,3,.9a4.6,4.6,0,0,1,.46,5.57c-.87,1.36-2,3.57-4.13,2.79-3.87-1.4-3.74,1.12-3.11,3.23,1,3.19.2,6.67,1.86,9.69.67,7,4.87,11.81,10.26,15.8-8.25,7.49-17.64,11.24-28.78,8.11-4.57-1.28-8.13-4.1-8.55-9.44,3.11-3.41,6-6.94,6.14-11.89,0-1.43.38-2.93-1.72-3.51-5.65-1.54-6.76-6.36-7.16-11.13s0-9.87,0-14.81C410.68,203.65,411.45,200.13,412.46,196.71Z"/><path class="cls-6" d="M705.28,257.09c.28-.18.55-.5.84-.51,8.26-.31,16.06-2.72,23.87-5.13l.21-.13.21.14,7.81,18.48c.06,2.87,1.51,5.32,2.36,8,1.16,3.57.6,6-3.52,7.66-6.18,2.5-12,5.88-18,8.88a5.26,5.26,0,0,1-2.94-3.66,22.61,22.61,0,0,0-5.95-10.38c.11-6.47.21-12.94.34-19.42,0-1.24,1.87-3.19-.6-3.44-1.86-.18-1.77,2-1.77,3.49,0,6.49,0,13,0,19.47-1.22,1.54-2.29,4.22-3.7,4.41-3.62.48-4.87,3.59-7.29,5-3.34,2-7.08,6.32-11.49,3.3a54.4,54.4,0,0,0-8.94-5.16c-3.77-1.65-7.14-4.44-11.49-4.7.41-5.24-1-10.57.78-15.74a22.65,22.65,0,0,0,2.7,2.91c6.78,5.24,13.77,9.26,22.73,4.9C699.27,271.65,704.64,266.2,705.28,257.09Z"/><path class="cls-9" d="M738.22,269.94l-7.81-18.48c10.37-4,20.23-7.66,25.36-19.58,6.87-15.93,12.47-32.58,22.36-47.12a24.4,24.4,0,0,1,3.09-3.78c2.49-2.45,2.44-.17,2.66,1.53-.46.21-.64.48-.19.89l.49-.59c2.51-.62,3.24-3.1,4.82-4.68,1.4-1.39,2.52-3.1,4.62-3.56,1.22-.26,2.5-1.58,3.66-.33.89,1-.36,2.17-.26,3.29.82,9.18-5.63,14-11.57,19-4.48,3.75-6.06,9-8,14-3.82,10-7.43,20.05-10.62,30.25-2,6.54-5.27,12-10.75,16.11C750.23,261.37,745.06,266.79,738.22,269.94Z"/><path class="cls-10" d="M265.36,506.28a109.73,109.73,0,0,0-1.08-22.74c-1.11-8.17-.41-16.57-.57-24.87a119.62,119.62,0,0,1,2.35-27.31,76.45,76.45,0,0,1,2.59,22.9c-.63,12,1.2,23.83,1.3,35.79,0,4.4,1.78,8.9,2.13,13.5.18,2.26,1.82,3.85,4.53,3.64,2.46-.2,4.95.26,7.41-.58,1.92-.65,4-1,4.92,1.65q-.27,7.44-.53,14.88c-2,.43-1.74,2.06-1.74,3.48,0,3.57.05,7.15.08,10.72q-.06,9.38-.13,18.74a13.77,13.77,0,0,0,0,10.92c0,1.36,0,2.72.05,4.09l-12.76.06c-1.8-16.25-3.47-32.51-6.89-48.55C265.86,517.28,265.87,511.73,265.36,506.28Z"/><path class="cls-8" d="M844,229.76a62.62,62.62,0,0,1-24.7-.13,9.89,9.89,0,0,0-1.75-5.89c-2.84-3.81-4.37-8.35-5.48-13a63.73,63.73,0,0,1-1-11.87c.05-9.42,3.2-13.19,12.6-14.48,3.46-.47,7-.52,9.61,2.62a4.86,4.86,0,0,0,4,1.86c5.65-.35,7.76,2.74,7.66,7.88,0,2,.24,2.87,2.68,2.92,4.07.08,5.17,2.29,3.72,6.26-.45,1.22-.87,2.45-1.3,3.67-2.45,1.41-5.15,2.58-5.75,5.82Z"/><path class="cls-5" d="M850,209.62c.43-1.22.85-2.45,1.3-3.67,1.45-4,.35-6.18-3.72-6.26-2.44-.05-2.72-.95-2.68-2.92.1-5.14-2-8.23-7.66-7.88a4.86,4.86,0,0,1-4-1.86c-2.65-3.14-6.15-3.09-9.61-2.62-9.4,1.29-12.55,5.06-12.6,14.48a63.73,63.73,0,0,0,1,11.87c-7.22-.59-10.77-5.41-9.19-12.5a15.39,15.39,0,0,0-.4-7.35c-2.74-10.77,1-17.15,11.62-19.74a21.41,21.41,0,0,0,9.14-4.49c6-5.11,13.84-4.23,18,2.22,2.43,3.72,5.8,5.76,9.41,7.62,5.31,2.72,6.85,5.24,5.91,11a65.74,65.74,0,0,0-1.14,13.35c.16,3.84-.82,7.14-3.79,9.73Z"/><path class="cls-8" d="M319.35,507.23c3.38-2.17,7.13-.81,10.69-1,4.81-.25,9.64-.07,14.47-.08.9,17.93,3.12,35.77,3.26,53.75,0,3.88,2.49,7.58,1.35,11.66-4.71.12-9.44-.61-14.14.21-2.41-9.19-4.89-18.37-7.2-27.58-2.16-8.6-4-17.27-6.26-25.84C320.55,514.67,319.49,511.06,319.35,507.23Z"/><path class="cls-6" d="M573.24,193.62a1.7,1.7,0,0,0-.5,0c-7.22,1.47-7.33,1.47-7.36-6.84,0-4-.92-5.89-5.54-4.65-6.52,1.75-12.89.19-18.83-2.6-3.2-1.5-3.73-.42-3.67,2.47.06,3.48,0,7-.15,10.45-.08,1.63-.43,3.44-2.19,4.15s-2.62-.8-3.39-2.09-1.84-1.25-3.05-1.09c-2.08-5.2-2.34-10.63-2.11-16.13.31-7.27,4.65-11.65,11.78-11.62,3.63,0,6.24-1.71,8.65-4.08,3.5-3.45,7.53-6,12.47-6.69,8-1.07,14,1.51,14.2,11.27.07,5.21,1.42,9.9,2.82,14.71A12.51,12.51,0,0,1,573.24,193.62Z"/><path class="cls-4" d="M311.92,243.51c3.74,0,3.82,3.51,4.41,5.63.63,2.28,1.48,3,3.58,3.82,5.91,2.23,10,6.87,13.79,11.68,1.94,2.43,3.56,5.17,6.25,6.94,5.35,11.77,9.93,23.78,11.38,36.76-6.26,0-12.52.44-18.74-.78-4.62-.89-5.29,2.06-5.14,5.64-2.71-5-1.59-10.68-3-15.9a14.57,14.57,0,0,0,0-2.95c-1.39-7.25-2.63-14.54-4.4-21.7-.67-2.73.86-6.16-2.27-8.22.41-2.51-.91-4.17-2.41-6.07C312,254.05,309.26,249.34,311.92,243.51Z"/><path class="cls-3" d="M823.84,524.86c1.31,8.91-2.53,17.43-2,26.27-2.58,1.68-3.5,4.86-6.3,6.54-1.63,1-4.76,3-2.81,5.26,1.22,1.42,2.61-2.1,4.33-2.81-.71,3.63,1.22,7.58-1.38,11-3.46,0-6.93.07-10.38,0-2.24-.07-3.5.65-3.31,3.06l-1,.11c-2.85-3.47-4.85-7.18-4-11.92.28-1.54-1.22-2.17-2.09-3.1-1.67-1.81-3.3-3.66-3-6.4.62-2.16,2.15-3.6,3.76-5.07,3.91-3.57,6.63-7.69,6.43-13.36-.14-4,1.63-7.29,4.79-9.91,4.53-3.75,7.54-8.36,7.22-14.56-.1-1.88.74-3.42,1.39-5.13,1.89-4.93,7.57-7.18,8.55-12.62h0c2.1,5.74.72,11.49.06,17.23a9.9,9.9,0,0,0-.79,2.85c.18,6.77-2.57,11.88-7.77,16.25a12.56,12.56,0,0,0-4.63,10,15.63,15.63,0,0,1-6.22,13.3,16.47,16.47,0,0,0-5.39,7.53c-.32.88-1.41,1.74,0,2.42a1.63,1.63,0,0,0,2.45-.92c1-4.58,5-6.77,7.67-10,2-2.44,3.5-5.42,3.46-8.44C812.74,534,817.69,529.12,823.84,524.86Z"/><path class="cls-4" d="M710.19,280.4a22.61,22.61,0,0,1,5.95,10.38,5.26,5.26,0,0,0,2.94,3.66c-1,2.92,1.64,5.08,1.65,7.79-14.21-.54-28.21,1.38-42.21,3.32-1.89-1.38-4.09-1.3-6.27-1.3-.7-1.6-1.43-1.48-2.2-.05-1.7.29-3.59-.21-5,1.28l-1.85.45a4.77,4.77,0,0,0-3.61.36,3.73,3.73,0,0,0-3.92.29l-.51-1c.31-1.27.62-2.55.91-3.82,1.48-6.44,5.86-11.74,7.13-18.26l2-.15c4.35.26,7.72,3.05,11.49,4.7a54.4,54.4,0,0,1,8.94,5.16c4.41,3,8.15-1.32,11.49-3.3,2.42-1.43,3.67-4.54,7.29-5,1.41-.19,2.48-2.87,3.7-4.41Z"/><path class="cls-3" d="M874.82,420.21q0,8.61,0,17.22c-2.8,1.71-3.53,4.61-3.65,7.47a19.72,19.72,0,0,1-7,14.69c-2.71,2.38-5.31,5.19-5.16,9.2.23,6.26-2.49,11.11-6.85,15.21-3,2.82-5.09,6-5.39,10.21A22.4,22.4,0,0,1,838.58,510,13.79,13.79,0,0,0,834,520.5c0,1.59.49,3.36-1,4.67-2.24-7.15-2.11-14.53-2-21.9,5.37-1.79,6.35-6.81,6.68-11.11.44-5.76,2.4-10.11,6.8-13.63,3.27-2.61,5.43-6.22,5.31-10.27-.18-6,2.26-10.58,6.5-14.24s5.86-8.74,6.43-14c.38-3.5,1.39-6.57,4-8.76A27.31,27.31,0,0,0,874.82,420.21Z"/><path class="cls-3" d="M831.15,499.44c-1.27-8-1.28-16.05-1.14-24.12,5.6-2.69,8.76-7.37,8.82-13.33s2.48-10,6.54-13.66a18.47,18.47,0,0,0,5.11-8.17c1.49-4.32.22-9.56,4-13.06,4.32-4,7.83-8.33,9.53-14.19.92-3.14,4.33-1.19,6.59-1.57,1-.16,2.18.1,2,1.53-.79,5.54-.87,11.43-6.08,15.14-4.87,3.48-6.85,8.59-7.23,14.09-.35,4.92-2.5,8.36-5.92,11.46-3,2.71-5.16,5.74-5.53,10.14-.51,6-2.26,11.47-7.72,15.43-2.83,2.05-4,5.69-4.36,9.65S835.29,497,831.15,499.44Z"/><path class="cls-3" d="M791.12,548.17c-3.63-2.95-1.54-7.47-3-11A6.64,6.64,0,0,0,791,530.7c-.57-5.7,2.21-9.64,6.13-13.23s6-7.7,6-13.06a13.61,13.61,0,0,1,5.22-10.84A18.06,18.06,0,0,0,815.58,480c.28-7.23,4.76-10.87,9.39-14.86-.17,9,.82,18.06-.92,27h0c-5.66,3.75-10.89,8-11.93,15.2-.94,6.53-2.35,12.41-8.43,16.41a8.78,8.78,0,0,0-3.65,7.33A19,19,0,0,1,791.12,548.17Z"/><path class="cls-3" d="M843.73,405.56c1.4,2.38,4.46,2,6.25,3.75a44.41,44.41,0,0,1-8,9.93,13.75,13.75,0,0,0-4.55,10.07c0,7.49-4,11.9-9.35,15.87v-4.81h-.71q-.68,5.49-1.36,11c-1.2,1-1,2.45-.86,3.71.46,4.41-1.55,7.91-4.62,10.48-5.59,4.67-7.78,10.66-8.49,17.61-.28,2.77-1,5.6-4,7.05,1.24-9.78,3.68-19.42,3.36-29.36,3-1.86,4.31-4.66,4.64-8.1.58-6.06,2-11.52,7.3-15.64,3.08-2.39,4.65-6.09,4.9-10.46a17.65,17.65,0,0,1,6.58-13.32c3.1-2.43,4.82-5.79,6.07-9.39.73-2.11-.87-4.67,1.11-6.62C842.86,400,840.43,403.38,843.73,405.56Z"/><path class="cls-10" d="M647.85,129.5c-4.69-1.34-9.36-2-13.93.43-1.77-8.15-7.21-15.15-7.81-23.86,2.76.07,3.38,2.77,5.89,3.54.41-2.76.5-5.11-.75-7.64-1.78-3.61-2-7.58-2.07-11.6,0-2.67,2.72-2.87,3.76-4.68.56-1,1.64,1.66,2.37,2.77.26.41.49,1.13.8,1.17,9.28,1.19,8,10,9.55,15.33A59.43,59.43,0,0,1,647.85,129.5Z"/><path class="cls-6" d="M716.17,592a14.19,14.19,0,0,1-.95-8.65c1.28-5.34.55-10.7.43-16.06a47.41,47.41,0,0,1,16.16.17c.63,6.73,3.92,11.45,9.81,15,3.84,2.31,8.85,4.4,8.37,10.47C738.71,592.77,727.4,594.14,716.17,592Z"/><path class="cls-3" d="M853.05,409.15l7.88,1.33c-.06,4.52-1.53,8.61-5,11.39-5.41,4.28-7.36,10-7.77,16.44a10.45,10.45,0,0,1-4.47,8.43c-5.19,3.49-7.06,8.55-7.49,14.26-.36,4.81-2.09,8.58-6.13,11.26-2.45-7.76-2-15.76-2-23.72,4.83-4.46,10.52-8.09,11.39-15.68.66-5.68,2.25-11.12,7.47-14.91,2.72-2,4.3-5.26,4.92-8.76l.1-.09Z"/><path class="cls-11" d="M679,567.22c1.15,7.53,2.25,15.08,3.49,22.6.65,3.87-1.15,5.74-4.73,6s-7,.13-10.48.1c-5.92,0-7.54-1.52-7-7.54.7-7.06,2-14.06,3-21.09C668.53,566.9,673.74,566.28,679,567.22Z"/><path class="cls-4" d="M610,567.78c-.93,9.64,5.3,13.47,13,16.42,3.43,1.31,6.29,3.66,6,8l-1.79,0c-7.62-.72-15.25-.41-22.88-.15-3.86-1.29-8.31,1.11-11.9-1.89-1.87-7.37-.82-14.81-.55-22.24l7.46.22c-.08,4.12-.2,8.24-.21,12.36,0,1.89.48,4.12,2.65,4.1s2.55-2.17,2.53-4.12c0-4.13,0-8.25-.07-12.38Z"/><path class="cls-4" d="M509.84,593c-.89-6.25,4-8.86,8.17-10.15,7.07-2.21,10.47-6.21,10.64-13.39,0-.53.69-1.05,1.05-1.57l5,.19c-.1,3.81-.36,7.63-.23,11.43.07,2,.18,5,2.84,5.06s2.92-2.8,3-4.94c.13-3.81,0-7.64,0-11.45l6.19-.21a73.7,73.7,0,0,1,0,23.06c-10.15,1.52-20.36.4-30.53.73C513.86,591.83,511.68,591.51,509.84,593Z"/><path class="cls-12" d="M830,472.26c4-2.68,5.77-6.45,6.13-11.26.43-5.71,2.3-10.77,7.49-14.26a10.45,10.45,0,0,0,4.47-8.43c.41-6.42,2.36-12.16,7.77-16.44,3.5-2.78,5-6.87,5-11.39,4.78-1.73,9.5-2.26,14,.79q-.06,4.47-.13,8.94a27.31,27.31,0,0,1-8.05,11c-2.62,2.19-3.63,5.26-4,8.76-.57,5.28-2.06,10.25-6.43,14s-6.68,8.22-6.5,14.24c.12,4.05-2,7.66-5.31,10.27-4.4,3.52-6.36,7.87-6.8,13.63-.33,4.3-1.31,9.32-6.68,11.11,0-1.28.07-2.56.11-3.84,4.14-2.4,4.26-6.84,4.59-10.65s1.53-7.6,4.36-9.65c5.46-4,7.21-9.42,7.72-15.43.37-4.4,2.53-7.43,5.53-10.14,3.42-3.1,5.57-6.54,5.92-11.46.38-5.5,2.36-10.61,7.23-14.09,5.21-3.71,5.29-9.6,6.08-15.14.21-1.43-1-1.69-2-1.53-2.26.38-5.67-1.57-6.59,1.57-1.7,5.86-5.21,10.21-9.53,14.19-3.79,3.5-2.52,8.74-4,13.06a18.47,18.47,0,0,1-5.11,8.17c-4.06,3.67-6.48,7.82-6.54,13.66s-3.22,10.64-8.82,13.33C828.63,474.29,829.64,473.28,830,472.26Z"/><path class="cls-4" d="M845.16,593.1c-3.32-3.42-.58-7.39-.88-11.08-.21-2.53.79-5.17,1.24-7.77l15.34,0c.38,5.77,3.45,8.91,8.92,10.94,3.44,1.28,9.1,1.73,7.93,8.08-1.94.22-3.54,1.58-5.67,1.4C863.1,593.9,854,595.58,845.16,593.1Z"/><path class="cls-11" d="M426.4,574.09c3.29,7.4,2.81,12.88-1.48,17-3.66,3.5-15.37,5.73-19.76,3.8-3.26-1.44-3.89-3.86-2.52-6.89a40.6,40.6,0,0,1,9.94-13.9c3.25.07,6.78-.69,8.18,3.71.45,1.4,1.58.65,2.3-.11C424.19,576.5,425.29,575.29,426.4,574.09Z"/><path class="cls-4" d="M801,574.22l1-.11,13.74,0a38.46,38.46,0,0,1,3.13,17,1.94,1.94,0,0,1-1.76,2c-7.71,2-15.41,1-23.11-.1-3.42-1.52-1-3.55,0-4.58A23.66,23.66,0,0,0,801,574.22Z"/><path class="cls-10" d="M391.55,259.58c.45,2.2.91,4.39,1.36,6.57,2.4-.19,1.6-3.8,3.63-2.94,1.2.52,2.11,2.5,2.46,4a39.5,39.5,0,0,1,1.32,9.27c0,2.32,1.86,5.58-1.73,6.89-3.95,1.44-9.5-.62-11.41-3.85-1.05-1.78-.86-4.36-3.36-5.19-.18-2.8-.41-5.55-1.74-8.14-2.62-5.08-1.12-9.8,1.55-14.37.58-1,1.29-.8,2.07-.47,1.36.57,3.39-.29,3.88,2.18A47.57,47.57,0,0,0,391.55,259.58Z"/><path class="cls-11" d="M439.27,555.48c2.53,5.35,5.39,10.54,7.09,16.27.48,1.62,1.28,2.89-.3,4.46s-3.08,1.36-5,.78c-5.27-1.62-9.69-4.86-14.51-7.33l-1.23-3.58q.15-7.61.29-15.21c3.82-1,4.06,3.27,6.28,4.18S436.89,552.66,439.27,555.48Z"/><path class="cls-9" d="M711.15,537.47c6.52-1.18,12.71,1.49,19.12,1.63a56.41,56.41,0,0,0,0,7.47c.32,2.62-1.52,5.71,1.49,7.81,0,.77,0,1.53,0,2.3-6.12.36-12.29,1.53-18.26-.95C713.83,549.5,710.91,543.69,711.15,537.47Z"/><path class="cls-10" d="M425.65,550.87q-.15,7.61-.29,15.21c-4.52-.35-9.2.94-13.55-1.25,0-7.34-3.64-14.12-3.26-21.51,5.77-.67,11.22,1.92,16.95,1.69Z"/><path class="cls-9" d="M660.41,540.25l20-1.18q-.8,8.82-1.57,17.65c-3.79.14-7.6.06-11.36.48-2.77.3-4.24-1-5.43-3.08q-.23-3-.46-5.93c.65-1.45.58-2.68-1-3.43Z"/><path class="cls-3" d="M794,492.15l11.21.14c-2.49,4.11-5.24,8.18-5,13.22a9.54,9.54,0,0,1-2.81,7.69c-5,4.42-7.92,9.94-10.11,16-2.49-3.71-.68-7.87-1.19-11.79a47.67,47.67,0,0,1-.11-5.35,17.05,17.05,0,0,0,5.95-13A14.22,14.22,0,0,1,794,492.15Z"/><path class="cls-12" d="M833,525.17c1.47-1.31,1-3.08,1-4.67A13.79,13.79,0,0,1,838.58,510a22.4,22.4,0,0,0,8.17-15.77c.3-4.24,2.39-7.39,5.39-10.21,4.36-4.1,7.08-8.95,6.85-15.21-.15-4,2.45-6.82,5.16-9.2a19.72,19.72,0,0,0,7-14.69c.12-2.86.85-5.76,3.65-7.47,0,1.61,0,3.22,0,4.83-1.26,1-.87,2.39-1,3.67-.76,5.66-2.32,10.87-7.05,14.72-4,3.29-5.79,7.69-5.86,13s-3.55,9.11-7.23,12.49a13.58,13.58,0,0,0-4.74,10.45,16.47,16.47,0,0,1-5.6,12.24c-4.54,4.27-7.69,8.88-7.34,15.41a6.34,6.34,0,0,1-3,5.94Z"/><path class="cls-13" d="M495.22,272.5c-.73,6.35-3.25,12.41-3.14,18.9-3.22,4-1.05,8.75-1.71,13.11-3.32.45-6.6,1.41-10,.93,2.24-5.82-1.51-11.15-1.36-16.86.16-5.94-2.81-11.4-3.61-17.25,6.39,5.56,7.13,13.51,8.89,21a21.75,21.75,0,0,1,.31,2.46c2.1.06,2.43-1.56,3.14-2.81,4.73-8.25,5-17.31,4.92-26.45C496.28,266.84,493.06,270.66,495.22,272.5Z"/><path class="cls-12" d="M787.28,529.22c2.19-6.08,5.13-11.6,10.11-16a9.54,9.54,0,0,0,2.81-7.69c-.19-5,2.56-9.11,5-13.22a3.31,3.31,0,0,0,2.81-2.09c2.91-1.45,3.68-4.28,4-7.05.71-6.95,2.9-12.94,8.49-17.61,3.07-2.57,5.08-6.07,4.62-10.48-.14-1.26-.34-2.69.86-3.71,0,4.63.25,9.26-1,13.78-4.63,4-9.11,7.63-9.39,14.86a18.06,18.06,0,0,1-7.23,13.58,13.61,13.61,0,0,0-5.22,10.84c0,5.36-2.26,9.58-6,13.06S790.39,525,791,530.7a6.64,6.64,0,0,1-2.86,6.46C786.26,534.68,787.49,531.88,787.28,529.22Z"/><path class="cls-14" d="M369,591c1,3.79-1.38,4.85-4.35,4.89-8.47.11-16.94.12-25.41,0-2.69,0-5.52-.5-5.35-4.33a30.52,30.52,0,0,0,3.72,1.11c1.58.28,3.49,1,4.62-.5,1-1.25,0-2.87-.52-4.23-1.22-3.1-3.75-4.79-6.73-5.94a5,5,0,0,1,.08-4,13.66,13.66,0,0,1,7.61,4.28c2.3,2.31,2.3,5.45,3.09,8.25.89,3.16,3.18,2.18,5.18,2.37,2.45.23,2.77-1.41,2.63-3.17-.24-2.88,1.91-4.9,2.43-7.49,1.9-.34,3.75-.54,4.83,1.6-1,2.21-2,4.4-2.92,6.62-.37.88-.71,2.33.6,2.31C362,592.73,366,594.62,369,591Z"/><path class="cls-12" d="M874.84,470.18a10.18,10.18,0,0,0-2.83,7.23c.35,5.88-2.53,10.15-6.83,13.61-3.84,3.08-4.77,7.4-5.25,11.8-.61,5.41-2.73,9.73-7.1,13.07-4.52,3.45-4.93,8.82-5.76,13.87-.61,3.67-1.8,6.85-5,9.11-.34-.52-.71-.85-.64-1,1.74-4.93,3.71-9.67,4.19-15.09.32-3.57,2.71-7.06,6.08-9.39,3.67-2.55,5.27-6.31,5.37-10.67a17,17,0,0,1,6.06-13.08c4.44-3.85,7-8.42,7-14.58,0-3.19.93-6.63,4.79-7.86Z"/><path class="cls-12" d="M873,501.22c-2,3.13-1.36,6.91-2.55,10.35a19.1,19.1,0,0,1-5.35,8.57A17.37,17.37,0,0,0,858.76,533a17.6,17.6,0,0,1-6.7,12.79c-3.46,2.93-5.55,6.36-5.22,11.17.17,2.4-.59,6.53-2.5,6.2-2.63-.46-1.32-4.25-.86-6.41,1.14-5.35,2.94-10.33,7.79-13.88A11.32,11.32,0,0,0,856,532.52c-.32-3.86.79-7.8,3.56-10,6.84-5.4,8.75-12.89,10.24-20.7.38-2,1.15-3.41,3.14-4Z"/><path class="cls-14" d="M268.51,585.06c0-2.32,1.39-3.84,3.14-5.12,5.7-1.84,11.2-.83,16.63,1.19.09,1.8.15,3.6.27,5.4.73,11.31-1.74,9.35-9.95,9.42a81.48,81.48,0,0,1-8.42-.07c-3.81-.36-5.12-2.45-3.48-6.08a31.6,31.6,0,0,0,16.39,2.89c2.42-.21,4.2-1.46,4.39-3.94s-1.78-3-3.8-3.74C278.56,583.19,273.56,584.27,268.51,585.06Z"/><path class="cls-8" d="M356,582.27c-.52,2.59-2.67,4.61-2.43,7.49.14,1.76-.18,3.4-2.63,3.17-2-.19-4.29.79-5.18-2.37-.79-2.8-.79-5.94-3.09-8.25A13.66,13.66,0,0,0,335,578c.15-.64.3-1.27.46-1.91l15-.22C350.94,579.21,354,580.24,356,582.27Z"/><path class="cls-3" d="M713.51,555.73c6,2.48,12.14,1.31,18.26.95a41.67,41.67,0,0,1,.05,10.76,47.47,47.47,0,0,0-16.17-.17C712.87,563.81,714.81,559.47,713.51,555.73Z"/><path class="cls-12" d="M791.12,548.17A19,19,0,0,0,800,531.09a8.78,8.78,0,0,1,3.65-7.33c6.08-4,7.49-9.88,8.43-16.41,1-7.19,6.27-11.45,11.93-15.2-1,5.44-6.66,7.69-8.55,12.62-.65,1.71-1.49,3.25-1.39,5.13.32,6.2-2.69,10.81-7.22,14.56-3.16,2.62-4.93,5.9-4.79,9.91.2,5.67-2.52,9.79-6.43,13.36-1.61,1.47-3.14,2.91-3.76,5.07C790.52,551.44,791.05,549.77,791.12,548.17Z"/><path class="cls-3" d="M662.08,554.12c1.19,2.13,2.66,3.38,5.43,3.08,3.76-.42,7.57-.34,11.36-.48l.09,10.5c-5.22-.94-10.43-.32-15.64,0-.29-2.89.28-5.84-1.74-8.53A3.77,3.77,0,0,1,662.08,554.12Z"/><path class="cls-10" d="M767.82,296.94c5.1.62,5.47,4.7,6.23,8.49-5.06,5.67-10.07,5.06-15.83-2-2.77-4.53-.2-5.9,3.81-6.67A13.6,13.6,0,0,1,767.82,296.94Z"/><path class="cls-12" d="M823.84,524.86c-6.15,4.26-11.1,9.14-11,17.51,0,3-1.46,6-3.46,8.44-2.68,3.25-6.68,5.44-7.67,10a1.63,1.63,0,0,1-2.45.92c-1.39-.68-.3-1.54,0-2.42a16.47,16.47,0,0,1,5.39-7.53,15.63,15.63,0,0,0,6.22-13.3,12.56,12.56,0,0,1,4.63-10c5.2-4.37,8-9.48,7.77-16.25a9.9,9.9,0,0,1,.79-2.85C826.24,514.58,824.47,519.71,823.84,524.86Z"/><path class="cls-10" d="M377.62,308.49c0,2.55-.09,5.39-3.45,5.42-3,0-6.56,1.63-9-1.77q-1.27-1.83-2.53-3.68c-1.82-3.17-1.06-4.38,2.74-5.06C372.56,302.11,375.65,303.08,377.62,308.49Z"/><path class="cls-8" d="M268.51,585.06c5.05-.79,10.05-1.87,15.17,0,2,.72,4,1.28,3.8,3.74s-2,3.73-4.39,3.94a31.6,31.6,0,0,1-16.39-2.89C266.6,588,266.58,586.13,268.51,585.06Z"/><path class="cls-3" d="M425.65,550.87,425.5,545l8-2.83c2.52,1.55,4.81,3.59,7.94,3.9.6,3.44-2.68,6-2.21,9.4-2.38-2.82-5.2.45-7.34-.43S429.47,549.83,425.65,550.87Z"/><path class="cls-10" d="M441.48,546.08c-3.13-.31-5.42-2.35-7.94-3.9a28.12,28.12,0,0,0,3.06-12.89l10.72,5Q444.4,540.16,441.48,546.08Z"/><path class="cls-14" d="M509.84,593c1.84-1.49,4-1.17,6.15-1.24,10.17-.33,20.38.79,30.53-.73.32,4-2,5.84-5.43,4.76s-6.48-.3-9.8,0c-5.61.54-11.3.06-17,.19C512,596.05,510.52,595.23,509.84,593Z"/><path class="cls-3" d="M411.81,564.83c4.35,2.19,9,.9,13.55,1.25l1.23,3.58c-.06,1.47-.12,3-.19,4.43-1.11,1.2-2.21,2.41-3.34,3.59-.72.76-1.85,1.51-2.3.11-1.4-4.4-4.93-3.64-8.18-3.71Q412.21,569.46,411.81,564.83Z"/><path class="cls-12" d="M851.81,409.19c-.62,3.5-2.2,6.79-4.92,8.76-5.22,3.79-6.81,9.23-7.47,14.91-.87,7.59-6.56,11.22-11.39,15.68l0-3.36c5.33-4,9.32-8.38,9.35-15.87A13.75,13.75,0,0,1,842,419.24a44.41,44.41,0,0,0,8-9.93Z"/><path class="cls-14" d="M845.16,593.1c8.85,2.48,17.94.8,26.88,1.59,2.13.18,3.73-1.18,5.67-1.4-.79,3.36-3.79,3.73-6.24,3.84a178.68,178.68,0,0,1-19.91-.11C849.19,596.86,845.54,597.21,845.16,593.1Z"/><path class="cls-12" d="M868.81,545.91c-4.52,5.09-11.46,8.43-11.45,16.79-2.12-4.9-1.78-7.25,2.56-11.51s7.62-8.78,7.41-15.44c-.09-2.87,1.76-5.8,4.53-7.6Q870.33,537,868.81,545.91Z"/><path class="cls-15" d="M716.17,592c11.23,2.16,22.54.79,33.82.92-.35,2.75-2.82,2.81-4.51,2.85-8.4.19-16.81.12-25.21,0C718,595.7,716,595,716.17,592Z"/><path class="cls-9" d="M534.7,568.08l-5-.19c.27-2.3-1.57-3.15-3-4.3l21.41-.07L546.51,568l-6.19.21Z"/><path class="cls-3" d="M784.2,490.25c2.62.11,5.35-.6,7.78,1-2.39,2.37-2.94,5.33-2.88,8.54a10.12,10.12,0,0,1-4.82,9.42Z"/><path class="cls-5" d="M604.31,592.13c7.63-.26,15.26-.57,22.88.15,0,1-.12,2,.84,2.72-2.15,2.19-4.86.89-7.27,1-4.81.16-9.63-.09-14.44-.17Z"/><path class="cls-10" d="M886.93,371.46c-4.1,2.1-8.07,0-12.09-.43-1.12-.13-2.06-1-1.09-2,1.53-1.54.92-5.83,3.88-4.78,3.43,1.23,7.73,2.08,9.35,6.34A2.17,2.17,0,0,0,886.93,371.46Z"/><path class="cls-14" d="M350.52,575.9l-15,.22c-2.12-1.23-1.24-2.8-.5-4.35,4.71-.82,9.44-.09,14.15-.21C349.68,573,351,574.14,350.52,575.9Z"/><path class="cls-14" d="M273.88,571.15l12.76-.06-.05-.05c.17.87.23,1.79,1.11,2.33l0,2.14c-5,1-10,.6-15,.19A5.39,5.39,0,0,1,273.88,571.15Z"/><path class="cls-8" d="M599.32,568.22l-7.46-.22-1.29-3.84c6.52-.45,13,1,19.54,0-.05,1.21-.1,2.42-.16,3.62l-5.73.4Z"/><path class="cls-8" d="M334.93,582c3,1.15,5.51,2.84,6.73,5.94.54,1.36,1.49,3,.52,4.23-1.13,1.46-3,.78-4.62.5a30.52,30.52,0,0,1-3.72-1.11C334.1,588.34,332.8,585,334.93,582Z"/><path class="cls-8" d="M369,591c-3,3.6-6.94,1.71-10.49,1.78-1.31,0-1-1.43-.6-2.31.93-2.22,1.94-4.41,2.92-6.62C364.63,585,366.37,588.48,369,591Z"/><path class="cls-14" d="M794,593c7.7,1.12,15.4,2.1,23.11.1-.12,1.94-1.06,3.17-3.07,3.15-5.95,0-11.9-.2-17.85-.25C794,596,794,594.58,794,593Z"/><path class="cls-12" d="M784.28,509.21a10.12,10.12,0,0,0,4.82-9.42c-.06-3.21.49-6.17,2.88-8.54a1.94,1.94,0,0,1,2.06.9,14.22,14.22,0,0,0-2.11,7,17.05,17.05,0,0,1-5.95,13C784.07,511.92,784.14,510.58,784.28,509.21Z"/><path class="cls-8" d="M272.71,575.7c5,.41,10,.85,15-.19.93,1.79.74,3.71.61,5.62-5.43-2-10.93-3-16.63-1.19C272,578.53,272.36,577.11,272.71,575.7Z"/><path class="cls-3" d="M449.25,182.74c2.41,4,6,7.45,4.86,13.79-2.45-5.13-6.12-8.42-8.83-12.45C446.17,182.35,447.8,182.81,449.25,182.74Z"/><path class="cls-14" d="M604.31,592.13l2,3.68a10.14,10.14,0,0,0-7.57-.07c-4.79,1.84-6.61-.08-6.34-5.5C596,593.24,600.45,590.84,604.31,592.13Z"/><path class="cls-13" d="M644.5,208.72a14.54,14.54,0,0,0-.7,11.83,5.19,5.19,0,0,1-2.37,6.65c.82-4.33,1.5-8.65-1.32-12.61.28-2.7.91-5.26,3-7.2Z"/><path class="cls-10" d="M860.86,574.27l-15.34,0c-.07-.72-.15-1.45-.23-2.18,5.32-1.14,10.64-2.4,15.68,1C860.94,573.44,860.9,573.85,860.86,574.27Z"/><path class="cls-10" d="M815.75,574.07l-13.74,0c-.19-2.41,1.07-3.13,3.31-3.06,3.45.11,6.92,0,10.38,0C815.71,572.08,815.73,573.08,815.75,574.07Z"/><path class="cls-16" d="M254.7,412.38c1-.17,2.58-2.07,2.39-1.27-1.11,4.73,5.73,8.44,1.05,14-.83-3.27.06-7.32-4.34-7.82Z"/><path class="cls-12" d="M817.08,560.12c-1.72.71-3.11,4.23-4.33,2.81-2-2.24,1.18-4.3,2.81-5.26,2.8-1.68,3.72-4.86,6.3-6.54A14.19,14.19,0,0,1,817.08,560.12Z"/><path class="cls-16" d="M349.47,495.15c-2.54-.18-2.72,1.4-3,3.44-.53,3.66-2,4.45-7,4,3.56-2,5.52-4.2,5.54-8.05,0-1.8,2.83-1.75,4.51-2.26C349.46,493.21,349.47,494.18,349.47,495.15Z"/><path class="cls-3" d="M731.78,554.38c-3-2.1-1.17-5.19-1.49-7.81a56.41,56.41,0,0,1,0-7.47h1.79Q731.93,546.72,731.78,554.38Z"/><path class="cls-14" d="M850,209.62l1.71,1a9.05,9.05,0,0,1-7.46,4.86C844.8,212.2,847.5,211,850,209.62Z"/><path class="cls-16" d="M252.67,495.11c3.09,0,6.51-.64,7.66,3.51a2.31,2.31,0,0,1-.2,1.8.93.93,0,0,1-1.6-.26c-1.12-4.55-4.32-1.92-6.71-2C251.72,497,251.54,495.88,252.67,495.11Z"/><path class="cls-8" d="M286.75,537.34c0-3.57-.08-7.15-.08-10.72,0-1.42-.3-3,1.74-3.48,0,3.66,0,7.31,0,11C288.48,535.52,288.29,536.78,286.75,537.34Z"/><path class="cls-12" d="M412.46,196.71c-1,3.42-1.78,6.94-3.75,10-.12-4.27-.91-8.68,2.68-12.13Z"/><path class="cls-12" d="M834.18,543.25c2,0,2-3.25,4.49-2.74,1,3.4-3.7,5.07-2.78,8.43C832.66,547.84,834.55,545.21,834.18,543.25Z"/><path class="cls-8" d="M286.59,567a13.77,13.77,0,0,1,0-10.92A17,17,0,0,1,286.59,567Z"/><path class="cls-9" d="M548.72,562.8c-.27-1.27-.72-2.57.46-3.65C550.5,560.56,550.56,561.8,548.72,562.8Z"/><path class="cls-3" d="M660.59,544.76c1.61.75,1.68,2,1,3.43C660,547.44,660.21,546.12,660.59,544.76Z"/><path class="cls-14" d="M628,595c-1-.7-.79-1.74-.84-2.72l1.79,0C629.39,593.4,628.27,594.05,628,595Z"/><path class="cls-8" d="M287.7,573.37c-.88-.54-.94-1.46-1.11-2.33C287.91,571.36,288.68,571.94,287.7,573.37Z"/><path class="cls-11" d="M548.1,384.64c1,10-1.68,19.4-4.77,28.72-2.68,8.1-7.8,13.29-16.72,14-3.31.25-6.61.67-9.92.94-11.87,1-20.81-5.55-23.37-17.48-2.23-10.44-3.94-20.74-1.13-31.43,2.93-11.18,14.68-18.87,25-19.49,7-.42,14.16-1.32,21,2.15,6.62,3.35,10.29,8.1,10,15.66C548,380,548.1,382.32,548.1,384.64Zm-10.71-16.8c-.46-1.32-1.92-2.13-2.45-1.07-.86,1.72.94,2.29,2.39,2.63a1.36,1.36,0,0,0,.72.35c1.68,3.72,1.22,8.4,5,11.87.33-8.06-.22-9.63-4.24-12.67Zm-2.94,48.55c1.93-.53,2.72-1.72,2.39-3.78-2.41.36-2.57,1.93-2.59,3.58l-.39.58ZM505.38,397.9h.19c-.09,1.49-.29,3-.25,4.47.21,6.8,3.87,11.33,9.8,12.24,8.76,1.34,17.14-3.76,20.39-12.37,3-7.88,1.61-15.42-.69-23.29-1.47-5-4.09-7.1-8.79-7.74-10.71-1.46-18.38,4.06-19.6,14.32C505.94,389.64,505.72,393.78,505.38,397.9Zm-2.62-24.08c-7.05,9.77-5.87,20.42-3.5,32.08C499,394.46,501.35,384.2,502.76,373.82ZM531.29,419c.26-.13.65-.2.73-.39s-.14-.52-.23-.79l-1,.51Z"/><path class="cls-3" d="M536.26,237.52a169.31,169.31,0,0,0,14.92,15.85c4.45,4,5,3.88,8.27-1,3.58-5.35,7.3-10.62,10.91-15.95a3.57,3.57,0,0,1,2.74-1.88c.35,21.27,3.5,42.26,6.39,63.27a40,40,0,0,0,1.64,5.69c-8.75-.83-17.51-1.12-26.29-1.09-2.69,0-4.33.84-5.52,3-2.26-1.36.79-6-3.42-5.88-2.62.1-3.6-1.72-5.17-2.94Z"/><path class="cls-11" d="M450.66,361.24a76.92,76.92,0,0,1,16.85,1.57c8.05,1.81,11.93,6.22,12.41,14.5a23.11,23.11,0,0,1-.48,5.43c-.52,2.85.85,10.66,2.11,13.1,5.48,10.6,2.21,26.54-11.81,29.78-9.18,2.12-18.18.84-27.23,1.59-2.9.24-4.48-1.43-5.19-4.25-1-3.84,0-7.59,0-11.39.18-11.42-.41-22.85.22-34.27a35.17,35.17,0,0,0-1.21-9.36c-1-4.7.53-6.4,5.31-6.53l6.49-.16C449,361.23,449.83,361.25,450.66,361.24ZM458,397.47c-8.12.12-8.09.12-7.72,8.13a33.22,33.22,0,0,1-.23,5.46c-.65,5.51.06,6.42,5.66,6.21a50,50,0,0,0,6.86-1c7.15-1.27,8.82-3.92,8-12.6-.35-3.84-4.18-6.36-9.62-6.32C460,397.36,459,397.44,458,397.47Zm-7.72-16.92c1.09,2.48-2.75,7.8,4.45,7.65,8.19-.17,12.63-2.6,12.72-7.8.08-5.61-3.77-8.95-10.53-9.12C450.65,371.12,450.46,371.38,450.26,380.55Zm-6.36,36.11V399.25C438.06,405.43,442.06,411.05,443.9,416.66Zm-.7-43.44c-.65,4.8-1.12,9.57.35,14.3C444.52,382.74,445,378,443.2,373.22Zm27.65-2.3a20.16,20.16,0,0,1-.15,14.66C474.5,382.33,474.65,376.8,470.85,370.92Z"/><path class="cls-11" d="M711.28,387.32c1.12-6.93-1.61-13.7-1.23-20.71.3-5.62.74-4.9,8.78-5.34,4.18-.22,3.87,2.82,3.59,5.93-.92,10.12,2,20.12,1.4,30.21s-2.41,19.95-11,27c-4.88,4-10.4,4.73-16.29,4.22-5.08-.43-10.16-.5-14.88-3.21s-7.15-6.49-7.37-11.55c-.45-10.06-1.23-20.1-1.1-30.21.08-5.79.43-11.48,1.07-17.2.26-2.38,1.15-4.37,3.65-4.64s5.26-1.59,7.42.91c1.7,1.94,1.06,4,.83,6.39-1.31,13.55-4.39,27.27,1.2,40.6,3.06,7.29,7.71,8.67,14.18,4.62s9.21-10.18,9.75-17.47C711.47,393.75,711.28,390.58,711.28,387.32Zm4.83,21c1.54-1.26,1.73-3,2-4.84.78-4.39,1.33-8.71.24-13.15-.29-1.16,1.65-3.33-.57-3.54-2.55-.24-1.51,2.37-1.61,3.79-.43,5.89.88,11.88-1.13,17.68q-3,3.92-6,7.84c-.64.85-1.11,1.85-.09,2.6s1.81-.11,2.49-.87C713.91,415.09,716,412.18,716.11,408.32Zm-36.61,2.8c.65,5.66,3.09,9.08,8.18,10.47A16.93,16.93,0,0,0,684,416.8C682.35,415.36,682.55,412.72,679.5,411.12Z"/><path class="cls-11" d="M554.52,388.22c.69-7.37-.94-14.87,1.69-22.15,1.37-3.77,4.46-5.79,9-4.55,3.61,1,3.76,4.07,2.89,6.84-3,9.38-2,19.09-2.3,28.63-.19,5.42,1.92,11.07,4.94,15.84,3.54,5.59,11.41,4.66,16.54-1.47a25.54,25.54,0,0,0,6.11-17.77c-.21-7.61.28-15.18-1.5-22.78-1.57-6.68,0-8.81,4.59-9.28,7.87-.83,7.9-.83,7.86,7.27-.06,9.79,1.27,19.57,1.14,29.29-.14,9.91-2.54,19.3-11,26.56-6.87,5.94-27.29,4.59-33.44-.64a14.94,14.94,0,0,1-4.8-9C554.55,406.14,554.79,397.16,554.52,388.22Zm13.77,32.11c.14.72.15,1.57,1.24,1.48a.46.46,0,0,0,.31-.31c.1-1.09-.76-1.08-1.47-1.25-2.25-3-3.8-6.55-7.51-9.27C563.17,419.17,563.44,419.49,568.29,420.33Zm28.12-11.9c-1.75,2.54-3.5,5.1-5.27,7.63-.61.87-1.1,1.85-.12,2.61s1.75,0,2.41-.82a23.52,23.52,0,0,0,4.7-9.49c2-3.18.76-7.28,3-10.46a1.51,1.51,0,0,0-1.19-2.22c-1.34-.14-1.52.95-1.59,2C598.13,401.31,598.94,405.17,596.41,408.43Zm1.86-18.19c.44,1.3-.78,4.09,1.64,3.64s-.76-1.72-.42-2.8c.09-.3,0-.7.14-.93.35-.53,1-.92,1.21-1.49.54-1.37.1-2.44-1.5-1.9S598.53,389,598.27,390.24Z"/><path class="cls-11" d="M754.35,359.82a28.05,28.05,0,0,1,10.3,1.49c4.23,1.24,6,4.6,4.74,8.92-1.18,4.15-3.73,5.21-8,4.16-2.68-.67-5.07-2.21-8.09-2.11-3.36.11-6.11,1-7.1,4.17a6.37,6.37,0,0,0,3.2,8,41.26,41.26,0,0,0,8.61,3.72c14.64,4.47,15.47,18.55,12,28.16-2.29,6.33-7.22,9.52-13.74,10.73-8.23,1.53-16.16,1.68-23.36-3.47-2.75-2-3.35-4-1.41-7.16,1.83-2.93,3.43-5.49,7.33-3.47,3.41,1.78,7.06,1.57,10.71,1.66,3.44.08,6.34-.38,6.85-4.63s-.24-8-4.8-9.73c-3.08-1.19-6.26-2.13-9.35-3.31-15.24-5.78-12.87-28.16-3.21-33.6C743.81,360.71,749,360,754.35,359.82Zm-16.76,58.95c3.65,4.13,12.4,4.73,17.26,1.88C749.23,420,743.94,420.92,737.59,418.77Z"/><path class="cls-11" d="M425.56,425.35c-3.05,3.1-4.52.55-5.74-1.78-1.93-3.64-2.63-7.78-4.57-11.48-1.06-2-2.09-3.14-4.35-3.23-1.81-.07-3.62-.53-5.43-.56-10.11-.17-13.09,2.42-13.91,12.4-.21,2.69-.82,5.87-3.28,5.93-3.47.08-7.13,2.28-10.56-.14-1.86-1.31-2.21-2.81-1.37-5.13,5.69-15.67,12.44-31,16.56-47.2,1-3.93,3.07-7.67,5.13-11.22s10.48-1.86,12.42,2.32q4.55,9.83,8.72,19.81c4.87,11.72,7.63,24.28,14.28,35.29,1,1.59,2.2,3.78-.59,5.05-2.1.95-4,.81-4.43-2-.21-2.4-.08-5-2.93-6.09a12,12,0,0,0-3.12-9.46c.74,3.27-1,7.45,3.1,9.48Q425.52,421.34,425.56,425.35Zm-20.83-42.43a23.54,23.54,0,0,0-4.58,8.53c-2,7.22-2.2,7,5,8.12,3.91.62,5.09-1,4.15-4.29C408.14,391.27,406.42,387.41,404.73,382.92Zm-15.82,23.23c-2.59,1.76-3.48,4.45-4.25,7.17a1.74,1.74,0,0,0,.9,2.09c1.08.48,1.4-.69,1.83-1.21C389.29,411.92,388.35,408.94,388.91,406.15Zm33.08-.06c-.93-2.86-.9-6.18-3.94-8.64C416.6,402.06,418.73,404.35,422,406.09Zm-30-9.25c2.62-1.64,3.1-4,3.21-6.48a.94.94,0,0,0-1.5-.65c-1.86,1.64-2.24,3.88-2.16,6.23C391.59,396.09,391.72,396.23,392,396.84Z"/><path class="cls-1" d="M640.11,214.59c2.82,4,2.14,8.28,1.32,12.61-4.22,2.66-7.16,6-6.2,11.45a1.91,1.91,0,0,0,.83,1.9l.35.08,0,.36c-.22,1.47.18,2.47,1.85,2.56h0c0,1.87,1.26,2.09,2.68,2.13l.17.26c.08,1.28.18,2.54,1.9,2.66a6,6,0,0,1-.06,4c-2.92,1-1.41,3.41-1.63,5.26,0,1.17,0,2.35,0,3.53.24,1.88-1.32,4.45,2,5.18a1.33,1.33,0,0,1,1.12,1.57l0,3.76c-.42.89-.84,1.78-1.25,2.67-1.58.2-1.91,1.19-1.67,2.56.08,3.57-2.51,6.19-3.36,9.42-1.6.22-1.87,1.25-1.6,2.61,1.25,4-4,6-3.06,9.88-.22,1.51.35,2.4,2,2.49a.68.68,0,0,1,.37.62l-.49,4.39h-18c-.29-3.24,1.73-6.3.78-9.6l.42-8.38c3.36-2.22,1.69-5.12,1.07-7.89a6.56,6.56,0,0,1,.33-4.3l3.06-20.5.28-1.26c3.26-1.22,2.79-4,2.8-6.62.11-.45.21-.91.32-1.36,2.87-1.19,2.69-3.77,2.81-6.21.11-.59.22-1.18.34-1.77,2.54-.94,2.29-3.26,2.63-5.29.12-.57.23-1.14.35-1.7,1.61-.3,1.81-1.36,1.48-2.72.53-1.42,1-2.84,1.58-4.27,1.6-.32,1.74-1.4,1.41-2.72.16-.42.32-.85.47-1.27,2.65-1,2.4-3.43,2.62-5.6l-.11-.24Z"/><path class="cls-3" d="M324.42,297.3c1.44,5.22.32,10.92,3,15.9-.73,13.6,1.88,26.95,3,40.41-.79-.22-1.79-.21-2.34-.7-8.67-7.69-18.57-13.78-27.5-21.12a10.58,10.58,0,0,1-4-9.11c.23-8.78.07-17.56.07-26.34,1.89.54,4.06.67,5.64,1.7,6.33,4.14,12.44,4.85,18.73,0C321.88,297.39,323.29,297.52,324.42,297.3ZM306.1,327l1.4-.19a49.08,49.08,0,0,0,0-5.29c-.19-1.81-2.79-2.44-2.47-4.61.16-1.11,1.45-3-.78-2.84-1.71.08-1.87,2.27-1.51,3.66C303.53,320.92,306.34,323.32,306.1,327Z"/><path class="cls-11" d="M624.5,399.52c0-7.9-.09-15.55,0-23.2.06-2.94-.65-4.38-3.91-3.85-1.79.3-3.67-.06-5.48.1-4.44.37-5.86-2.05-5.93-6-.08-4.17,2.06-5.19,5.95-5.25,11.3-.19,22.61.78,33.91-.45,2.75-.3,5,.9,5,4.17,0,2.93.43,6.35-3.75,7a38.28,38.28,0,0,1-6,.29c-7,.06-7,0-7,7.26-.09,13.8-.34,27.6-.13,41.39.08,5.15-2.45,6.12-6.72,6.27-4.82.16-6.39-1.94-6.17-6.59C624.62,413.57,625.14,406.42,624.5,399.52Zm5,5.62c.09,1.68-1.18,4.36,1.08,4.7,2.57.38,1.35-2.29,1.54-3.73.06-7.43.15-14.87.15-22.31,0-1.2.38-3.13-1.48-3.11s-1.46,1.9-1.46,3.13C629.32,390.92,629.41,398,629.47,405.14Zm2.73,10.57c-.18-.78.07-2.28-1.63-2.11s-1.37,1.6-1.32,2.69-.33,2.64,1.44,2.42C632,418.54,632.16,417.17,632.2,415.71Z"/><path class="cls-6" d="M638.09,286.51c.85-3.23,3.44-5.85,3.36-9.42a2.36,2.36,0,0,0,1.67-2.56c.41-.89.83-1.78,1.25-2.67,1.4-.33,1.74-1.47,2.06-2.64,5.51,1,11,1.76,15.44-2.89-.24,5.79-.81,11.6,1.35,17.19-1.27,6.52-5.65,11.82-7.13,18.26-.29,1.27-.6,2.55-.91,3.82l-8.95.8c-3.6-1.16-6.58-3.84-10.48-4.29a.68.68,0,0,0-.37-.62,3,3,0,0,0-2-2.49c-.91-3.89,4.31-5.89,3.06-9.88A2.4,2.4,0,0,0,638.09,286.51Z"/><path class="cls-3" d="M830.18,392.59l9.85-.45c-.33,1.45-1,2.91-.94,4.34.34,6.85-2.62,11.9-7.63,16.38A16.17,16.17,0,0,0,826,425.19c0,4.32-1.51,8.29-5,10.89-5,3.7-7.09,8.52-7,14.53,0,1.29.26,2.7-1,3.68-.68-8.12,1.42-16.13.94-24.23l.12-1.82,0,.06c3.26-1.89,3.69-5.17,3.86-8.41.24-4.48,1.6-8.44,5-11.4C827.76,404.26,830.5,399.15,830.18,392.59Z"/><path class="cls-12" d="M813,454.29c1.25-1,1-2.39,1-3.68,0-6,2.07-10.83,7-14.53,3.5-2.6,5-6.57,5-10.89a16.17,16.17,0,0,1,5.42-12.33c5-4.48,8-9.53,7.63-16.38-.08-1.43.61-2.89.94-4.34,1.13-1.21,2.63-.56,4-.8-.1.76-.19,1.52-.28,2.27-2.63.3-1.35,2.39-1.72,3.73l0,0c-2,1.95-.38,4.51-1.11,6.62-1.25,3.6-3,7-6.07,9.39a17.65,17.65,0,0,0-6.58,13.32c-.25,4.37-1.82,8.07-4.9,10.46-5.29,4.12-6.72,9.58-7.3,15.64-.33,3.44-1.63,6.24-4.64,8.1C812,458.66,811.72,456.29,813,454.29Z"/><path class="cls-3" d="M818.09,391.44l9.76,1.14c.51,5.42-1.94,9.75-5.76,13.06-3.58,3.11-5.29,7-6.73,11.22-.63,1.84.47,4.05-1.24,5.65L813.94,406Q816,398.74,818.09,391.44Z"/><path class="cls-10" d="M540.73,296.65c1.57,1.22,2.55,3,5.17,2.94,4.21-.16,1.16,4.52,3.42,5.88a4.29,4.29,0,0,1-4.15,5.13c-2.8.1-6.13.92-8.59-2-1.34-1.58-1.83-4-4.15-4.71,0-.47,0-.94,0-1.41.17-1.53.48-3,2.45-3C537.31,299.55,539,298.12,540.73,296.65Z"/><path class="cls-10" d="M338.58,372.17c.3-3.14,1.79-6.14,1.17-9.39a14.81,14.81,0,0,1,6.76-1.53,41.48,41.48,0,0,1,5.91.16c2,.32,4.81.13,5.75,2,1.34,2.69-2.34,2.43-3.24,3.94a6.43,6.43,0,0,0-.43,1.91C349,369.34,344.17,372.74,338.58,372.17Z"/><path class="cls-10" d="M439.6,307.24c2.49-4,7.14-5.51,12-3.68a52.66,52.66,0,0,1,4.78,2.33,48.26,48.26,0,0,0-4.48,5.69c-2.26,3.94-6,2.9-9.08,2.54C438.86,313.66,439.4,310.17,439.6,307.24Z"/><path class="cls-4" d="M818.09,391.44Q816,398.75,813.94,406c-1.57-2.8-.8-5.85-.69-8.74.52-14.06,1.27-28.11,1.94-42.17a3.23,3.23,0,0,1,1-2.7c1.5,1.51.86,3.43.87,5.16.06,9.38,0,18.76,0,28.13C817,387.7,817,389.67,818.09,391.44Z"/><path class="cls-9" d="M672.25,304.25c2.18,0,4.38-.08,6.27,1.3,0,2.84,2.51,6.26-1.45,8.19-3.07,1.49-6.31,1.7-9-1.15a1.71,1.71,0,0,0-1.63-2.15l-1.26-2-.12-3c1.39-1.49,3.28-1,5-1.27Z"/><path class="cls-12" d="M814.12,422.51c1.71-1.6.61-3.81,1.24-5.65,1.44-4.23,3.15-8.11,6.73-11.22,3.82-3.31,6.27-7.64,5.76-13.06h2.33c.32,6.56-2.42,11.67-7.3,15.9-3.41,3-4.77,6.92-5,11.4-.17,3.24-.6,6.52-3.86,8.41C814.05,426.37,814.09,424.44,814.12,422.51Z"/><path class="cls-3" d="M354.5,369.28a6.43,6.43,0,0,1,.43-1.91c.9-1.51,4.58-1.25,3.24-3.94-.94-1.89-3.72-1.7-5.75-2a41.48,41.48,0,0,0-5.91-.16c4.17-3.53,13.9-2.2,16.47,2.26,1.07,1.84-.81,5.67-3,5.85A52.82,52.82,0,0,1,354.5,369.28Z"/><path class="cls-7" d="M490.37,304.51c.66-4.36-1.51-9.09,1.71-13.11.56,2.84-.35,5.56-.8,8.31-.53,3.3.72,4.4,4,4.25,7.4-.32,14.8-.83,22.21-.1C508.46,304.49,499.46,306.59,490.37,304.51Z"/><path class="cls-13" d="M618.08,296.9c.95,3.3-1.07,6.36-.78,9.6-6.07,1.18-12.15,2.65-18-.76,4.13.07,8.27-.06,12.37.27,3.58.28,5.26-.82,5-4.61C616.54,299.85,616.44,298,618.08,296.9Z"/><path class="cls-10" d="M635.75,302.11c3.9.45,6.88,3.13,10.48,4.29a15,15,0,0,1-11,.1C635.42,305,635.59,303.57,635.75,302.11Z"/><path class="cls-16" d="M330.6,476.11a20.88,20.88,0,0,1-1.37,2.56c-.73,1-1.46,2.74-3,1.81-1.28-.8-.15-2.06.53-3,1.09-1.45.13-2.45-.7-3.49-1.72-2.16-1.19-4.23.46-6.83,1.37,3,1.13,6.42,4,8.09C330.61,475.56,330.61,475.84,330.6,476.11Z"/><path class="cls-16" d="M330.58,419.37c-5.39.59-5.59-2.41-4.46-6.64,2.49.73.62,5.57,4.47,4.59C330.59,418,330.58,418.68,330.58,419.37Z"/><path class="cls-15" d="M425.51,417.28c2.85,1.13,2.72,3.69,2.93,6.09l-2.88,2q0-4-.07-8.05Z"/><path class="cls-4" d="M816.66,310.33c2,2.41,2,4.84.05,7.28A11.41,11.41,0,0,1,816.66,310.33Z"/><path class="cls-10" d="M655.69,306.58a3.73,3.73,0,0,1,3.92-.29C658.4,307.8,657.05,307.25,655.69,306.58Z"/><path class="cls-13" d="M581.26,303.72c2.3.36,4.8-.4,6.89,1.2C585.66,305.63,583.46,304.69,581.26,303.72Z"/><path class="cls-10" d="M665.07,305.48l.12,3c-1.45-.22-1.86-1.25-2-2.52Z"/><path class="cls-1" d="M679.25,486.31a1.76,1.76,0,0,1-2.08.56C677.54,485.5,678.08,484.74,679.25,486.31Z"/><path class="cls-10" d="M666.45,310.44a1.71,1.71,0,0,1,1.63,2.15C667.08,312.22,666.32,311.67,666.45,310.44Z"/><path class="cls-7" d="M532.38,302.5c0,.47,0,.94,0,1.41-.74.26-1.49.58-2-.33A2.11,2.11,0,0,1,532.38,302.5Z"/><path class="cls-1" d="M454.57,486.47a1.93,1.93,0,0,1-2.13.48C452.83,485.37,453.45,484.79,454.57,486.47Z"/><path class="cls-12" d="M814.06,428.24l-.12,1.82C812.87,429.37,813.17,428.79,814.06,428.24Z"/><path class="cls-16" d="M288.72,372.41c.2-3.4-.07-8,3.19-9.06,3.59-1.14,5.56,3.39,8,5.8-.62.21-1.61.23-1.81.64C295.89,374.18,292.63,374.37,288.72,372.41Z"/><path class="cls-16" d="M306.22,394.21c-2,.26-2.92-.88-4-1.56-.95-.59-2.62-1.19-2-2.39.95-1.75,2.32-.44,3.16.47,1.56,1.69,3,1,4.33-.09,2.92-2.35,4.55.06,6.15,1.74.92,1-.18,2.33-1.05,1.65C310.21,392,308,393.05,306.22,394.21Z"/><path class="cls-16" d="M316,491c-3,.85-5.43,2-7,5-.93,1.73-3.23,1.39-5,.63a1.83,1.83,0,0,1-1-2.47,1.24,1.24,0,0,1,2.06-.44c1.64,1.67,2.51.84,3.24-.79C310.06,489,313.06,490.29,316,491Z"/><path class="cls-16" d="M276.11,495.76c2.41,1.59,4.09,4,7.61,3.21,1.46-.35,2.59,1.77,3.56,3.06a1.53,1.53,0,0,1-.49,2.17c-.74.49-1.14-.21-1.49-.76-1.19-1.9-3-2.22-5.09-2.31C276.86,501,276.53,498.35,276.11,495.76Z"/><path class="cls-16" d="M318.29,436.44c.32,2.77,0,5.38,2.65,7.51,1.47,1.17,1.09,3.72-.29,5.43a2,2,0,0,1-1.74.59c-1.17-.38-.79-1.12-.15-1.83,1.63-1.8.09-2.91-.9-4.22C316,441.47,316.07,439,318.29,436.44Z"/><path class="cls-16" d="M290.22,477.16c2.69-2.65,4.62-5.17,5.1-8.66.18-1.39,2.21-1.71,4.11-.52C295.42,470.17,297.64,477.24,290.22,477.16Z"/><path class="cls-16" d="M283.69,448.2c1.47-.09,3.17.57,4.34-.48,3.12-2.8,4.93-.06,7.05,1.78-3.72-1.83-8,3.56-11.46-1.21Z"/><path class="cls-16" d="M282.72,400.38c-.12,7-.46,7.43-5.66,7.19,4.22-.81,2.34-5.8,5.54-7.32Z"/><path class="cls-16" d="M282.6,400.25c.16-1,.53-1.93,1.8-1.7.32.06.84.71.77.91-.43,1.2-1.56.77-2.45.92Z"/><path class="cls-16" d="M283.62,448.29l-2.12-.48c.09-.13.15-.33.27-.37a1.53,1.53,0,0,1,1.92.76Z"/><path class="cls-16" d="M890.86,329.52c-1.3-6.63-.74-13.29-.7-21.28C894.32,315.85,894.32,315.85,890.86,329.52Z"/><path class="cls-12" d="M843.73,405.56c-3.3-2.18-.87-5.55-1.71-8.25l0,0,1.7-.27Q843.72,401.31,843.73,405.56Z"/><path class="cls-3" d="M843.69,397.07l-1.7.27c.37-1.34-.91-3.43,1.72-3.73C843.7,394.76,843.7,395.92,843.69,397.07Z"/><path class="cls-12" d="M853.05,409.15l-1.14,0C852.32,408.43,852.7,408.52,853.05,409.15Z"/><path class="cls-8" d="M311.92,243.51c-2.66,5.83,0,10.54,3.45,14.85,1.5,1.9,2.82,3.56,2.41,6.07-8.24,6.45-17,6.78-26.09,2.09-1.63-1.67-1.23-3.73-.8-5.6,1.52-6.59-1.1-11.75-5.35-16.42.64-5.69,2.14-11.38-2.05-16.63a16.39,16.39,0,0,0-4.78-4c-2.43-1.44-4.66-3.5-3.8-6.85.77-3,3.15-3.35,5.84-3.45,2.87-.1,5.07-1.16,5.06-4.74a18.83,18.83,0,0,1,1.1-5.33c1.29-4.27,3.35-7.55,8.69-6.82,2.67.37,5.24-.5,7.81-1.21,5.33-1.48,8.89.41,10,5.7,2.08,9.69,2.36,19.4-1.5,28.77C310,234.57,310.49,239,311.92,243.51Z"/><path class="cls-7" d="M291.69,266.52c9.13,4.69,17.85,4.36,26.09-2.09,3.13,2.06,1.6,5.49,2.27,8.22,1.77,7.16,3,14.45,4.4,21.7a14.57,14.57,0,0,1,0,2.95c-1.13.22-2.54.09-3.35.72-6.29,4.87-12.4,4.16-18.73,0-1.58-1-3.75-1.16-5.64-1.7-1.56-8.64-1.26-17.61-4.74-25.91C291.48,269.29,291.76,267.83,291.69,266.52Z"/><path class="cls-13" d="M623,255.83l-3.06,20.5C619.6,269.3,619,262.23,623,255.83Z"/><path class="cls-13" d="M619.57,280.63c.62,2.77,2.29,5.67-1.07,7.89C618.55,285.85,618,283.1,619.57,280.63Z"/><path class="cls-13" d="M626,248c0,2.59.46,5.4-2.8,6.62C623.77,252.19,624,249.69,626,248Z"/><path class="cls-13" d="M629.17,240.38c-.12,2.44.06,5-2.81,6.21C626.86,244.32,627,241.87,629.17,240.38Z"/><path class="cls-13" d="M640.05,215c-.22,2.17,0,4.56-2.62,5.6C638.11,218.68,638,216.37,640.05,215Z"/><path class="cls-13" d="M632.14,233.32c-.34,2-.09,4.35-2.63,5.29C630.05,236.68,630.27,234.59,632.14,233.32Z"/><path class="cls-13" d="M637,221.91c.33,1.32.19,2.4-1.41,2.72A2.63,2.63,0,0,1,637,221.91Z"/><path class="cls-13" d="M634,228.9c.33,1.36.13,2.42-1.48,2.72C632.27,230.33,633,229.57,634,228.9Z"/><path class="cls-9" d="M705.28,257.09c-.64,9.11-6,14.56-13.83,18.35-9,4.36-16,.34-22.73-4.9a22.09,22.09,0,0,1-2.7-2.92c-.56-1.65-1.24-3.28-.81-5.09,5.3-3.08,8-7.81,8.88-13.77l.45-.08c4.29.17,6.85-2,7.59-6.08,1.21-6.67-2.71-10.18-10.86-10l-1.89-.22c-2.63-5.62-2-7.19,3.31-9,2.32-.76,3.13-2.49,3.53-4.8,1.52-8.83,1.58-8.88,10.31-9.11,2,0,3.56-.52,4.73-2.14,2.1-2.91,4.68-4.82,8.46-3.38s4.76,4.58,5.58,8.11c1.36,5.81-.22,11.56.06,17.34l-1.09,3.12c-1.22,3.38-3.5,6.33-4.11,10-1.21.62-2.89.86-2.29,2.9,0,.38.11.75.16,1.13-1,1.28,0,1.77.91,2.3C699,253.17,702.06,255.21,705.28,257.09Z"/><path class="cls-11" d="M665.21,262.53c-.43,1.81.25,3.44.81,5.09-1.78,5.18-.37,10.51-.78,15.75l-2,.15c-2.16-5.59-1.59-11.4-1.35-17.19l.09.1A1.5,1.5,0,0,0,663,264.9C662.91,263.34,663.24,262.18,665.21,262.53Z"/><path class="cls-14" d="M704.27,232.59l1.09-3.12c4.9,1.53,5.59,5.44,4.66,9.52s-4,6.17-8.19,6.56a32.83,32.83,0,0,1-4-.1c-.6-2,1.08-2.28,2.29-2.9,2.11,1.61,6.28-.46,7.43-4C708.56,235.61,708.34,233,704.27,232.59Z"/><path class="cls-14" d="M669.38,232.4l1.89.22,1.82,2.26c-2.87,1.43-5.58,3.05-4.77,6.93.66,3.12,2.77,4.67,5.94,4.8l.28,2.07-.45.08c-3.42.21-6.59-1.09-7.48-4.2s-1.68-6.75,1.26-9.66A11.55,11.55,0,0,0,669.38,232.4Z"/><path class="cls-13" d="M643.28,266.53c-3.28-.73-1.72-3.3-2-5.18C642,263.08,642.62,264.8,643.28,266.53Z"/><path class="cls-13" d="M641.34,257.82c.22-1.85-1.29-4.25,1.63-5.26C643.26,254.57,641.94,256.08,641.34,257.82Z"/><path class="cls-13" d="M646.43,269.22c-.32,1.17-.66,2.31-2.06,2.64l0-3.76A2.13,2.13,0,0,1,646.43,269.22Z"/><path class="cls-13" d="M641,245.67c-1.42,0-2.71-.26-2.68-2.13A3,3,0,0,1,641,245.67Z"/><path class="cls-13" d="M643,248.59c-1.72-.12-1.82-1.38-1.9-2.66C642.29,246.44,643.49,246.92,643,248.59Z"/><path class="cls-14" d="M698.94,248.88c-.89-.53-1.9-1-.91-2.3C699.07,247.06,699.16,247.9,698.94,248.88Z"/><path class="cls-13" d="M638.29,243.55c-1.67-.09-2.07-1.09-1.85-2.56A3.46,3.46,0,0,1,638.29,243.55Z"/><path class="cls-13" d="M636.06,240.55a1.91,1.91,0,0,1-.83-1.9C635.51,239.29,635.78,239.92,636.06,240.55Z"/><path class="cls-6" d="M663,264.9a1.5,1.5,0,0,1-1.06,1.53A1.6,1.6,0,0,1,663,264.9Z"/><path class="cls-13" d="M448.77,249.38c-5.39-4-9.59-8.75-10.26-15.8,4.47.08,8.85-.22,12.74-2.8,2.08-1.38,3.2-1.08,3.41,1.68a67.66,67.66,0,0,0,4.66,18.93A21.09,21.09,0,0,0,448.77,249.38Z"/><path class="cls-11" d="M710.19,280.4l-2,.1c0-6.49,0-13,0-19.47,0-1.49-.09-3.67,1.77-3.49,2.47.25.63,2.2.6,3.44C710.4,267.46,710.3,273.93,710.19,280.4Z"/><path class="cls-1" d="M784.18,182.81l-.49.59c-.45-.41-.27-.68.19-.89Z"/><path class="cls-10" d="M672.25,304.25l-2.2,0C670.82,302.77,671.55,302.65,672.25,304.25Z"/><path class="cls-5" d="M599.32,568.22l4.9,0c0,4.13,0,8.25.07,12.38,0,2-.37,4.11-2.53,4.12s-2.65-2.21-2.65-4.1C599.12,576.46,599.24,572.34,599.32,568.22Z"/><path class="cls-14" d="M534.7,568.08l5.62.1c0,3.81.11,7.64,0,11.45-.07,2.14-.31,5-3,4.94s-2.77-3-2.84-5.06C534.34,575.71,534.6,571.89,534.7,568.08Z"/><path class="cls-2" d="M505.38,397.9c.34-4.12.56-8.26,1.05-12.36,1.22-10.26,8.89-15.78,19.6-14.32,4.7.64,7.32,2.7,8.79,7.74,2.3,7.87,3.66,15.41.69,23.29-3.25,8.61-11.63,13.71-20.39,12.37-5.93-.91-9.59-5.44-9.8-12.24,0-1.49.16-3,.25-4.47Z"/><path class="cls-13" d="M502.76,373.82c-1.41,10.38-3.73,20.64-3.5,32.08C496.89,394.24,495.71,383.59,502.76,373.82Z"/><path class="cls-13" d="M538.79,368.94c4,3.05,4.57,4.62,4.24,12.68-3.76-3.47-3.3-8.15-5-11.88C538.3,369.47,538.55,369.21,538.79,368.94Z"/><path class="cls-4" d="M534.24,416.19c0-1.65.19-3.22,2.6-3.58.33,2.06-.46,3.25-2.39,3.78Z"/><path class="cls-12" d="M537.33,369.4c-1.45-.34-3.25-.91-2.39-2.63.53-1.06,2-.25,2.45,1.07Z"/><path class="cls-4" d="M531.29,419l-.47-.67,1-.51c.09.27.31.59.23.79S531.55,418.82,531.29,419Z"/><path class="cls-4" d="M534.45,416.39l-.59.38.38-.58Z"/><path class="cls-13" d="M537.33,369.4l.06-1.56,1.4,1.1c-.24.27-.49.53-.74.8A1.28,1.28,0,0,1,537.33,369.4Z"/><path class="cls-2" d="M458,397.48c1,0,2-.12,3-.13,5.44,0,9.27,2.48,9.62,6.32.79,8.68-.88,11.33-8,12.6a50,50,0,0,1-6.86,1c-5.6.21-6.31-.7-5.66-6.21a33.22,33.22,0,0,0,.23-5.46C449.89,397.59,449.86,397.59,458,397.48Z"/><path class="cls-1" d="M450.26,380.55c.2-9.17.39-9.43,6.64-9.27,6.76.17,10.61,3.51,10.53,9.12-.09,5.2-4.53,7.63-12.72,7.8C447.51,388.35,451.35,383,450.26,380.55Z"/><path class="cls-15" d="M443.9,416.66c-1.84-5.61-5.84-11.23,0-17.41Z"/><path class="cls-13" d="M443.2,373.22c1.81,4.75,1.32,9.52.35,14.3C442.08,382.79,442.55,378,443.2,373.22Z"/><path class="cls-12" d="M470.85,370.92c3.8,5.88,3.65,11.41-.15,14.66A20.16,20.16,0,0,0,470.85,370.92Z"/><path class="cls-4" d="M715.09,408.26c2-5.8.7-11.79,1.13-17.68.1-1.42-.94-4,1.61-3.79,2.22.21.28,2.38.57,3.54,1.09,4.44.54,8.76-.24,13.15-.32,1.84-.51,3.58-2,4.84Z"/><path class="cls-12" d="M715.09,408.26l1,.06c-.12,3.86-2.2,6.77-4.63,9.51-.68.76-1.45,1.63-2.49.87s-.55-1.75.09-2.6Q712.08,412.17,715.09,408.26Z"/><path class="cls-15" d="M679.5,411.12c3,1.6,2.85,4.24,4.54,5.68a16.93,16.93,0,0,1,3.64,4.79C682.59,420.2,680.15,416.78,679.5,411.12Z"/><path class="cls-12" d="M598.13,408.36a23.52,23.52,0,0,1-4.7,9.49c-.66.86-1.4,1.61-2.41.82s-.49-1.74.12-2.61c1.77-2.53,3.52-5.09,5.27-7.64Z"/><path class="cls-4" d="M598.13,408.36l-1.72.06c2.53-3.25,1.72-7.11,1.94-10.78.07-1,.25-2.1,1.59-2a1.51,1.51,0,0,1,1.19,2.22C598.89,401.08,600.13,405.18,598.13,408.36Z"/><path class="cls-15" d="M568.29,420.33c-4.85-.84-5.12-1.16-7.43-9.35,3.71,2.72,5.26,6.29,7.51,9.27Z"/><path class="cls-4" d="M598.27,390.24c.26-1.26-.54-2.94,1.07-3.48s2,.53,1.5,1.9c-.23.57-.86,1-1.21,1.49-.16.23,0,.63-.14.93-.34,1.08,2.77,2.37.42,2.8S598.71,391.54,598.27,390.24Z"/><path class="cls-15" d="M568.37,420.25c.71.17,1.57.16,1.47,1.25a.46.46,0,0,1-.31.31c-1.09.09-1.1-.76-1.24-1.48Z"/><path class="cls-12" d="M737.59,418.77c6.35,2.15,11.64,1.2,17.26,1.88C750,423.5,741.24,422.9,737.59,418.77Z"/><path class="cls-1" d="M404.73,382.92c1.69,4.49,3.41,8.35,4.57,12.36.94,3.26-.24,4.91-4.15,4.29-7.2-1.14-7-.9-5-8.12A23.54,23.54,0,0,1,404.73,382.92Z"/><path class="cls-15" d="M388.91,406.15c-.56,2.79.38,5.77-1.52,8.05-.43.52-.75,1.69-1.83,1.21a1.74,1.74,0,0,1-.9-2.09C385.43,410.6,386.32,407.91,388.91,406.15Z"/><path class="cls-12" d="M422,406.09c-3.26-1.74-5.39-4-3.94-8.64C421.09,399.91,421.06,403.23,422,406.09Z"/><path class="cls-15" d="M425.49,417.3c-4.09-2-2.36-6.21-3.1-9.48a12,12,0,0,1,3.12,9.46Z"/><path class="cls-12" d="M392,396.84c-.31-.61-.44-.75-.45-.9-.08-2.35.3-4.59,2.16-6.23a.94.94,0,0,1,1.5.65C395.13,392.82,394.65,395.2,392,396.84Z"/><path class="cls-13" d="M643.12,274.53a2.36,2.36,0,0,1-1.67,2.56C641.21,275.72,641.54,274.73,643.12,274.53Z"/><path class="cls-13" d="M638.09,286.51a2.4,2.4,0,0,1-1.6,2.61C636.22,287.76,636.49,286.73,638.09,286.51Z"/><path class="cls-13" d="M633.43,299a3,3,0,0,1,2,2.49C633.78,301.4,633.21,300.51,633.43,299Z"/><path class="cls-16" d="M306.1,327c.24-3.68-2.57-6.08-3.4-9.27-.36-1.39-.2-3.58,1.51-3.66,2.23-.11.94,1.73.78,2.84-.32,2.17,2.28,2.8,2.47,4.61a49.08,49.08,0,0,1,0,5.29Z"/><path class="cls-12" d="M629.47,405.14c-.06-7.11-.15-14.22-.17-21.32,0-1.23-.38-3.12,1.46-3.13s1.48,1.91,1.48,3.11c0,7.44-.09,14.88-.15,22.32Z"/><path class="cls-4" d="M632.2,415.71c0,1.46-.19,2.83-1.51,3-1.77.22-1.4-1.41-1.44-2.42s-.24-2.53,1.32-2.69S632,414.93,632.2,415.71Z"/><path class="cls-4" d="M629.47,405.14l2.62,1c-.19,1.43,1,4.1-1.54,3.72C628.29,409.5,629.56,406.82,629.47,405.14Z"/><path class="cls-7" d="M673.09,234.88l-1.82-2.26c8.15-.2,12.07,3.31,10.86,10-.74,4.07-3.3,6.25-7.59,6.08-.09-.69-.19-1.38-.28-2.07l1.39-.22c5.91-4.8,6-7,.55-10.79Z"/><path class="cls-5" d="M704.27,232.59c4.07.36,4.29,3,3.32,6-1.15,3.5-5.32,5.57-7.43,4C700.77,238.92,703.05,236,704.27,232.59Z"/><path class="cls-5" d="M675.65,246.39l-1.39.22c-3.17-.13-5.28-1.68-5.94-4.8-.81-3.88,1.9-5.5,4.77-6.93l3.11.72C676.85,239.24,675.47,242.77,675.65,246.39Z"/><path class="cls-9" d="M675.65,246.39c-.18-3.62,1.2-7.15.55-10.79C681.67,239.38,681.56,241.59,675.65,246.39Z"/></g></g></svg>