<svg xmlns="http://www.w3.org/2000/svg" viewBox="0 0 1155 952"><defs><style>.cls-1{fill:#f5f5f6;}.cls-2{fill:#0baf52;}.cls-3{fill:#1eb4b2;}.cls-4{fill:#f6ac7c;}.cls-5{fill:#1a2551;}.cls-6{fill:#5cc4c0;}.cls-7{fill:#4b327a;}.cls-8{fill:#764684;}.cls-9{fill:#895ca4;}.cls-10{fill:#753a23;}.cls-11{fill:#f0beae;}.cls-12{fill:#0a743c;}.cls-13{fill:#65308f;}.cls-14{fill:#f1f9fa;}.cls-15{fill:#cf7a60;}.cls-16{fill:#100a0f;}</style></defs><g id="Layer_2" data-name="Layer 2"><g id="Layer_1-2" data-name="Layer 1"><path class="cls-1" d="M577.5.09Q864,.09,1150.41,0c3.75,0,4.59.84,4.59,4.59q-.15,471.41,0,942.82c0,3.75-.84,4.59-4.59,4.59Q577.5,951.85,4.59,952C.84,952,0,951.16,0,947.41Q.15,476,0,4.59C0,.84.84,0,4.59,0Q291,.17,577.5.09Zm469.88,318.32-.69-2.58a5.19,5.19,0,0,1,1.84-.71c18.08.7,36.2,1,54.23,2.33,18.58,1.42,31.94-9.41,32.73-25.05,1.19-23.53,2.59-47.07,3.39-70.63q.81-23.39,1.78-46.77c.41-10.38-2.31-19.26-11.55-25.19-4.22-5.84-10.93-5.85-16.95-6.5-8.23-.88-16.6-.85-24.87-1-21.44-.46-42.81-2.12-64.21-2.93-24.08-.9-48.14-2.08-72.21-3-32.39-1.24-64.78-2.37-97.15-4.08q-47.54-2.5-95.13-4c-22.76-.71-45.46-2.3-68.21-3.09-20.58-.71-41.15-1.54-61.72-2.75-19.56-1.15-39.2-1.2-58.8-2.23-19.08-1-38.19-1.51-57.29-2.28-24.4-1-48.8-2.22-73.21-2.89-13.31-.37-24.9,10.3-26.61,23.58-2.13,16.5-.66,33.16-2.56,49.73-1.49,13-1,26.21-1.45,39.32,0,1.16,0,2.36-1,3.22l-68.83.19-4.39,0c-5-6.24-5.52-13.94-6.76-21.4,21.57-10.43,28.75-32.58,17.05-53.21-1.43-2.52-1.54-4.29-.19-6.77,5.49-10.13,7.56-20.82,4.68-32.2.11-.63.31-1.3-.6-1.52a4.6,4.6,0,0,0-1.73-3.16c-3.44-10.48-22-15.47-33.28-13.15l-2.19,0c-1.8-2-.75-4.68-1.56-6.92a4.58,4.58,0,0,0-.77-3.28c.55-.68.27-1.25-.23-1.8.15-5.16-2.27-9.46-4.63-13.79.09-.84-.39-1.18-1.14-1.26L302,70.81c-4.65-7.44-11.76-10.94-20.13-11.88-15-1.68-28.37,2.53-38.95,13.38-5.09,5.21-9.46,9.67-17,4.65-.35-.23-1-.06-1.47-.07-8-2.25-16-1.77-24,.09a101.76,101.76,0,0,0-44,18.25c-11,7.85-19.93,17.43-23.16,31.13a7.11,7.11,0,0,1-2.53,3.55c-17.45,4.64-31.56,13.91-41.22,29.47-5.28,8.49-8,18-11.36,27.31-9.51-1.33-16.9,2.64-22.7,9.67-11.41,13.84-13.42,39.25-4.67,55.45.83,5.1,3.6,9.5,5.24,14.3,2.6,7.61,6.77,14.62,8.6,22.52a16.15,16.15,0,0,0-2.31,1.85c-29.8,34.17-45.95,73.74-46.08,119.25-.23,80.49-.06,161-.05,241.48,0,2.66.15,5.31.23,8-.1,18.6-.32,37.2-.27,55.8.06,17.93-.72,35.88,1,53.77.41,4.29,1,8.51,2.9,12.44,0,2-.48,4,.77,5.76-.23,3.84,1.86,7.17,2.4,10.84l0,0,1.24,2.33a37.83,37.83,0,0,1,2.7,6.29,127.82,127.82,0,0,0,12,27.11c6.51,11.33,13.45,22.43,22.4,32,8.22,8.81,16.11,18,26.33,24.74l1.2,2.13,0,0,2.25,1.45-.09,0a162.15,162.15,0,0,0,32.68,19.71c22.22,10.1,45.79,14.45,70.14,14.47q98.28.09,196.54,0c2.17,0,4.27-.06,6.19-1.21,1.55,1.89,3.69,1.1,5.57,1.1q35.25.08,70.5,0l7.64-.17c1,.08,2,.23,3,.23H897.89a158,158,0,0,0,47-7.55c32.31-10.06,60-27.48,82.62-52.92,30.84-34.67,46.07-75.33,46.21-121.38.34-109.15,0-218.3.15-327.46,0-22.44-2.59-44.44-10-65.68-3.56-10.25-7.23-20.56-13.63-29.55C1050.31,321.2,1048.88,319.78,1047.38,318.41Z"/><path class="cls-2" d="M396.8,926.82c-1.92,1.15-4,1.21-6.19,1.21q-98.26,0-196.54,0c-24.35,0-47.92-4.37-70.14-14.47a162.15,162.15,0,0,1-32.68-19.71l.09,0-2.25-1.45.15-.3-.18.27-1.2-2.12c.1-1.62.26-3.26.26-4.89q-.08-33.72-.2-67.44c3.74-.3,3.9-3.19,3.89-5.84,0-7-.54-13.94-.58-20.87-.13-18.94-2.3-37.73-3.46-56.59-.47-7.73-2.28-15.37-3.6-23-.38-2.21-1.44-4.6-4.11-4-3,.67-1.91,3.27-1.57,5.37,1.56,9.81,3.57,19.52,3.76,29.54.15,8.26,1.6,16.49,2,24.75.67,13.57,1,27.16,1.41,40.74-20.88,1.14-41.58.94-61.18-7.88l-1.25-2.35,0,0c-.54-3.67-2.63-7-2.4-10.84,8.64,3.19,17,7,26.32,8.31,10.11,1.44,20.22.6,30.33.61a3.14,3.14,0,0,0,3.2-3.23c0-2.18-1.78-2.54-3.56-2.53-5.16,0-10.31.08-15.47.09-11,0-21.76-1.4-31.84-6.21-3.1-1.48-5.95-3.8-9.75-2.8-1.89-3.93-2.49-8.15-2.9-12.44-1.73-17.89-1-35.84-1-53.77-.05-18.6.17-37.2.27-55.8,4.08-1.16,4.87-4.36,4.95-8,1.94.17,2.38-1.59,3.15-2.69,10.28-14.65,24-25.64,38.73-35.25,26.19-17.11,54.45-30.14,83.74-41.08,5.55-2.07,9.73-2.36,13.83,2a1.41,1.41,0,0,0,.65,1.73c-.28,1,0,1.28,1,.93l1.57,1.15,0,.31h.31a.66.66,0,0,0,.66.53c.2.44.28,1,.61,1.3,12.29,10.73,26.82,17.14,42.47,20.71a156,156,0,0,0,47.61,3c18.69-1.51,36.72-5.78,52.72-16.12,5.89-3.8,12.12-7.43,15.81-13.83,3.87-4,8-3.94,12.78-1.41,2.23,1.18,4.67,2.38,7.39,2.32a13.09,13.09,0,0,0,1.67,1c18.64,7.78,37.16,15.8,54.8,25.73,18.12,10.2,35.44,21.46,49.9,36.63,12.57,13.18,20.7,28.13,20,47.14-.36,10.11.8,20.26,1.11,30.39.6,19.78,1.85,39.53,1.42,59.33a35.05,35.05,0,0,0-9.31,4.47c-5.86,3.84-12.4,6-19.11,7.8-11.69,3-23.62,3.25-35.59,2.91-1.82,0-4.06-.18-4.26,2.31-.17,2.11,1.45,3.39,3.47,3.49,14.29.67,28.47.17,42.34-4,8-2.39,14.91-7,22.53-10.13,2.15,6-1.76,10-4.92,14.17a2.32,2.32,0,0,0-1.92,1.31c-5.58,2-10.67,5.12-16.39,6.82-16.66,4.94-33.7,4.65-50.78,4-.25-2.63-.7-5.25-.7-7.88-.07-18.8-.3-37.6.08-56.4.18-9.08.94-18.32,7.41-25.73.79-.92,1.59-1.81.6-3-.86-1.08-2-2.23-3.36-1.46-3.57,2-2.89-.59-2.9-2.47,0-1.33.09-2.67.07-4,0-2,.42-4.54-2.42-4.58-2.63,0-3.29,2.18-3.53,4.57-1.33,13.22-1.42,26.51-1.75,39.76-.82,32.09.88,64.17.67,96.26-.14,21.43,2.05,42.81,1.3,64.25,0,1-1,2.85,1.39,2.89,1.71,5.07-.2,10.42,1.19,15.52ZM243.3,626.29c5.48.66,12.48-.31,19.29-1.39,18.54-2.94,36.47-8.1,53.17-17,2.17-1.16,4.73-2.21,3.46-5-1.41-3.06-4-1.09-6-.25-.77.31-1.48.75-2.23,1.12-13.15,6.41-26.88,11.51-41.2,14.1a143.22,143.22,0,0,1-43.08,1.61c-29.62-3.64-56.69-12.63-78-34.8-1.15-1.2-2.47-3.35-4.5-1.45-1.76,1.66-1.05,3.47.27,5.33,3.61,5.11,8.47,9.07,13.45,12.44C183.2,618.1,211.27,626.33,243.3,626.29Zm96.47-41c-.07-1,0-2.07-1.13-2.55a2.9,2.9,0,0,0-3.23.62c-3.58,3.2-7.18,6.4-10.72,9.64-1.39,1.27-2.88,3-1.19,4.65,1.52,1.49,3.82,1.09,5.44-.39,3.18-2.9,6.22-6,9.33-8.95A3.92,3.92,0,0,0,339.77,585.32Z"/><path class="cls-3" d="M1129.11,149.81c9.24,5.93,12,14.81,11.55,25.19q-.95,23.38-1.78,46.77c-.8,23.56-2.2,47.1-3.39,70.63-.79,15.64-14.15,26.47-32.73,25.05-18-1.37-36.15-1.63-54.23-2.33a5.19,5.19,0,0,0-1.84.71,2,2,0,0,0-.81.23c-1.68-3.91-5.5-1.12-8-2.55-1.78-1.38-3.86-.77-5.78-.72a94.2,94.2,0,0,1-18.3-1.24,67.42,67.42,0,0,0-22.63-.05,4.42,4.42,0,0,1-4.19-.25,1.8,1.8,0,0,0-1.78-1.45c-9,.21-17.94-.66-26.88.46a4,4,0,0,1-3.32-.11c-2.16-2.48-4.51-1.73-6.88-.4a11.91,11.91,0,0,1-6.1-.25c-.55-2.43-2.53-1.68-4-1.72-4.31-.13-8.66.2-12.93-.27-12.22-1.35-24.42-.88-36.64-.27a3.28,3.28,0,0,1-3.35-.29c-.55-1.32-1.2-1.26-1.92-.14a39.34,39.34,0,0,1-11.1-.32c-.6-.51-1.2-1.47-1.81-1.48-6.64-.12-13.3-1-19.9.48a11.72,11.72,0,0,1-7.22-.3c-2.86-2.6-5.87-1.77-8.91-.4-5.38.38-10.75.55-16.08-.6-1.47-2.36-3.15-1.82-4.9-.35a5.85,5.85,0,0,1-4.06-.15c-6.83-1.51-13.82-1.16-20.72-1.91a3.36,3.36,0,0,0-3.17.92,24,24,0,0,1-9.06-.25c-.39-.5-.77-1.43-1.15-1.43-6.89,0-13.81-1.12-20.64.57a4.14,4.14,0,0,1-4.24-.33c-.47-1.78-1.93-1.47-3.21-1.49-8.17-.16-16.37.48-24.52-.93-1.64-.29-3.64-.67-5.12.88a69,69,0,0,1-14.15-.31c-5.91-.5-11.73-3.09-17.75-.71a2.08,2.08,0,0,1-2.16-.17c-.29-1.82-1.67-1.72-3-1.77-9.4-.31-18.84.82-28.19-1a2.59,2.59,0,0,0-2.67,1,9.67,9.67,0,0,1-5.09-.19c-1.06-1.08-2.42-.76-3.7-.81-5.52-.2-11.06.52-16.55-.9-1.44-.37-3.28-.6-4.58.87a7.1,7.1,0,0,1-5.13-.24c-.42-2.15-2.13-1.68-3.54-1.72-6.1-.15-12.16,0-18.27-.81-3.88-.52-8.19-1.3-12.07.83a5.85,5.85,0,0,1-4-.09c-4.53-1.77-9.12-1-13.72-.36a10.92,10.92,0,0,1-6.45-.23.42.42,0,0,0-.48,0,2.32,2.32,0,0,1-2.38-.16c-.54-1.23-1.17-1.26-1.88-.13a8.76,8.76,0,0,1-5.07-.2c-.48-2.41-2.41-1.79-3.93-1.79-7.52,0-15,0-22.56.06a3.2,3.2,0,0,1-3.27.16c-3-2-6-1.77-9.13-.24a6,6,0,0,1-4.08-.12c-3.52-1.54-7.1-1.08-10.7-.31a3.41,3.41,0,0,1-3.3-.23c-1.86-2.14-3.85-1.72-5.89-.3a8.76,8.76,0,0,1-5.12-.19,69.31,69.31,0,0,0-15-1.75c-3.55-.12-7.24-.93-10.72.67a7.37,7.37,0,0,1-5.19-.16c-.68-2.33-2.63-1.56-4.14-1.58-4.12-.06-8.25,0-12.37.06-1.26.79-2.4.39-3.51-.33-.71-.89-1.75-.69-2.7-.81l-1.24-.4c-.21-1.26-1.09-1.53-2.19-1.49l-.89-.44-1-.6c-1.95-.23-2.94-1.65-3.92-3.11l-.9-.92-.07-.08c-1.74-6.16-3.61-12.2-3.08-18.84,1.26-15.5,2.8-31,2.88-46.56.09-18.95,1.46-37.86,1.17-56.8-.09-6.28,2.78-12.1,2.55-18.39,0-1.2.86-2.48,1.47-3.64,5.3-10.06,13.73-14.56,25-14.59,15.95,0,31.85,1.77,47.82,1.08.33,0,.66,0,1,0,17.79,1,35.58,2,53.37,2.93,5.62.3,11.33.8,16.86.73,22.6-.29,45,2.38,67.55,3.14,20.87.71,41.69,1.07,62.57,2.72,23.82,1.88,47.88.3,71.75,3.26,9.84,1.22,19.88.46,29.84.88,17.89.75,35.8.69,53.69,2.15,15.35,1.25,30.81,1.68,46.19,1.85,21.58.23,43,2.91,64.53,3.06s42.72,2.43,64,2.84c28.88.55,57.67,2.46,86.52,3.27C1116.72,148,1123,148.28,1129.11,149.81ZM599.57,213.49c2.15.72,2.69,2.25,3.43,3.45,5.28,8.61,10.39,17.33,15.7,25.92,1.32,2.14,2.19,4.89,5.66,4.91a95.11,95.11,0,0,1,11.93.8c4.41.6,5.84-1.15,6-5.43.48-14.29,1.28-28.57,1.86-42.85.11-2.69.26-4.31,3.82-5,5.25-1,2.8-5.91,3.16-9.19s-2.33-3-4.51-3.09c-6.48-.21-13-.38-19.45-.65-2-.09-4.56-.61-4.41,2.35.15,3.16-2.58,7.89,1.81,9.19s4,3.61,3.82,6.62c-.2,3.31-.4,6.63-.72,9.94-.1,1,.53,2.62-1,3s-1.71-1.16-2.31-2.13c-5.45-8.89-11.05-17.7-16.35-26.69a6.64,6.64,0,0,0-6.06-3.51c-6.15-.28-12.28-.66-18.43-.92-1.73-.08-4-.64-4.09,2.2,0,3.4-2.92,8,1.27,9.84,3,1.37,3,2.9,3,5.18q-.51,16.2-1.1,32.41c-.06,1.48.12,3.26-1.75,3.71-2.06.5-4.46.19-4.2,3.52.18,2.31-.08,4.66,0,7,.09,1.5,1.43,1.64,2.62,1.69,7.31.33,14.63.59,21.94,1,4.1.23,4.18-2.65,4-5.31-.16-2.5,2.22-6.58-3.16-6.58-2.92,0-3.76-1.55-3.59-4.13C598.85,225.08,599.19,219.45,599.57,213.49ZM1019.81,259c8.35,7.94,18.39,9.06,29.16,6.68,13.87-3.07,19.75-19.36,10.51-29.46-3.75-4.09-8.79-6.35-13.87-8.49-4.88-2.06-10-3.39-14.59-6.3-2-1.31-2.44-2.93-2.31-5,.14-2.36,2-2.87,3.74-3.42,5-1.58,11.72,1.69,13.1,7.13.92,3.62,2.77,3.77,5.63,3.83,12.45.28,12.45.33,12.68-12.45.18-10.05.14-9.71-9.71-10.89-4.79-.58-7.32.39-7.36,6-9.18-9.23-19.42-10.86-30.67-6.52-12.39,4.77-15.76,21.7-6.27,30.93,3.26,3.16,7.21,5.14,11.36,6.89,5,2.13,10.6,2.9,15.29,5.82,3.51,2.19,3.24,4.7-.47,6.5-4.48,2.16-13.67-.37-15.23-5-1.45-4.28-4.08-4.51-7.55-4.43-2.66.07-5.32,0-8-.12-2.34-.11-3.19.89-3.24,3.22-.12,5.14-.49,10.28-.73,15.42-.07,1.66-.34,3.78,1.47,4.42,4.15,1.44,8.56.88,12.84.73C1018.56,264.35,1018,260.85,1019.81,259ZM509.47,212c-.1,19.07,9,30.7,27.11,33.39,18.28,2.71,33.21-3.64,38-22.62,2.84-11.22,2.56-22.44-3.83-32.24-9.15-14-32-18-46.32-8.71C513.61,188.87,509.34,199.35,509.47,212ZM722.6,251.64v.5c3.82,0,7.65-.2,11.45.08,2.49.18,3.34-.72,3.38-3a34.16,34.16,0,0,1,.36-5.46c.39-2.19-.44-2.93-2.52-3.27-1.57-.26-4.17.06-3.68-2.85.45-2.62,2-4,4.91-3.78,4.14.35,8.28.66,12.43.72,2.55,0,3.6,1.14,3.73,3.56.14,2.84-1.83,2.88-3.67,2.66-4.11-.51-4.79,1.74-4.55,5.07.23,3.18-1.54,7.23,4.29,7.39,10,.28,19.91.83,29.87,1.35,2.5.13,3.75-.72,3.59-3.37a39.58,39.58,0,0,1,.08-5c.21-2.66-.21-4.62-3.61-4.34-2.62.21-3-1.62-3.59-3.76-4.12-15.52-8.48-31-12.56-46.51-.76-2.88-2.26-3.47-4.89-3.74-8.78-.88-17.58-.92-26.38-1-1.85,0-4.73-1-5.21,1.48-.63,3.2-2.74,7.06,0,9.83,2.2,2.25,1.68,4.2,1,6.28-3.55,10.34-7.26,20.63-10.94,30.93-.5,1.4-1.11,3.38-2.64,3.35-7.06-.15-5.52,4.89-5.85,9-.26,3.21,1.21,4,4.09,3.92C715.28,251.53,718.94,251.64,722.6,251.64Zm217.69-25.43h-.24c0,4.16-.11,8.32,0,12.48.32,9.94,4.47,17.9,13.68,22,10.26,4.59,20.93,5.73,30.9-1,6.62-4.5,9.43-11.54,10.24-19.12.87-8.09.89-16.26,1.34-24.4.1-1.79-.2-4.69,1.41-5,6.73-1.18,3.62-6.29,4.33-9.8.41-2-.78-3.07-2.82-3.17q-11-.54-21.91-1.12c-1.74-.09-3.3.46-2.88,2.39.8,3.65-3.38,8.89,3.27,10.81.38.11.73,1.15.7,1.74-.39,9.45.8,19-1.57,28.32-1.3,5.1-5.08,7.81-9.29,7.27-4.5-.58-6.91-3.58-7.62-9-1.15-8.8.55-17.55.22-26.33,0-1,0-2.44,1-2.64,5.92-1.24,3.83-5.89,4.2-9.48.23-2.22-.65-3.31-3.08-3.38-7.31-.21-14.62-.64-21.93-.89-1.53-.05-4-.69-4,1.65,0,3.32-2.43,8.18.75,9.66,3.73,1.74,3.26,3.89,3.28,6.56C940.32,217.89,940.29,222.05,940.29,226.21Zm-96.2-24.57c0-2.74,0-4.9,0-7.06,0-1.47-.38-3-2-3-4.81.2-10.18-3.1-14.3,2.1-1.47,1.85-2.71.15-3.77-.63-7.11-5.19-14.73-4.86-22.12-1.34-13.92,6.62-20.18,21.55-19.22,35.4.64,9.19,3.79,17.7,11.55,23.41,12.54,9.22,30.12,9.2,43,.34,6.37-4.38,6.48-5.32,1.41-11.15-1.2-1.37-2.24-2.88-3.42-4.28-1.44-1.69-3-1.89-4.66-.24a26.89,26.89,0,0,1-4.19,3.51c-9,5.75-17.95,2-20.63-8.39-1.43-5.56-.59-11,.87-16.22,1.49-5.44,5.94-8.76,10.38-8.58,5.81.24,7.73,4.52,9.06,9.1.53,1.81.87,3.08,3,3.08,3.66,0,7.32.1,11,.2,2.06.06,3-.81,3.08-2.93C843.4,210.35,843.8,205.71,844.09,201.64ZM507.47,190.5h.22c0-1.66,0-3.32,0-5s.07-3.33.06-5c0-1.15.08-2.36-1.05-3.15-1.34-.94-12.58-.63-13.42.71-1.94,3.09-3.79,1.68-5.74.27a18.18,18.18,0,0,0-14.65-3C460.6,177.71,453,185.55,449.2,197c-5.12,15.32-1.62,30.14,8.41,38.37,12.06,9.9,30.63,10.45,43.48,1.28,7.34-5.24,7.34-5.24,1.32-12-.44-.5-1.09-.84-1.42-1.39-2.47-4.17-4.65-3.74-8.1-.53-8,7.41-19.08,5.33-22.34-4.39-2.52-7.51-2.33-15.36,2.33-22.49,2.09-3.18,4.86-5.11,8.64-4.82s7,2.84,7.56,6.26c1,6.39,4.91,6.79,9.83,6.45a25.91,25.91,0,0,1,4.49.09c2.91.31,4.33-.67,4.12-3.84S507.47,193.66,507.47,190.5ZM667.65,184v.2c-3.48-.23-7-.34-10.44-.73-3-.34-4.43.9-4.5,3.81-.12,5.82-.2,11.65-.28,17.47,0,1.38.09,3,1.86,3,3.47,0,7.17,1.9,10.3.26,2.89-1.51,1.58-5.14,1.65-7.83.09-3.48,2.11-3.44,4.64-3.49,3-.06,3.66,1.34,3.51,4q-1,16.43-1.67,32.86c-.11,2.76-.68,4.55-3.94,4.1-2.55-.36-3.69.78-3.53,3.39a14.27,14.27,0,0,1-.28,4c-.87,3.69.84,4.67,4.22,4.75,7.48.17,15,.66,22.43.93,8.17.29,8.2.17,8.41-8,.08-2.83-.92-4.65-3.91-4.5-3.28.16-3.88-1.51-3.76-4.3q.66-16.2,1.11-32.4c.08-2.86,1.46-3.65,4.09-3.68,4.38-.05,4.47,2.84,3.94,5.75-.93,5.08,1.27,7,6,6.9a17.57,17.57,0,0,1,3,.14c3.21.44,4.33-1.11,4.78-4.15.8-5.47.59-10.95.88-16.42.16-3.16-1.34-3.93-4.18-4C697.22,185.38,682.44,184.66,667.65,184Zm209.91,74.87c3.5,0,7,0,10.48,0,2.16,0,5.39.88,4.92-2.87-.42-3.34,3.23-8.54-3.42-9.55-2.65-.41-3.76-1.41-3.62-4.15.53-10.45.81-20.92,1.46-31.36.12-2-.5-5.14,3.89-4.71,3.86.37,4.06,2.19,4,5.19-.15,7,0,7,7,7.2.83,0,1.66,0,2.49.07,3,.29,4.24-.94,4.22-4,0-5.65.13-11.3.29-17,.07-2.43-.74-3.59-3.4-3.68q-27.39-.95-54.78-2.15c-3.24-.14-4.53,1.15-4.65,4.24-.21,5.14-.57,10.28-.82,15.42-.08,1.67-.27,3.77,1.59,4.35a18.54,18.54,0,0,0,11.24.23c2.62-.87,1.41-4.11,1.49-6.3.12-3,.38-5.25,4.31-5s4,2.54,3.84,5.46c-.6,10.28-1.19,20.56-1.6,30.84-.11,2.91-1,4.41-4.1,4s-4.23,1.12-4.08,4.06a36,36,0,0,1-.06,5c-.21,2.54.89,3.36,3.38,3.73C866.94,258.7,872.26,258.35,877.56,258.86Zm192.39-47c-.4,10.34,1.24,18.95,3,27.57.85,4.18,3.93,3.86,6.9,4s6.24.71,7.06-3.51c1.76-9.06,5.39-17.7,5.19-27.21-.2-9.79.1-9.8-9.74-11.11-.33,0-.65-.15-1-.2-11.22-1.42-11.22-1.42-11.43,10C1069.94,212.05,1070,212.71,1070,211.9Zm8.36,35.91c-6.27,0-11.1,4.22-11,9.61.06,5,5.5,9.88,11.13,9.93,6,0,11-4.42,11-9.84C1089.51,252.32,1084.33,247.8,1078.31,247.81Z"/><path class="cls-4" d="M327.77,209.69c1.24,7.46,1.71,15.16,6.76,21.41-.74,2.92.69,5.56,1.18,8.3,4.2,23.34,4.24,47,5,70.54s2.68,46.77,4.06,70.15c1.21,20.57,2.83,41.14,1.09,61.76-.66,7.84-1.6,15.76-7.61,21.59a158.05,158.05,0,0,1-34,25.67c-3.23,1.78-7.33,2.55-9.24,6.34a11.35,11.35,0,0,0-5.75,1.25A113.54,113.54,0,0,1,249,506.35c-3.67.15-7.41,2.42-11.12.16.82-1.72,3.06-.27,4.4-2.27-2.46.91-5.32-1.52-6.39,2.23l-3-.06c-1-3-6.83-5.21-10-3.68-1.11.54-.91,1.6-.87,2.58-1.44.09-3,.57-4.1-.83.12-1,3.6-2,.24-2.91-2.75-.74-5.16-2.2-7.83-3-19.67-5.84-37.37-15.51-53.56-27.93-6.27-4.8-12.07-10.28-13.79-18.6,7.14-.17,14.28-.23,21.41-.55a10.46,10.46,0,0,1,7,1.75,9.46,9.46,0,0,0,13.14-2.9c2.4-4.22.57-10.71-3.66-13a9.29,9.29,0,0,0-12.73,4.14c-.7,1.38-1,3-2.8,3-9.43.31-18.9,1.43-28.25-.91a15.63,15.63,0,0,0-.8-3.32c-4-8.24-6.84-16.94-10.12-25.47-2.59-6.76-5-13.56-7.18-20.46-2.05-6.49-3.23-6.83-8.61-4.1a.9.9,0,0,1-.7-.1c-1.57-.59-2.46-.16-2.46,1.62h0l-5.66-.06c-2.19-3-1.09-4.94,2.21-5.76,5-1.24,7.91-4.66,9.76-9.1,4.48-10.78,3.25-21.73.51-32.64-.75-3-2.08-5.91-.41-9l-.27-.07a1.46,1.46,0,0,0,1.39-1.16c2.5-2.49,3.86-5.63,5.21-8.81,6.12-14.46,7.76-29.85,8.81-45.24,1.48-21.94,0-43.86-2.22-65.71-.22-2.2-.86-4.54,2.77-4.25a81.65,81.65,0,0,0,40.16-7.07c10.76-4.72,22.93-5.18,34.72-5.86,15.31-.88,30.57,1.13,45.86.93,9-.12,18.1-.67,25.9-5.81a12.45,12.45,0,0,1,8.35-2.25A48.55,48.55,0,0,0,309.31,185c3.11-1.48,4.67-.87,6.51,1.84C320.67,194,324.26,201.83,327.77,209.69Zm-68.08,174a93.19,93.19,0,0,0-.85-10.44c-3-23-12.43-44.82-13.61-68.24-.09-1.93-1.24-4.1-3.71-3.94-2.75.19-3.44,2.4-3.19,4.72.62,5.78,1,11.62,2.2,17.29,3.53,16.87,8.82,33.37,11.36,50.46,1.77,11.87,2.63,23.71-8.49,32.31-1.73,1.34-2.63,2.8-.85,5s3.35,1.59,5.14.33C257.3,404.48,259.6,394.57,259.69,383.71ZM241.6,445c5.93.33,13.68-4.91,20.27-12.45,1.81-2.06,3.58-4.67,1-6.93s-4.64.14-6.14,2.15c-10.09,13.55-26,12.46-38.33,3.78a82,82,0,0,1-12.12-10.95c-1.65-1.72-3.46-2.17-5.28-.75s-1.34,3.34-.05,4.85C210.43,435.82,221.35,444.51,241.6,445Zm43.23-117.43c-.24,2.56.14,5.08,3.09,5.31,2.55.2,3.67-2,3.81-4.35.21-3.55,1.5-6.77,2.72-10,2.14-5.73,5.87-8.88,10.76-8.75,5.57.15,8.76,3.55,10.29,8.52.74,2.44,2.11,3.31,4.33,2.86,2.66-.54,2.6-2.52,2.13-4.68a16.2,16.2,0,0,0-10.9-12.51c-6.63-2.35-12.78-1.15-17.84,4C287.84,313.32,285.78,320.22,284.83,327.55ZM156.74,336.2c.18,2.17-.57,4.38,1.78,5.55a3.59,3.59,0,0,0,3.76-.47c1.69-1.11,1.28-2.9,1.45-4.51.9-8.5,9-12.25,16-7.51,4.8,3.22,7.27,8,9.22,13.2.88,2.35,2.44,3.74,4.89,2.92s2.28-2.89,1.63-5a34,34,0,0,0-8.91-14.7c-5.46-5.25-12.18-7-19.26-4.22C160.82,324,157.29,329.36,156.74,336.2Zm138.71-79.14a56,56,0,0,0-5.79.6c-1.7.35-3.32,1.5-3.06,3.34.28,2,1.47,3.69,4,3.52,1.49-.1,3-.07,4.47-.11,7.79-.19,15.11,1.27,21.37,6.28,2,1.61,4.26,3.55,6.33.7,1.83-2.53,0-4.5-2.15-6.21C313.31,259.21,304.58,257.8,295.45,257.06Zm-123.09,16c-10,2.1-19.92,5.93-27,14.89a5.91,5.91,0,0,0-1.49,3.62c0,1.6.29,3,2,3.64a2.89,2.89,0,0,0,3.57-1c6-9,15.13-12.47,25.13-14.51,1.93-.39,3.62-1.39,3.09-3.7S175.42,272.83,172.36,273.1Z"/><path class="cls-5" d="M327.77,209.69c-3.51-7.86-7.1-15.66-11.95-22.83-1.84-2.71-3.4-3.32-6.51-1.84a48.55,48.55,0,0,1-25.14,4.86,12.45,12.45,0,0,0-8.35,2.25c-7.8,5.14-16.94,5.69-25.9,5.81-15.29.2-30.55-1.81-45.86-.93-11.79.68-24,1.14-34.72,5.86a81.65,81.65,0,0,1-40.16,7.07c-3.63-.29-3,2.05-2.77,4.25,2.25,21.85,3.7,43.77,2.22,65.71-1,15.39-2.69,30.78-8.81,45.24-1.35,3.18-2.71,6.32-5.21,8.8a1.22,1.22,0,0,0-1.39,1.17l.27.07a6.2,6.2,0,0,1-3.79-3.52c-2.43-4.67-4.88-9.52-10.66-11.14-1.94-.54-2.86-2-3-4.12-1.29-16.5-3.26-33-3.8-49.51-.8-24.36.61-48.63,5.6-72.64a116.48,116.48,0,0,1,8.52-26.31c1.62-3.43,2.08-7.68,5.45-10.23a2.4,2.4,0,0,0,3.11.89c9.72-5.34,18.66-11.95,21.77-23,3.71-13.22,11.06-23.44,21.62-31.75,14-11,30.18-17.12,47.35-20.27,8.7-1.59,18.22-2.38,26.59,1.15,5.58,2.36,8.37,1.37,12.2-2.66,14.94-15.7,32.52-21,53.22-12.24a26.4,26.4,0,0,0,4.3,1l1.22,1.78c-.15.91.29,1.28,1.15,1.26,2.36,4.33,4.78,8.63,4.63,13.78.08.6.15,1.2.23,1.81A4.55,4.55,0,0,1,310,92.7c.29,2.36-1.73,5.24,1.56,6.94l2.18,0c-.51,5.16,1.84,6.61,6.88,6.44,9.35-.3,18.13,2.42,26.41,6.71a4.6,4.6,0,0,1,1.73,3.16c0,.59-.14,1.22.6,1.52,2.88,11.38.81,22.07-4.68,32.2-1.35,2.48-1.24,4.25.19,6.77C356.52,177.11,349.34,199.26,327.77,209.69Zm-52.92-87.47c.16-3.29-1.29-9.2-4.2-14.64-4.94-9.25-13.11-15.19-21.92-20.3a3.16,3.16,0,0,0-4.39,1.22c-1,1.89.11,3,1.56,4.12,3.15,2.42,6.34,4.8,9.27,7.48,7,6.38,12.42,13.52,12.81,23.66.48,12.52-5.27,22.48-12.94,31.31-8.36,9.64-18,17.86-30.69,21.77-2.41.75-6.31,1.7-4.88,5.55s4.72,1.8,7.25.94c13.62-4.63,24.65-13,33.87-23.85C269,149.6,274.8,138.57,274.85,122.22Zm36.83-4.91c0-3,.08-6,0-9-.08-2.49-1.38-4.18-4-4.13-2.85.06-2.87,2.32-2.77,4.36.6,13.17-.59,25.92-5.87,38.32-4.23,9.94-9.4,18.95-17.8,25.82-5.58,4.57-11.75,7.89-19.13,8.79-2.61.32-6.4,1.07-5.69,4.88.75,4,4.81,2.84,7.1,2.25,8.48-2.18,16.72-5.32,23.27-11.38C304.19,161.1,311,140.45,311.68,117.31Z"/><path class="cls-6" d="M1129.11,149.81c-6.15-1.53-12.39-1.82-18.71-2-28.85-.81-57.64-2.72-86.52-3.27-21.33-.41-42.63-2.68-64-2.84s-43-2.83-64.53-3.06c-15.38-.17-30.84-.6-46.19-1.85-17.89-1.46-35.8-1.4-53.69-2.15-10-.42-20,.34-29.84-.88-23.87-3-47.93-1.38-71.75-3.26-20.88-1.65-41.7-2-62.57-2.72-22.52-.76-45-3.43-67.55-3.14-5.53.07-11.24-.43-16.86-.73-17.79-.94-35.58-2-53.37-2.93-.33,0-.66,0-1,0-16,.69-31.87-1.11-47.82-1.08-11.29,0-19.72,4.53-25,14.59-.61,1.16-1.51,2.44-1.47,3.64.23,6.29-2.64,12.11-2.55,18.39.29,18.94-1.08,37.85-1.17,56.8-.08,15.52-1.62,31.06-2.88,46.56-.53,6.64,1.34,12.68,3.08,18.84L411.12,276c.33-.8,0-1.27-.76-1.54a2.63,2.63,0,0,0-1.46-2.36l-1.26-6.74,0-13.23q.27-7.65.53-15.31c1.48-2.1-.17-4-.45-5.94,1-.86.95-2.06,1-3.22.41-13.11,0-26.33,1.45-39.32,1.9-16.57.43-33.23,2.56-49.73,1.71-13.28,13.3-24,26.61-23.58,24.41.67,48.81,1.92,73.21,2.89,19.1.77,38.21,1.27,57.29,2.28,19.6,1,39.24,1.08,58.8,2.23,20.57,1.21,41.14,2,61.72,2.75,22.75.79,45.45,2.38,68.21,3.09q47.58,1.49,95.13,4c32.37,1.71,64.76,2.84,97.15,4.08,24.07.92,48.13,2.1,72.21,3,21.4.81,42.77,2.47,64.21,2.93,8.27.17,16.64.14,24.87,1C1118.18,144,1124.89,144,1129.11,149.81Z"/><path class="cls-7" d="M295,495.44c1.91-3.78,6-4.55,9.24-6.33a158.05,158.05,0,0,0,34-25.67c6-5.83,6.95-13.75,7.61-21.59,1.74-20.62.12-41.19-1.09-61.76-1.38-23.38-3.32-46.73-4.06-70.15s-.79-47.2-5-70.54c-.49-2.74-1.92-5.38-1.18-8.3h4.39a11,11,0,0,1,3.78,3.59c.66,2.9,1.46,5.78,1.95,8.71a347.34,347.34,0,0,1,4.18,36.41c1.11,18.65,2.8,37.27,3.8,55.93.74,13.91.35,27.89,1.32,41.77.48,7,.26,13.93.86,20.85a239.17,239.17,0,0,1-.08,45.17c-.94,9.21-3.81,17.87-9.71,24.93-9.81,11.75-22.91,19.42-36.12,26.66-3,1.63-4.31,3.17-4.13,6.4.47,8.77.36,17.63,1.28,26.3,1.46,13.77,6,26.71,15.11,37.66a7.51,7.51,0,0,0,7.51,3.12c6-.58,11.46,1.9,16.32,5.49l-.55.6c-2.72.06-5.16-1.14-7.39-2.32-4.74-2.53-8.91-2.62-12.78,1.41a75.42,75.42,0,0,1-23.14-30.73A102.74,102.74,0,0,1,296,511.8C296,506.34,296.47,500.82,295,495.44Z"/><path class="cls-8" d="M1050.3,323.45c6.4,9,10.07,19.3,13.63,29.55,7.37,21.24,10,43.24,10,65.68-.1,109.16.19,218.31-.15,327.46-.14,46.05-15.37,86.71-46.21,121.38-22.63,25.44-50.31,42.86-82.62,52.92a158,158,0,0,1-47,7.55H483.48c-1,0-2-.15-3-.23l.27-2.82q204.21,0,408.42.14c20.79,0,40.93-2.56,60.75-8.94a154.6,154.6,0,0,0,39.92-19.23c17.2-11.73,33.19-24.92,45.29-42.32,9-12.91,17.6-25.85,23-40.8,2.67-7.43,5-14.94,7.29-22.46,2-6.62,2.81-13.45,4.24-20.1,1.82-8.41,1.3-17.39,1.31-26.12q.09-160.24,0-320.48c0-15,.16-30-2.79-44.91a221.33,221.33,0,0,0-9.36-33.72c-2.38-6.48-6.3-12.29-8-19l-1-3.18Z"/><path class="cls-4" d="M87.92,817.93q.1,33.72.2,67.44c0,1.63-.16,3.27-.26,4.89-10.22-6.72-18.11-15.94-26.33-24.75-9-9.59-15.89-20.69-22.4-32a127.82,127.82,0,0,1-12-27.11,37.37,37.37,0,0,0-2.7-6.28c19.61,8.83,40.31,9,61.19,7.88C86.67,811.24,84.73,815.16,87.92,817.93Z"/><path class="cls-7" d="M480.78,925l-.27,2.82-7.64.17a25.39,25.39,0,0,1-.52-3.43c-.62-39.93-2.92-79.81-3-119.75,0-2.92.69-6-.81-8.78,3.16-4.19,7.07-8.13,4.93-14.17a10.91,10.91,0,0,0-.08-6.87c.43-19.8-.82-39.55-1.42-59.33-.31-10.13-1.47-20.28-1.11-30.39.68-19-7.45-34-20-47.14-14.46-15.17-31.78-26.43-49.9-36.63-17.64-9.93-36.16-18-54.8-25.73a13.09,13.09,0,0,1-1.67-1c.18-.2.37-.4.54-.6,2.27.48,4.73.54,6.76,1.51,11.26,5.38,22.89,9.9,34.1,15.45,25,12.37,48.6,26.7,69.22,45.58,15.07,13.8,25,30.51,25.39,51.44.45,22.72.12,45.44,2,68.14.83,10.25.13,20.61.22,30.92,0,3.7.21,7.25-3.24,9.9a5.21,5.21,0,0,0-1.7,5c2.33,13.49,1,27.16,1.52,40.71.91,25,2.1,50.12,1.42,75.21C480.57,920.3,480.73,922.62,480.78,925Z"/><path class="cls-9" d="M21.4,651.19c-.08,3.63-.87,6.83-4.95,8-.08-2.66-.23-5.31-.23-8,0-80.49-.18-161,.05-241.48.13-45.51,16.28-85.08,46.08-119.25a16.15,16.15,0,0,1,2.31-1.85l.65.78a2,2,0,0,0,1.68,2.3l0,.06c.33,4.61-3.32,6.93-5.72,10a186.83,186.83,0,0,0-28.83,51.33C26.11,370.3,22.09,387.91,22,406.2q-.28,116.58,0,233.14C22.06,643.34,20.43,647.19,21.4,651.19Z"/><path class="cls-5" d="M65.31,289.41l-.65-.78c-1.83-7.9-6-14.91-8.6-22.52-1.64-4.8-4.41-9.2-5.24-14.3-.87-2.75.3-5.53-.06-8.27-1.41-10.61-1.06-21,3.32-31,4.51-10.26,11.84-17.27,23.16-19.49.46,3.6-1.71,6.65-2,10.16-1.24,13.73-1.11,27.48-.89,41.23A248.68,248.68,0,0,0,77.14,280c1.53,9.61,1.71,19.39,3.91,28.93.43,1.86,1.93,5.25-2.19,5.92-2-.41-2.08-2.25-2.75-3.69-3-6.46-6-12.91-9.08-19.36l0-.06C67.27,290.33,66.47,289.74,65.31,289.41Z"/><path class="cls-10" d="M78.86,314.82c4.12-.67,2.62-4.06,2.19-5.92-2.2-9.54-2.38-19.32-3.91-28.93a248.68,248.68,0,0,1-2.82-35.53c-.22-13.75-.35-27.5.89-41.23.32-3.51,2.49-6.56,2-10.16,1.29-2,1.13-4.16,1-6.36,3.32-9.3,6.08-18.82,11.36-27.31,9.66-15.56,23.77-24.83,41.23-29.47-.71,2.05-.7,4.39-2.51,6-3.32.61-6.05,2.57-8.92,4.1-19.82,10.55-29.12,28.59-34.27,49.31-3.9,15.7-4.38,31.77-4.25,47.88.13,15.92.71,31.78,2.91,47.59,1.59,11.45,2.52,23,5,34.3.57,2.54,0,4.22-2.89,5.27a13.11,13.11,0,0,0-7.3,7.17c-5.26,11.71-4.87,23.5-1.22,35.7,2,6.58,6,11.57,9.65,16.95-4.75.11-6.67-4-9-6.76-10.28-12.21-11.87-26.66-9-41.68,1.27-6.71,4.09-12.93,11.79-15.28,1.85-.57,2.23-2.74-.5-3.63l-1.38-.87Z"/><path class="cls-7" d="M128.28,135.88c1.8-1.58,1.79-3.92,2.5-6a7.16,7.16,0,0,0,2.52-3.55c3.23-13.7,12.12-23.28,23.16-31.13a101.77,101.77,0,0,1,44-18.25l24-.09c.5,0,1.12-.16,1.47.07,7.51,5,11.88.56,17-4.65,10.58-10.85,23.93-15.06,38.95-13.38,8.37.94,15.48,4.44,20.13,11.88a26.4,26.4,0,0,1-4.3-1C277,61.06,259.37,66.34,244.43,82c-3.83,4-6.62,5-12.2,2.66-8.37-3.53-17.89-2.74-26.59-1.15-17.17,3.15-33.38,9.28-47.35,20.27-10.56,8.31-17.91,18.53-21.62,31.75-3.11,11.08-12,17.69-21.77,23a2.4,2.4,0,0,1-3.11-.88,23.72,23.72,0,0,1,7.34-8.45C123.74,146,127.88,142.15,128.28,135.88Z"/><path class="cls-11" d="M468.51,796c1.5,2.81.81,5.86.81,8.78.11,39.94,2.41,79.82,3,119.75a25.39,25.39,0,0,0,.52,3.43q-35.25,0-70.5,0c-1.88,0-4,.79-5.57-1.1l.67-1c22.74.07,45.5.07,68.24.25,3.59,0,4.08-1.64,4-4.57-.6-19.68.54-39.35-1.7-59.08-1.75-15.41-1-31.11-1.29-46.68-.12-6.14-.09-12.29-.12-18.43A2.32,2.32,0,0,1,468.51,796Z"/><path class="cls-7" d="M78.19,186.69c.18,2.2.34,4.39-1,6.36-11.32,2.22-18.65,9.23-23.16,19.49-4.38,10-4.73,20.39-3.32,31,.36,2.74-.81,5.52.06,8.27-8.75-16.2-6.74-41.61,4.67-55.45C61.29,189.33,68.68,185.36,78.19,186.69Z"/><path class="cls-12" d="M20.09,781.19c3.8-1,6.65,1.32,9.75,2.8,10.08,4.81,20.83,6.22,31.84,6.21,5.16,0,10.31-.07,15.47-.09,1.78,0,3.55.35,3.56,2.53a3.14,3.14,0,0,1-3.2,3.23c-10.11,0-20.22.83-30.33-.61-9.28-1.32-17.68-5.12-26.32-8.31C19.61,785.16,20.05,783.15,20.09,781.19Z"/><path class="cls-9" d="M342.7,234.7a11,11,0,0,0-3.78-3.59l68.83-.19c.28,2,1.93,3.84.45,5.94-1-2.78-3.4-2.13-5.46-2.13Q372.73,234.69,342.7,234.7Z"/><path class="cls-7" d="M347,112.83c-8.28-4.29-17.06-7-26.41-6.71-5,.17-7.39-1.28-6.88-6.44C324.94,97.36,343.54,102.35,347,112.83Z"/><path class="cls-8" d="M224.43,76.89l-24,.09C208.44,75.12,216.43,74.64,224.43,76.89Z"/><path class="cls-7" d="M311.51,99.64c-3.29-1.7-1.27-4.58-1.56-6.94C310.76,95,309.71,97.62,311.51,99.64Z"/><path class="cls-8" d="M1047.38,318.41c1.5,1.37,2.93,2.79,2.92,5l-.42.34a9.13,9.13,0,0,1-3-5Z"/><path class="cls-7" d="M309.18,89.44c-.08-.61-.15-1.21-.23-1.81C309.45,88.19,309.73,88.76,309.18,89.44Z"/><path class="cls-7" d="M349.31,117.51c-.74-.3-.65-.93-.6-1.52C349.62,116.21,349.42,116.88,349.31,117.51Z"/><path class="cls-8" d="M1045.88,316.06a2,2,0,0,1,.81-.23l.69,2.58-.5.38C1046.54,317.88,1046.21,317,1045.88,316.06Z"/><path class="cls-7" d="M304.32,73.85c-.86,0-1.3-.35-1.15-1.26C303.93,72.67,304.41,73,304.32,73.85Z"/><polygon class="cls-4" points="89.06 892.38 89.23 892.11 89.09 892.41 89.06 892.38"/><path class="cls-4" d="M23.26,797.79l0,0Z"/><path class="cls-4" d="M91.34,893.86l-.09,0Z"/><path class="cls-13" d="M78.86,314.82l0,1.11c-12.91-.07-23,9.65-23.79,23.11a70,70,0,0,0,7.23,36.19c6.49,12.92,16.26,21.66,31.9,21.18A45.22,45.22,0,0,1,95.88,401a136.6,136.6,0,0,0,9.57,27c6,12.24,15.59,19.7,28.78,22.7,3.54,8.07,7.6,15.62,14.78,21.32a182.23,182.23,0,0,0,37.62,23c2.08.95,3.51,2.11,3.17,4.35-1,6.61-.37,13.27-.75,19.89-.47,8.33-1.83,16.55-5,24.25C179,555.63,171,565.71,160.85,574.13c-4.1-4.33-8.28-4-13.83-2-29.29,10.94-57.55,24-83.74,41.08-14.71,9.61-28.45,20.6-38.73,35.25-.77,1.1-1.21,2.86-3.15,2.69-1-4,.66-7.84.65-11.84q-.19-116.57,0-233.14c.05-18.29,4.07-35.9,10.44-53.13a186.83,186.83,0,0,1,28.83-51.33c2.4-3,6-5.36,5.72-10,3,6.45,6.08,12.9,9.08,19.36C76.78,312.57,76.83,314.41,78.86,314.82Z"/><path class="cls-4" d="M466.59,797.29c0,6.14,0,12.29.12,18.43.3,15.57-.46,31.27,1.29,46.68,2.24,19.73,1.1,39.4,1.7,59.08.09,2.93-.4,4.6-4,4.57-22.74-.18-45.5-.18-68.24-.25-1.39-5.1.52-10.45-1.19-15.51.1-8.27.88-16.61.12-24.81-.77-8.39,3.24-15.86,2.8-24.24-.84-15.72-.39-31.51-.44-47.27,0-2-.34-4,.66-5.86,17.08.65,34.12.94,50.78-4C455.92,802.41,461,799.29,466.59,797.29Z"/><path class="cls-4" d="M301.13,543.05a75.39,75.39,0,0,0,23.14,30.74c-3.69,6.4-9.92,10-15.81,13.83-16,10.34-34,14.61-52.72,16.12a156,156,0,0,1-47.61-3c-15.65-3.57-30.18-10-42.47-20.71-.33-.29-.41-.86-.61-1.3a11.53,11.53,0,0,0,3.15-1.3,67.93,67.93,0,0,0,20.71-30.12,4.44,4.44,0,0,1,1.48.14c20.1,9.39,41.45,11.25,63.14,9.71,9-.64,17.72-3.38,26.45-6C287.31,549,293.66,544.65,301.13,543.05Z"/><path class="cls-12" d="M243.3,626.29c-32,0-60.1-8.19-85.36-25.25-5-3.37-9.84-7.33-13.45-12.44-1.32-1.86-2-3.67-.27-5.33,2-1.9,3.35.25,4.5,1.45,21.28,22.17,48.35,31.16,78,34.8a143.22,143.22,0,0,0,43.08-1.61c14.32-2.59,28.05-7.69,41.2-14.1.75-.37,1.46-.81,2.23-1.12,2.07-.84,4.61-2.81,6,.25,1.27,2.76-1.29,3.81-3.46,5-16.7,8.89-34.63,14.05-53.17,17C255.78,626,248.78,627,243.3,626.29Z"/><path class="cls-12" d="M399.42,808.11c-1,1.87-.66,3.9-.66,5.86.05,15.76-.4,31.55.44,47.27.44,8.38-3.57,15.85-2.8,24.24.76,8.2,0,16.54-.12,24.81-2.35,0-1.42-1.89-1.39-2.9.75-21.44-1.44-42.82-1.3-64.25.21-32.09-1.49-64.17-.67-96.26.33-13.25.42-26.54,1.75-39.76.24-2.39.9-4.61,3.53-4.57,2.84,0,2.4,2.63,2.42,4.58,0,1.33-.09,2.67-.07,4,0,1.88-.67,4.5,2.9,2.47,1.36-.77,2.5.38,3.36,1.46,1,1.23.19,2.12-.6,3-6.47,7.41-7.23,16.65-7.41,25.73-.38,18.8-.15,37.6-.08,56.4C398.72,802.86,399.17,805.48,399.42,808.11Z"/><path class="cls-11" d="M188.91,547.36a67.93,67.93,0,0,1-20.71,30.12,11.53,11.53,0,0,1-3.15,1.3.66.66,0,0,1-.66-.52s0-.34,0-.34l-.33,0-1.57-1.15c.18-.84-.15-1.16-1-.93a1.41,1.41,0,0,1-.65-1.73C171,565.71,179,555.63,184,543.47c3.2-7.7,4.56-15.92,5-24.25.38-6.62-.25-13.28.75-19.89.34-2.24-1.09-3.4-3.17-4.35A182.23,182.23,0,0,1,149,472c-7.18-5.7-11.24-13.25-14.78-21.32,3-.37,5.87.45,8.7,1.37,1.72,8.32,7.52,13.8,13.79,18.6,16.19,12.42,33.89,22.09,53.56,27.93,2.67.8,5.08,2.26,7.83,3,3.36.89-.12,1.91-.24,2.91l-1.91-.17c-.49-2-1.84-1.9-3.37-1.42-5.21-.23-10.09-1.8-14.89-3.67-3.52-1.37-5.85-1.55-6.17,3.56-.2,3.26-.73,6.55-.72,9.86,0,8.45-.53,16.8-2.77,25.05C187.2,540.77,185.4,544.45,188.91,547.36Z"/><path class="cls-12" d="M87.92,817.93c-3.19-2.77-1.25-6.69-2.25-9.95-.45-13.57-.74-27.16-1.41-40.73-.41-8.26-1.86-16.49-2-24.75-.19-10-2.2-19.73-3.76-29.54-.34-2.1-1.43-4.7,1.57-5.37,2.67-.59,3.73,1.8,4.11,4,1.32,7.66,3.13,15.3,3.6,23,1.16,18.86,3.33,37.65,3.46,56.59,0,6.93.56,13.91.58,20.87C91.82,814.74,91.66,817.63,87.92,817.93Z"/><path class="cls-12" d="M473.36,774.94a10.91,10.91,0,0,1,.08,6.87c-7.63,3.12-14.56,7.74-22.54,10.13-13.87,4.15-28,4.65-42.34,4-2-.1-3.64-1.38-3.47-3.49.2-2.49,2.44-2.36,4.26-2.31,12,.34,23.9.14,35.59-2.91,6.71-1.76,13.25-4,19.11-7.8A35.05,35.05,0,0,1,473.36,774.94Z"/><path class="cls-12" d="M339.76,585.32a3.88,3.88,0,0,1-1.49,3c-3.11,3-6.15,6-9.33,8.95-1.62,1.48-3.92,1.88-5.44.39-1.69-1.64-.2-3.38,1.19-4.65,3.54-3.24,7.14-6.44,10.72-9.64a2.9,2.9,0,0,1,3.23-.62C339.77,583.25,339.7,584.33,339.76,585.32Z"/><path class="cls-4" d="M161.5,575.86c.84-.23,1.17.09,1,.93C161.54,577.14,161.22,576.82,161.5,575.86Z"/><path class="cls-4" d="M164.06,577.94l.33,0s0,.34,0,.34h-.31Z"/><path class="cls-7" d="M1045.88,316.06c.33.91.66,1.82,1,2.73a9.13,9.13,0,0,0,3,5l1,3.17c-22.7-.49-45.35-2.47-68-3-23-.57-46-2.22-69-3.06-19.39-.71-38.8-.85-58.17-2.18-12.73-.87-25.49-1.4-38.22-1.75-23.38-.63-46.7-2-70.05-3.07-18-.79-36.18-.41-54.16-2.27-13.57-1.41-27.17-1-40.74-1.59-21.86-.91-43.7-2-65.56-3.06-18.2-.9-36.46-.9-54.68-2.17-13.88-1-27.82-1.54-41.71-1.79-17.76-.31-35.45-1.52-53.17-2.2-14.92-.56-25.73-12.66-26.17-24.75l3.54,2.65.07.08c0,.57.29.92.9.92,1,1.46,2,2.88,3.92,3.11l1,.6.9.44c.27,1.17.92,1.77,2.18,1.49l1.24.4c.66,1.06,1.64,1.06,2.7.81,1.11.72,2.25,1.12,3.51.33,5.26,3.14,11,1.33,16.51,1.52a7.37,7.37,0,0,0,5.19.16c8.52,1.61,17.14,1.09,25.74,1.08a8.76,8.76,0,0,0,5.12.19,7.37,7.37,0,0,0,5.89.3,3.41,3.41,0,0,0,3.3.23,34.92,34.92,0,0,0,10.7.31,6,6,0,0,0,4.08.12,13.57,13.57,0,0,0,9.13.24,3.2,3.2,0,0,0,3.27-.16c.54,1.27,1.63,1.48,2.84,1.5l23.65.23a8.76,8.76,0,0,0,5.07.2,1.2,1.2,0,0,0,1.88.13,2.32,2.32,0,0,0,2.38.16l.22.23.26-.19a10.92,10.92,0,0,0,6.45.23,61.13,61.13,0,0,0,13.72.36,5.85,5.85,0,0,0,4,.09,202,202,0,0,0,33.88,1.7,7.1,7.1,0,0,0,5.13.24c8.23,1.49,16.54.88,24.83.84a9.67,9.67,0,0,0,5.09.19,215.59,215.59,0,0,0,33.88,1.76,2.08,2.08,0,0,0,2.16.17c5.86,1.51,11.82.72,17.75.71a69,69,0,0,0,14.15.31c10.9,1.54,21.9,1.07,32.85,1.54a4.13,4.13,0,0,0,4.23.33c7.22,1.57,14.52.9,21.8.86a24,24,0,0,0,9.06.25c7.92,1.45,15.91,1.06,23.89,1a5.85,5.85,0,0,0,4.06.15,5.29,5.29,0,0,0,4.9.35c5.33,1.15,10.7,1,16.08.6,2.92,1.14,5.91.92,8.91.4a11.72,11.72,0,0,0,7.22.3c7.17,1.8,14.46,1,21.71,1a39.34,39.34,0,0,0,11.1.32,1.3,1.3,0,0,0,1.92.14,3.31,3.31,0,0,0,3.35.3c17.86.92,35.69,2.7,53.61,2.25a11.91,11.91,0,0,0,6.1.25c2.23,1.15,4.56.71,6.88.4a4,4,0,0,0,3.32.11c9.55.41,19.08,1.35,28.66,1a4.42,4.42,0,0,0,4.19.25c.4.26.79.75,1.18.75,15.18.19,30.32,1.95,45.53,1.26C1040.38,314.94,1044.2,312.15,1045.88,316.06Z"/><path class="cls-14" d="M599.57,213.49c-.38,6-.72,11.59-1.09,17.22-.17,2.58.67,4.12,3.59,4.13,5.38,0,3,4.08,3.16,6.58.16,2.66.08,5.54-4,5.31-7.31-.39-14.63-.65-21.94-1-1.19-.05-2.53-.19-2.62-1.69-.13-2.32.13-4.67,0-7-.26-3.33,2.14-3,4.2-3.52,1.87-.45,1.69-2.23,1.75-3.71q.57-16.2,1.1-32.41c.08-2.28.09-3.81-3-5.18-4.19-1.88-1.31-6.44-1.27-9.84,0-2.84,2.36-2.28,4.09-2.2,6.15.26,12.28.64,18.43.92a6.64,6.64,0,0,1,6.06,3.51c5.3,9,10.9,17.8,16.35,26.69.6,1,.88,2.47,2.31,2.13s.89-1.93,1-3c.32-3.31.52-6.63.72-9.94.18-3,.47-5.35-3.82-6.62s-1.66-6-1.81-9.19c-.15-3,2.38-2.44,4.41-2.35,6.48.27,13,.44,19.45.65,2.18.07,4.87-.12,4.51,3.09s2.09,8.23-3.16,9.19c-3.56.66-3.71,2.28-3.82,5-.58,14.28-1.38,28.56-1.86,42.85-.14,4.28-1.57,6-6,5.43a95.11,95.11,0,0,0-11.93-.8c-3.47,0-4.34-2.77-5.66-4.91-5.31-8.59-10.42-17.31-15.7-25.92C602.26,215.74,601.72,214.21,599.57,213.49Z"/><path class="cls-14" d="M1019.81,259c-1.84,1.87-1.25,5.37-4.2,5.47-4.28.15-8.69.71-12.84-.73-1.81-.64-1.54-2.76-1.47-4.42.24-5.14.61-10.28.73-15.42.05-2.33.9-3.33,3.24-3.22,2.66.13,5.32.19,8,.12,3.47-.08,6.1.15,7.55,4.43,1.56,4.65,10.75,7.18,15.23,5,3.71-1.8,4-4.31.47-6.5-4.69-2.92-10.26-3.69-15.29-5.82-4.15-1.75-8.1-3.73-11.36-6.89-9.49-9.23-6.12-26.16,6.27-30.93,11.25-4.34,21.49-2.71,30.67,6.52,0-5.64,2.57-6.61,7.36-6,9.85,1.18,9.89.84,9.71,10.89-.23,12.78-.23,12.73-12.68,12.45-2.86-.06-4.71-.21-5.63-3.83-1.38-5.44-8.15-8.71-13.1-7.13-1.71.55-3.6,1.06-3.74,3.42-.13,2.1.26,3.72,2.31,5,4.54,2.91,9.71,4.24,14.59,6.3,5.08,2.14,10.12,4.4,13.87,8.49,9.24,10.1,3.36,26.39-10.51,29.46C1038.2,268,1028.16,266.92,1019.81,259Z"/><path class="cls-14" d="M509.47,212c-.13-12.61,4.14-23.09,15-30.18,14.27-9.31,37.17-5.33,46.32,8.71,6.39,9.8,6.67,21,3.83,32.24-4.81,19-19.74,25.33-38,22.62C518.46,242.66,509.37,231,509.47,212Zm43-1.92a28.27,28.27,0,0,0-1.18-10.68c-1.36-3.92-3.64-7.27-8.11-7.91-3.48-.51-5.86,2.1-7.08,4.65-4.82,10.07-5.5,20.47-.55,30.76a6.87,6.87,0,0,0,6.82,4.15c3.41-.16,5.42-2,6.89-4.88A32.3,32.3,0,0,0,552.52,210Z"/><path class="cls-14" d="M722.6,251.64c-3.66,0-7.32-.11-11,0-2.88.12-4.35-.71-4.09-3.92.33-4.11-1.21-9.15,5.85-9,1.53,0,2.14-1.95,2.64-3.35,3.68-10.3,7.39-20.59,10.94-30.93.71-2.08,1.23-4-1-6.28-2.71-2.77-.6-6.63,0-9.83.48-2.49,3.36-1.49,5.21-1.48,8.8.09,17.6.13,26.38,1,2.63.27,4.13.86,4.89,3.74,4.08,15.53,8.44,31,12.56,46.51.56,2.14,1,4,3.59,3.76,3.4-.28,3.82,1.68,3.61,4.34a39.58,39.58,0,0,0-.08,5c.16,2.65-1.09,3.5-3.59,3.37-10-.52-19.91-1.07-29.87-1.35-5.83-.16-4.06-4.21-4.29-7.39-.24-3.33.44-5.58,4.55-5.07,1.84.22,3.81.18,3.67-2.66-.13-2.42-1.18-3.51-3.73-3.56-4.15-.06-8.29-.37-12.43-.72-2.89-.24-4.46,1.16-4.91,3.78-.49,2.91,2.11,2.59,3.68,2.85,2.08.34,2.91,1.08,2.52,3.27a34.16,34.16,0,0,0-.36,5.46c0,2.28-.89,3.18-3.38,3-3.8-.28-7.63-.08-11.45-.08Zm20.67-47.86L737.8,219.1c-.52,1.47-.91,3.24.83,3.92a14.09,14.09,0,0,0,8.8.24c1.5-.4,1.13-2.28.89-3.54C747.35,214.54,746.5,209.3,743.27,203.78Z"/><path class="cls-14" d="M940.29,226.21c0-4.16,0-8.32,0-12.47,0-2.67.45-4.82-3.28-6.56-3.18-1.48-.75-6.34-.75-9.66,0-2.34,2.47-1.7,4-1.65,7.31.25,14.62.68,21.93.89,2.43.07,3.31,1.16,3.08,3.38-.37,3.59,1.72,8.24-4.2,9.48-1,.2-1,1.63-1,2.64.33,8.78-1.37,17.53-.22,26.33.71,5.44,3.12,8.44,7.62,9,4.21.54,8-2.17,9.29-7.27,2.37-9.31,1.18-18.87,1.57-28.32,0-.59-.32-1.63-.7-1.74-6.65-1.92-2.47-7.16-3.27-10.81-.42-1.93,1.14-2.48,2.88-2.39q10.95.57,21.91,1.12c2,.1,3.23,1.13,2.82,3.17-.71,3.51,2.4,8.62-4.33,9.8-1.61.28-1.31,3.18-1.41,5-.45,8.14-.47,16.31-1.34,24.4-.81,7.58-3.62,14.62-10.24,19.12-10,6.77-20.64,5.63-30.9,1-9.21-4.11-13.36-12.07-13.68-22-.13-4.16,0-8.32,0-12.48Z"/><path class="cls-14" d="M844.09,201.64c-.29,4.07-.69,8.71-.9,13.35-.1,2.12-1,3-3.08,2.93-3.66-.1-7.32-.2-11-.2-2.17,0-2.51-1.27-3-3.08-1.33-4.58-3.25-8.86-9.06-9.1-4.44-.18-8.89,3.14-10.38,8.58-1.46,5.27-2.3,10.66-.87,16.22,2.68,10.39,11.6,14.14,20.63,8.39a26.89,26.89,0,0,0,4.19-3.51c1.71-1.65,3.22-1.45,4.66.24,1.18,1.4,2.22,2.91,3.42,4.28,5.07,5.83,5,6.77-1.41,11.15-12.86,8.86-30.44,8.88-43-.34-7.76-5.71-10.91-14.22-11.55-23.41-1-13.85,5.3-28.78,19.22-35.4,7.39-3.52,15-3.85,22.12,1.34,1.06.78,2.3,2.48,3.77.63,4.12-5.2,9.49-1.9,14.3-2.1,1.57-.07,2,1.5,2,3C844.07,196.74,844.09,198.9,844.09,201.64Z"/><path class="cls-14" d="M507.47,190.5c0,3.16-.16,6.33,0,9.47s-1.21,4.15-4.12,3.84a25.91,25.91,0,0,0-4.49-.09c-4.92.34-8.84-.06-9.83-6.45-.53-3.42-3.71-6-7.56-6.26s-6.55,1.64-8.64,4.82c-4.66,7.13-4.85,15-2.33,22.49,3.26,9.72,14.37,11.8,22.34,4.39,3.45-3.21,5.63-3.64,8.1.53.33.55,1,.89,1.42,1.39,6,6.74,6,6.74-1.32,12-12.85,9.17-31.42,8.62-43.48-1.28-10-8.23-13.53-23.05-8.41-38.37,3.81-11.41,11.4-19.25,23.7-21.58a18.18,18.18,0,0,1,14.65,3c1.95,1.41,3.8,2.82,5.74-.27.84-1.34,12.08-1.65,13.42-.71,1.13.79,1,2,1.05,3.15,0,1.66-.05,3.32-.06,5s0,3.32,0,5Z"/><path class="cls-14" d="M667.65,184c14.79.67,29.57,1.39,44.36,2,2.84.11,4.34.88,4.18,4-.29,5.47-.08,10.95-.88,16.42-.45,3-1.57,4.59-4.78,4.15a17.57,17.57,0,0,0-3-.14c-4.78.11-7-1.82-6-6.9.53-2.91.44-5.8-3.94-5.75-2.63,0-4,.82-4.09,3.68q-.45,16.2-1.11,32.4c-.12,2.79.48,4.46,3.76,4.3,3-.15,4,1.67,3.91,4.5-.21,8.19-.24,8.31-8.41,8-7.48-.27-15-.76-22.43-.93-3.38-.08-5.09-1.06-4.22-4.75a14.27,14.27,0,0,0,.28-4c-.16-2.61,1-3.75,3.53-3.39,3.26.45,3.83-1.34,3.94-4.1q.69-16.44,1.67-32.86c.15-2.67-.54-4.07-3.51-4-2.53.05-4.55,0-4.64,3.49-.07,2.69,1.24,6.32-1.65,7.83-3.13,1.64-6.83-.25-10.3-.26-1.77,0-1.88-1.6-1.86-3,.08-5.82.16-11.65.28-17.47.07-2.91,1.49-4.15,4.5-3.81,3.47.39,7,.5,10.44.73Z"/><path class="cls-14" d="M877.56,258.86c-5.3-.51-10.62-.16-15.92-.95-2.49-.37-3.59-1.19-3.38-3.73a36,36,0,0,0,.06-5c-.15-2.94,1-4.44,4.08-4.06s4-1.12,4.1-4c.41-10.28,1-20.56,1.6-30.84.17-2.92,0-5.25-3.84-5.46s-4.19,2.05-4.31,5c-.08,2.19,1.13,5.43-1.49,6.3a18.54,18.54,0,0,1-11.24-.23c-1.86-.58-1.67-2.68-1.59-4.35.25-5.14.61-10.28.82-15.42.12-3.09,1.41-4.38,4.65-4.24q27.39,1.22,54.78,2.15c2.66.09,3.47,1.25,3.4,3.68-.16,5.65-.32,11.3-.29,17,0,3-1.27,4.27-4.22,4-.83-.08-1.66,0-2.49-.07-7.07-.22-7.17-.22-7-7.2.07-3-.13-4.82-4-5.19-4.39-.43-3.77,2.67-3.89,4.71-.65,10.44-.93,20.91-1.46,31.36-.14,2.74,1,3.74,3.62,4.15,6.65,1,3,6.21,3.42,9.55.47,3.75-2.76,2.83-4.92,2.87C884.55,258.9,881.06,258.86,877.56,258.86Z"/><path class="cls-14" d="M1070,211.9c0,.81,0,.15,0-.51.21-11.4.21-11.4,11.43-10,.33.05.65.16,1,.2,9.84,1.31,9.54,1.32,9.74,11.11.2,9.51-3.43,18.15-5.19,27.21-.82,4.22-4.08,3.63-7.06,3.51s-6,.21-6.9-4C1071.19,230.85,1069.55,222.24,1070,211.9Z"/><path class="cls-14" d="M1078.31,247.81c6,0,11.2,4.51,11.14,9.7-.07,5.42-5.08,9.89-11,9.84-5.63-.05-11.07-4.9-11.13-9.93C1067.21,252,1072,247.81,1078.31,247.81Z"/><path class="cls-6" d="M942.05,309.5c-17.92.45-35.75-1.33-53.61-2.25,12.22-.62,24.42-1.09,36.64.26,4.27.47,8.62.14,12.93.27C939.52,307.82,941.5,307.07,942.05,309.5Z"/><path class="cls-6" d="M1037.91,313.51c-15.21.69-30.35-1.07-45.53-1.26-.39,0-.78-.49-1.18-.75a67.42,67.42,0,0,1,22.63.05,94.2,94.2,0,0,0,18.3,1.24C1034.05,312.74,1036.13,312.13,1037.91,313.51Z"/><path class="cls-6" d="M614.37,295.5a202,202,0,0,1-33.88-1.7c3.88-2.13,8.19-1.35,12.07-.83,6.11.81,12.17.66,18.27.81C612.24,293.82,614,293.35,614.37,295.5Z"/><path class="cls-6" d="M683.3,298.53a215.59,215.59,0,0,1-33.88-1.76,2.59,2.59,0,0,1,2.67-1c9.35,1.78,18.79.65,28.19,1C681.63,296.81,683,296.71,683.3,298.53Z"/><path class="cls-6" d="M546.47,292.59l-23.65-.23c-1.21,0-2.3-.23-2.84-1.5,7.52,0,15-.08,22.56-.06C544.06,290.8,546,290.18,546.47,292.59Z"/><path class="cls-6" d="M750.21,301.26c-11-.47-22,0-32.85-1.54,1.48-1.55,3.48-1.17,5.12-.88,8.15,1.41,16.35.77,24.52.93C748.28,299.79,749.74,299.48,750.21,301.26Z"/><path class="cls-6" d="M776.24,302.45c-7.28,0-14.58.71-21.8-.86,6.84-1.69,13.76-.61,20.65-.57C775.47,301,775.85,302,776.24,302.45Z"/><path class="cls-6" d="M872.07,306.49c-7.25,0-14.54.8-21.71-1,6.6-1.47,13.26-.6,19.9-.48C870.87,305,871.47,306,872.07,306.49Z"/><path class="cls-6" d="M478.49,289.63c-8.6,0-17.22.53-25.74-1.08,3.48-1.6,7.17-.79,10.72-.67A69.31,69.31,0,0,1,478.49,289.63Z"/><path class="cls-6" d="M987,311.25c-9.58.36-19.11-.58-28.66-1,8.94-1.12,17.92-.25,26.88-.46A1.8,1.8,0,0,1,987,311.25Z"/><path class="cls-6" d="M809.19,303.69c-8,.07-16,.46-23.89-1a3.36,3.36,0,0,1,3.17-.92C795.37,302.53,802.36,302.18,809.19,303.69Z"/><path class="cls-6" d="M644.33,296.58c-8.29,0-16.6.65-24.83-.84,1.3-1.47,3.14-1.24,4.58-.87,5.49,1.42,11,.7,16.55.9C641.91,295.82,643.27,295.5,644.33,296.58Z"/><path class="cls-6" d="M447.56,288.39c-5.53-.19-11.25,1.62-16.51-1.52,4.12,0,8.25-.12,12.37-.06C444.93,286.83,446.88,286.06,447.56,288.39Z"/><path class="cls-6" d="M703.21,299.41c-5.93,0-11.89.8-17.75-.71C691.48,296.32,697.3,298.91,703.21,299.41Z"/><path class="cls-6" d="M843.14,305.19c-3,.52-6,.74-8.91-.4C837.27,303.42,840.28,302.59,843.14,305.19Z"/><path class="cls-6" d="M516.71,291a13.57,13.57,0,0,1-9.13-.24C510.67,289.25,513.72,289,516.71,291Z"/><path class="cls-6" d="M576.45,293.71a61.13,61.13,0,0,1-13.72-.36C567.33,292.66,571.92,291.94,576.45,293.71Z"/><path class="cls-6" d="M955,310.15c-2.32.31-4.65.75-6.88-.4C950.52,308.42,952.87,307.67,955,310.15Z"/><path class="cls-6" d="M489.5,290.12a7.37,7.37,0,0,1-5.89-.3C485.65,288.4,487.64,288,489.5,290.12Z"/><path class="cls-6" d="M503.5,290.66a34.92,34.92,0,0,1-10.7-.31C496.4,289.58,500,289.12,503.5,290.66Z"/><path class="cls-6" d="M818.15,304.19a5.29,5.29,0,0,1-4.9-.35C815,302.37,816.68,301.83,818.15,304.19Z"/><path class="cls-6" d="M885.09,307a1.3,1.3,0,0,1-1.92-.14C883.89,305.69,884.54,305.63,885.09,307Z"/><path class="cls-6" d="M553.42,292.92a1.2,1.2,0,0,1-1.88-.13C552.25,291.66,552.88,291.69,553.42,292.92Z"/><path class="cls-6" d="M423.6,285.33c-1.26.28-1.91-.32-2.18-1.49C422.51,283.8,423.39,284.07,423.6,285.33Z"/><path class="cls-6" d="M427.54,286.54c-1.06.25-2,.25-2.7-.81C425.79,285.85,426.83,285.65,427.54,286.54Z"/><path class="cls-6" d="M415.63,279.69c-.61,0-.86-.35-.9-.92Z"/><path class="cls-6" d="M556.28,293.12l-.26.19-.22-.23A.42.42,0,0,1,556.28,293.12Z"/><path class="cls-6" d="M420.52,283.4l-1-.6Z"/><path class="cls-15" d="M188.91,547.36c-3.51-2.91-1.71-6.59-.87-9.67,2.24-8.25,2.79-16.6,2.77-25.05,0-3.31.52-6.6.72-9.86.32-5.11,2.65-4.93,6.17-3.56,4.8,1.87,9.68,3.44,14.9,3.67.62,1.63,1.94,1.63,3.36,1.42l1.91.17c1.14,1.4,2.66.92,4.1.83l10.83,1.1,3,.06,2,0c3.71,2.26,7.45,0,11.12-.16a113.54,113.54,0,0,0,40.27-9.65,11.35,11.35,0,0,1,5.75-1.25c1.49,5.37,1,10.89,1,16.35a102.74,102.74,0,0,0,5.11,31.26c-7.47,1.59-13.82,6-21.15,8.17-8.73,2.6-17.47,5.34-26.45,6-21.69,1.54-43-.32-63.14-9.71A4.44,4.44,0,0,0,188.91,547.36Z"/><path class="cls-16" d="M142.93,452c-2.83-.92-5.67-1.74-8.7-1.37-13.19-3-22.76-10.46-28.78-22.7a136.6,136.6,0,0,1-9.57-27,45.22,45.22,0,0,0-1.65-4.56,2.74,2.74,0,0,0-.41-3.83c.66-5.18-2.89-7-6.82-8.43-3.67-5.38-7.69-10.37-9.65-16.95-3.65-12.2-4-24,1.22-35.7a13.11,13.11,0,0,1,7.3-7.17c2.87-1.05,3.46-2.73,2.89-5.27-2.5-11.32-3.43-22.85-5-34.3C81.54,269,81,253.09,80.83,237.17c-.13-16.11.35-32.18,4.25-47.88,5.15-20.72,14.45-38.76,34.27-49.31,2.87-1.53,5.6-3.49,8.92-4.1-.39,6.27-4.53,10.12-9.14,13.39a23.72,23.72,0,0,0-7.34,8.45c-3.37,2.54-3.83,6.79-5.45,10.22a116.48,116.48,0,0,0-8.52,26.31c-5,24-6.4,48.28-5.6,72.64.54,16.53,2.51,33,3.8,49.51.16,2.07,1.08,3.58,3,4.12,5.78,1.62,8.23,6.47,10.66,11.14a6.2,6.2,0,0,0,3.79,3.52c-1.67,3.09-.34,6,.41,9,2.74,10.91,4,21.86-.51,32.64-1.85,4.44-4.77,7.86-9.76,9.1-3.3.82-4.4,2.72-2.21,5.76.27,1,.54,2,.8,3,2.08,13.52,5.92,26.45,14.27,37.51,3.05,4,6.9,7.67,12.49,8.23,1.89,3.05,4.94,3.11,8,3.12,9.35,2.34,18.82,1.22,28.25.91,1.83-.06,2.1-1.63,2.8-3a9.29,9.29,0,0,1,12.73-4.14c4.23,2.31,6.06,8.8,3.66,13a9.46,9.46,0,0,1-13.14,2.9,10.46,10.46,0,0,0-7-1.75C157.21,451.81,150.07,451.87,142.93,452Z"/><path class="cls-10" d="M259.69,383.71c-.09,10.86-2.39,20.77-12,27.5-1.79,1.26-3.37,1.86-5.14-.33s-.88-3.67.85-5c11.12-8.6,10.26-20.44,8.49-32.31-2.54-17.09-7.83-33.59-11.36-50.46-1.19-5.67-1.58-11.51-2.2-17.29-.25-2.32.44-4.53,3.19-4.72,2.47-.16,3.62,2,3.71,3.94,1.18,23.42,10.59,45.19,13.61,68.24A93.19,93.19,0,0,1,259.69,383.71Z"/><path class="cls-10" d="M241.6,445c-20.25-.47-31.17-9.16-40.69-20.3-1.29-1.51-1.75-3.44.05-4.85s3.63-1,5.28.75a82,82,0,0,0,12.12,10.95c12.33,8.68,28.24,9.77,38.33-3.78,1.5-2,3.56-4.38,6.14-2.15s.85,4.87-1,6.93C255.28,440.07,247.53,445.31,241.6,445Z"/><path class="cls-7" d="M129,440.44c-5.59-.56-9.44-4.2-12.49-8.23-8.35-11.06-12.19-24-14.27-37.51,1.75-.78,3.58-1.42,4.86-3h0a2.6,2.6,0,0,0,2.46-1.62.86.86,0,0,0,.7.09Z"/><path class="cls-10" d="M284.83,327.55c.95-7.33,3-14.23,8.39-19.66,5.06-5.12,11.21-6.32,17.84-4A16.2,16.2,0,0,1,322,316.43c.47,2.16.53,4.14-2.13,4.68-2.22.45-3.59-.42-4.33-2.86-1.53-5-4.72-8.37-10.29-8.52-4.89-.13-8.62,3-10.76,8.75-1.22,3.26-2.51,6.48-2.72,10-.14,2.36-1.26,4.55-3.81,4.35C285,332.63,284.59,330.11,284.83,327.55Z"/><path class="cls-10" d="M156.74,336.2c.55-6.84,4.08-12.16,10.56-14.74,7.08-2.82,13.8-1,19.26,4.22a34,34,0,0,1,8.91,14.7c.65,2.11.8,4.18-1.63,5s-4-.57-4.89-2.92c-1.95-5.16-4.42-10-9.22-13.2-7-4.74-15.1-1-16,7.51-.17,1.61.24,3.4-1.45,4.51a3.59,3.59,0,0,1-3.76.47C156.17,340.58,156.92,338.37,156.74,336.2Z"/><path class="cls-11" d="M129,440.44,110.29,390.2c5.38-2.72,6.56-2.38,8.61,4.11,2.19,6.9,4.59,13.7,7.18,20.46,3.28,8.53,6.1,17.23,10.12,25.47a15.63,15.63,0,0,1,.8,3.32C133.92,443.55,130.87,443.49,129,440.44Z"/><path class="cls-10" d="M295.45,257.06c9.13.74,17.86,2.15,25.18,8.12,2.11,1.71,4,3.68,2.15,6.21-2.07,2.85-4.32.91-6.33-.7-6.26-5-13.58-6.47-21.37-6.28-1.49,0-3,0-4.47.11-2.54.17-3.73-1.53-4-3.52-.26-1.84,1.36-3,3.06-3.34A56,56,0,0,1,295.45,257.06Z"/><path class="cls-10" d="M172.36,273.1c3.06-.27,4.74.71,5.24,2.94s-1.16,3.31-3.09,3.7c-10,2-19.12,5.54-25.13,14.51a2.89,2.89,0,0,1-3.57,1c-1.68-.61-2-2-2-3.64a5.91,5.91,0,0,1,1.49-3.62C152.44,279,162.33,275.2,172.36,273.1Z"/><path class="cls-11" d="M232.8,506.41,222,505.31c0-1-.24-2,.87-2.58C226,501.2,231.83,503.38,232.8,506.41Z"/><path class="cls-11" d="M107.08,391.74c-1.28,1.54-3.11,2.18-4.86,3-.26-1-.53-2-.8-3Z"/><path class="cls-11" d="M237.84,506.51l-2,0c1.07-3.75,3.93-1.32,6.39-2.23C240.9,506.24,238.66,504.79,237.84,506.51Z"/><path class="cls-11" d="M109.59,390.11a2.6,2.6,0,0,1-2.46,1.62C107.13,390,108,389.52,109.59,390.11Z"/><path class="cls-16" d="M113.22,335.11a1.22,1.22,0,0,1,1.39-1.17A1.46,1.46,0,0,1,113.22,335.11Z"/><path class="cls-16" d="M274.85,122.22c-.05,16.35-5.86,27.38-14.26,37.26-9.22,10.84-20.25,19.22-33.87,23.85-2.53.86-5.8,3-7.25-.94s2.47-4.8,4.88-5.55c12.66-3.91,22.33-12.13,30.69-21.77,7.67-8.83,13.42-18.79,12.94-31.31-.39-10.14-5.83-17.28-12.81-23.66-2.93-2.68-6.12-5.06-9.27-7.48-1.45-1.11-2.6-2.23-1.56-4.12a3.16,3.16,0,0,1,4.39-1.22c8.81,5.11,17,11,21.92,20.3C273.56,113,275,118.93,274.85,122.22Z"/><path class="cls-16" d="M311.68,117.31c-.65,23.14-7.49,43.79-24.92,59.92-6.55,6.06-14.79,9.2-23.27,11.38-2.29.59-6.35,1.78-7.1-2.25-.71-3.81,3.08-4.56,5.69-4.88,7.38-.9,13.55-4.22,19.13-8.79,8.4-6.87,13.57-15.88,17.8-25.82,5.28-12.4,6.47-25.15,5.87-38.32-.1-2-.08-4.3,2.77-4.36,2.62,0,3.92,1.64,4,4.13C311.76,111.31,311.68,114.31,311.68,117.31Z"/><path class="cls-13" d="M411.12,276c.44,12.09,11.25,24.19,26.17,24.75,17.72.68,35.41,1.89,53.17,2.2,13.89.25,27.83.82,41.71,1.79,18.22,1.27,36.48,1.27,54.68,2.17,21.86,1.07,43.7,2.15,65.56,3.06,13.57.57,27.17.18,40.74,1.59,18,1.86,36.11,1.48,54.16,2.27,23.35,1,46.67,2.44,70.05,3.07,12.73.35,25.49.88,38.22,1.75,19.37,1.33,38.78,1.47,58.17,2.18,23,.84,46,2.49,69,3.06,22.69.56,45.34,2.54,68,3,1.69,6.76,5.61,12.57,8,19.05a221.33,221.33,0,0,1,9.36,33.72c3,14.93,2.79,29.89,2.79,44.91q0,160.23,0,320.48c0,8.73.51,17.71-1.31,26.12-1.43,6.65-2.19,13.48-4.24,20.1-2.32,7.52-4.62,15-7.29,22.46-5.36,15-14,27.89-23,40.8-12.1,17.4-28.09,30.59-45.29,42.32A154.6,154.6,0,0,1,950,916.15c-19.82,6.38-40,9-60.75,8.94Q685,924.79,480.78,925c0-2.33-.21-4.65-.15-7,.68-25.09-.51-50.17-1.42-75.21-.49-13.55.81-27.22-1.52-40.71a5.21,5.21,0,0,1,1.7-5c3.45-2.65,3.27-6.2,3.24-9.9-.09-10.31.61-20.67-.22-30.92-1.84-22.7-1.51-45.42-2-68.14-.42-20.93-10.32-37.64-25.39-51.44-20.62-18.88-44.23-33.21-69.22-45.58-11.21-5.55-22.84-10.07-34.1-15.45-2-1-4.49-1-6.76-1.51-4.85-3.59-10.33-6.07-16.31-5.49a7.51,7.51,0,0,1-7.51-3.12c-9.08-11-13.65-23.89-15.11-37.66-.92-8.67-.81-17.53-1.28-26.3-.18-3.23,1.16-4.77,4.13-6.4,13.21-7.24,26.31-14.91,36.12-26.66,5.9-7.06,8.77-15.72,9.71-24.93a239.17,239.17,0,0,0,.08-45.17c-.6-6.92-.38-13.88-.86-20.85-1-13.88-.58-27.86-1.32-41.77-1-18.66-2.69-37.28-3.8-55.93a347.34,347.34,0,0,0-4.18-36.41c-.49-2.93-1.29-5.81-1.95-8.71q30,0,60,0c2.06,0,4.45-.65,5.46,2.13-.18,5.1-.35,10.21-.53,15.3-2.59,2.57-2.61,10.59,0,13.24l1.26,6.74c-.13,1.17,0,2.21,1.46,2.36C411.1,274.77,411.45,275.24,411.12,276ZM610.3,711.35l0,0c.2-1.26-.23-2-1.59-2.12a.45.45,0,0,1-.37-.59c-.3-1.36-.48-2.82-2.19-3.22l.1.12c-.12-1.78-1.27-2.3-2.84-2.29l-.21-.18.08-.26c-.79-2.94-2.51-4.7-5.75-4.53l-.1-.07c-.1-2.67-1.8-3.12-4-2.89l0,0a1.29,1.29,0,0,0-1.38-.9l-1.6-.45c-.3-2.59-2-2.9-4.12-2.5h.08c-2.45-2-5-3.83-8.4-3l-.24.15-.23-.16c-2.17-2.09-5.19-2-7.76-2.46a40.14,40.14,0,0,0-29.13,5.3.5.5,0,0,1-.71.12c-2.08-.32-3.92-.22-4.29,2.44l-1.08.42c-1.13,0-2.42-.38-2.73,1.3h.08c-2.42-.51-3.54.81-4.1,2.92h.05c-2.2-.36-3.17.66-3.15,2.8l0,0q-3.06-.14-3,2.93l0,0-1,1v0c-2.11,0-3.07,1-2.85,3.13l-.13-.24.15.23c-3-.14-3.36,1.64-3,4v0c-2.42.87-3.06,2.76-2.93,5.09v-.05c-.56.29-1.44.45-1.63.9-3.16,7.5-6.68,14.93-5.45,23.45a13,13,0,0,1,0,6.77c-1,4.94.58,9.32,2.9,13.54l0,0c.51,6.74,3.55,12.56,6.49,18.48C524.65,801.61,541.47,813,565.07,814a52.07,52.07,0,0,0,25.8-5.72c14.4-7.07,24.29-17.77,29.66-32.82,4.88-13.69,3-27.42.44-41.16-.59-3.2-.75-6.63-3.49-9a.8.8,0,0,1-.17-.88c.14-2.55.53-5.23-2.87-6.12l-.06-.11c0-1.12.34-2.37-1.22-2.79l0,.08c.32-1.42-.23-2.17-1.69-2.22l-.27-.22.07-.35A1.25,1.25,0,0,0,610.3,711.35Zm2.77-281.5,0,0c.52-1.49-.07-2.21-1.59-2.29l0,0c.05-.9-.16-1.63-1.17-1.85v0c.25-1.4-.32-2.12-1.74-2.15a3.35,3.35,0,0,1-2.23-3c.76-2.68-1.24-2.68-2.91-3l-.19-.18.08-.25c-.4-2.36-1.69-3.62-4.19-3.39a1.68,1.68,0,0,1-1.72-1.12c0-2.78-1.73-3.24-4-3l0,0c-.94-2.31-2.51-3.52-5.12-2.9h.07c-2.84-2.31-5.48-5.17-9.74-3.33l-2.17-.55c-3-4.39-7-2.11-10.79-1.56a6.69,6.69,0,0,1-4.24,0c-8.48-2-15.94.31-22.82,5.23a.34.34,0,0,1-.53.19c-3.76.93-7.84,1.35-9.43,5.81l0,0c-.92,0-1.7.12-1.82,1.24h.07c-4.76,1.57-8.1,4.52-9.24,9.58l-.13.13q-3.12.26-2.65,3.35a.54.54,0,0,1-.3.68c-3.08,1-3.46,3.66-3.75,6.35a4.44,4.44,0,0,1-1.33,3.68c-1.2,0-1.67.72-2,1.78-1.63,5.79-3.89,11.47-2.69,17.69l.21,1.19a24.75,24.75,0,0,0,2.77,18.22l.16.23-.16.23c1.65,10.66,6.37,20.21,12.68,28.55,11.5,15.18,27,23,46.52,23,31,0,56.44-26.23,56.6-56.27.05-8.22-1.53-16.12-2.8-24.1-.53-3.36-.52-7-3.48-9.52l0,.05c.16-2.23.63-4.62-2.62-5.09-.15-.5-.29-1-.43-1.5C614.38,431.07,614.48,430.07,613.07,429.85Zm-12.75,127.7h0c-.66-2.85-2.63-3.93-5.37-3.93l-.31.07-.22-.24c-.17-2.82-1.95-3.23-4.27-2.83a.64.64,0,0,1-.76-.23,5.62,5.62,0,0,0-6.06-2.81h.07c-5.08-3.67-10.56-5.34-16.77-3.34a14.18,14.18,0,0,1-6.25,0c-9.27-1.88-17.28,1.07-24.67,6.42l0,0c-2.26-.42-3.94,0-4.11,2.74l-.11.07a19.76,19.76,0,0,0-13.72,12.37.43.43,0,0,1-.24.63c-2.21.06-3,1.24-2.77,3.36a.43.43,0,0,1-.25.6c-2.44.4-2.78,2.15-2.69,4.19v0a10,10,0,0,0-4.13,9.87v0c-5.07,11.61-4.77,23.21,0,34.81l0-.06a8,8,0,0,0,.68,4.84c2.27,5.31,4.17,10.79,6.63,16a53,53,0,0,0,27.83,26.53c17.08,7.19,34.38,6.79,51.23-2.46,13.34-7.34,22-18.29,26.87-32.27,3.6-10.37,3.44-21.23,1.33-32-1.22-6.24-1-12.91-5-18.43v0c.17-2.23.6-4.6-2.65-5l-.39-1.63c-1.54-6.37-4.6-11.57-10.87-14.34h0C603.4,558.41,602.39,557.43,600.32,557.55Z"/><path class="cls-9" d="M407.64,265.4c-2.58-2.65-2.56-10.67,0-13.24Z"/><path class="cls-7" d="M410.36,274.5c-1.5-.15-1.59-1.19-1.46-2.36A2.63,2.63,0,0,1,410.36,274.5Z"/><path class="cls-13" d="M65.31,289.41c1.16.33,2,.92,1.68,2.3A2,2,0,0,1,65.31,289.41Z"/><path class="cls-4" d="M87,384.15c3.93,1.47,7.48,3.25,6.82,8.43a16.06,16.06,0,0,1-8.7-1.57c-8-3.79-13.05-10.4-17.08-17.95-6.19-11.59-7.55-24.13-7-37,.33-7.77,4.38-13.27,10.66-17.49,2.68-1.8,6,.26,8.58-1.76,2.73.89,2.35,3.06.5,3.63C73.07,322.78,70.25,329,69,335.71c-2.87,15-1.28,29.47,9,41.68C80.33,380.18,82.25,384.26,87,384.15Z"/><path class="cls-11" d="M80.27,316.8c-2.56,2-5.9,0-8.58,1.76-6.28,4.22-10.33,9.72-10.66,17.49-.54,12.88.82,25.42,7,37,4,7.55,9.08,14.16,17.08,17.95a16.06,16.06,0,0,0,8.7,1.57,2.74,2.74,0,0,1,.41,3.83c-15.64.48-25.41-8.26-31.9-21.18A70,70,0,0,1,55.1,339c.81-13.46,10.88-23.18,23.79-23.11Z"/><path class="cls-4" d="M216,504.31c-1.42.21-2.74.21-3.36-1.42C214.12,502.41,215.47,502.33,216,504.31Z"/><path class="cls-3" d="M552.52,210a32.3,32.3,0,0,1-3.21,16.09c-1.47,2.91-3.48,4.72-6.89,4.88a6.87,6.87,0,0,1-6.82-4.15c-5-10.29-4.27-20.69.55-30.76,1.22-2.55,3.6-5.16,7.08-4.65,4.47.64,6.75,4,8.11,7.91A28.27,28.27,0,0,1,552.52,210Z"/><path class="cls-6" d="M743.27,203.78c3.23,5.52,4.08,10.76,5.05,15.94.24,1.26.61,3.14-.89,3.54a14.09,14.09,0,0,1-8.8-.24c-1.74-.68-1.35-2.45-.83-3.92Z"/><path class="cls-3" d="M514.53,570.42a.43.43,0,0,0,.25-.61,4.14,4.14,0,0,0,2.77-3.35.43.43,0,0,0,.24-.63l13.72-12.37.11-.07c2,0,3.51-.67,4.11-2.74l0,0c8.09-2.64,16.2-5.25,24.67-6.42a14.18,14.18,0,0,0,6.25,0l16.77,3.34h-.07c1.44,2.19,3.65,2.7,6.06,2.81a.62.62,0,0,0,.76.22c.8,1.88,2.43,2.53,4.27,2.84l.22.24.31-.08a8.21,8.21,0,0,0,5.37,3.94h0a3.37,3.37,0,0,0,3.07,2.92h0l10.87,14.34c.13.54.26,1.08.38,1.62a6.4,6.4,0,0,0,2.66,5v0a34.49,34.49,0,0,0,.69,5.41c3.76,13.17,2.52,25.91-3.19,38.26-9,19.52-24.36,30.81-45.59,33s-38.92-5.46-52.2-22.7c-3.89-5-5.65-11.15-9.28-16.26l0,.06a104.83,104.83,0,0,1,0-34.81v0c2.46-2.83,3.29-6.35,4.13-9.87h0C513.83,573.91,514.26,572.22,514.53,570.42ZM542.86,637c7.1-1,13.91-4.87,20.55-8.91,17.78-10.83,27.52-27.32,32.32-47.08.93-3.84-1.3-6.72-4.24-8.91a50.58,50.58,0,0,0-5.15-3c-5.37-3.1-7.34-2.62-10.75,2.67-1.07,1.67-2.12,3.36-3.12,5.08-5.59,9.6-5.61,9.64,3.37,16.18,2.53,1.85,3.3,3.53,1.53,6.64-2.8,4.94-5.74,9.65-10.32,13.15-10.63,8.11-8.56,7.72-15.75-1.61-2.31-3-4.62-3.44-7.58-1.15-2.36,1.82-4.83,3.49-7.15,5.36-9.52,7.68-9.94,4.74-2.81,16C535.71,634.5,538.05,636.94,542.86,637Z"/><path class="cls-3" d="M538.05,406.81a.34.34,0,0,0,.53-.19,165,165,0,0,1,22.82-5.23,6.69,6.69,0,0,0,4.24,0c3.42,1.73,7.18,1.12,10.79,1.56l2.17.55a22.29,22.29,0,0,0,9.74,3.33h-.07c1,2.28,3,2.76,5.12,2.91l0,0a5,5,0,0,0,4,3,1.68,1.68,0,0,0,1.72,1.12,5.13,5.13,0,0,0,4.19,3.39l-.08.25.19.18a3.07,3.07,0,0,0,2.91,3,3.35,3.35,0,0,0,2.23,3,2,2,0,0,0,1.74,2.15v0a1.71,1.71,0,0,0,1.17,1.85l0,0A1.91,1.91,0,0,0,613,429.9l0,0a2.49,2.49,0,0,0,1.19,2.24c.14.5.28,1,.43,1.5a6.08,6.08,0,0,0,2.62,5.09l0-.05a41.53,41.53,0,0,0,.81,5.38c3.78,13.36,2.43,26.24-3.45,38.73-9.64,20.5-26.24,31.61-48.41,33-19.92,1.29-36.42-6.68-48.93-22.65-3.93-5-5.5-11.28-9.54-16.15l.16-.23-.16-.23c-.77-6.09-.67-12.33-2.77-18.22l-.21-1.19a2.64,2.64,0,0,0,1.47-2.43c.3-5.82,1.71-11.44,3.18-17a4.44,4.44,0,0,0,1.33-3.68c2.28-1.51,3.17-3.84,3.75-6.35a.54.54,0,0,0,.3-.68,3.56,3.56,0,0,0,2.65-3.35l.13-.13c3.35-2.93,6.71-5.86,9.24-9.58h-.07a1.67,1.67,0,0,0,1.82-1.24l0,0C531.87,410.86,535.52,409.74,538.05,406.81Zm25.17,74.87c-8.57.71-15.87-1.89-20.15-10.22-2.55-5-2-10.45-1.5-15.7,1.53-15.41,20-25,33.68-17.59,8.21,4.42,11.76,15.29,8.39,25.74-.56,1.74-1,3.79-3.39,3.67-2.73-.14-3-2.51-2.94-4.43.06-4.65.32-9.3.72-13.94.26-3-.59-5-3.71-5.35-5.28-.64-10.61-1.49-15.87-.11-6.45,1.68-10.15,6.29-11.33,12.6-1.14,6.12-.56,12.2,5.26,16,5.3,3.49,11,3.4,16.36-.08,1.94-1.26,3-1,4.76.36a10.47,10.47,0,0,0,13.21-.55c7-6.11,7.5-14.16,6-22.43-1.81-10.07-8.05-16.89-17.83-19.46-18.17-4.76-37.18,2.61-41.59,24.51-1.61,8-.79,15.83,4,23,6.31,9.46,15.85,11.5,26.13,11.36,4.59-.06,9.31-.23,13.78-1.86,3.3-1.21,3.64-3.85,3-6.51-.87-3.55-3.44-.88-4.8-.53A41.55,41.55,0,0,1,563.22,481.68Z"/><path class="cls-3" d="M539.9,691.44a.49.49,0,0,0,.7-.12,79,79,0,0,1,36.9-2.84l.23.16.24-.15c2.28,2.44,5.28,2.88,8.4,3l-.08,0c.72,1.92,2.26,2.48,4.12,2.51l1.6.45,1.38.9,0,0c.45,2.18,2.33,2.39,4,2.89l.1.07a10.14,10.14,0,0,0,5.75,4.53l-.08.26.21.18c.22,1.67,1.29,2.27,2.84,2.29l-.1-.13a3,3,0,0,0,2.19,3.23.45.45,0,0,0,.36.59,1.72,1.72,0,0,0,1.6,2.12l0,0c.32.45.65.89,1,1.33l-.07.35.27.22a1.83,1.83,0,0,0,1.69,2.22l0-.08a2.61,2.61,0,0,0,1.22,2.79l.06.11c-.23,2.6,1.51,4.27,2.87,6.12a.8.8,0,0,0,.17.88,35.27,35.27,0,0,0,.64,4.38c3.7,13.35,2.26,26.18-3.47,38.71-17.79,38.94-71.15,44.76-97.36,10.32-4-5.2-5.81-11.45-9.6-16.66l0,0c-.4-4.63,0-9.44-2.9-13.54a13,13,0,0,0,0-6.77c.49-.63,1.37-1.24,1.39-1.89.32-7.9,3.21-15.12,5.69-22.46v.05c2.07-1.07,2.67-3,2.93-5.09v0c2.05-.54,2.81-2,3-4l-.15-.23.13.23a3.5,3.5,0,0,0,2.85-3.12v0a1,1,0,0,0,1-1l0,0a3.53,3.53,0,0,0,3-2.93l0,0a3.31,3.31,0,0,0,3.15-2.8h-.05c1.81-.36,3.62-.71,4.1-2.92l-.08,0a2.79,2.79,0,0,0,2.73-1.29l1.08-.42C537.67,694.18,538.75,692.74,539.9,691.44Zm22.88,17.77c-20.38.07-34.45,22.55-25.58,40.84C543,762,552,771.54,560.5,781.48c1.61,1.88,3.08,2.21,4.87.12,8.39-9.8,17.31-19.24,23.17-30.9C598,731.83,583.83,709.13,562.78,709.21Z"/><path class="cls-7" d="M507.73,619.19c3.63,5.11,5.39,11.22,9.28,16.26,13.28,17.24,30.84,24.93,52.2,22.7s36.57-13.5,45.59-33c5.71-12.35,7-25.09,3.19-38.26a34.49,34.49,0,0,1-.69-5.41c4,5.52,3.78,12.19,5,18.43,2.11,10.72,2.27,21.58-1.33,32-4.86,14-13.53,24.93-26.87,32.27-16.85,9.25-34.15,9.65-51.23,2.46A53,53,0,0,1,515,640c-2.46-5.22-4.36-10.7-6.63-16A8,8,0,0,1,507.73,619.19Z"/><path class="cls-7" d="M507.69,762c3.79,5.21,5.64,11.46,9.6,16.66,26.21,34.44,79.57,28.62,97.36-10.32,5.73-12.53,7.17-25.36,3.47-38.71a35.27,35.27,0,0,1-.64-4.38c2.74,2.41,2.9,5.84,3.49,9,2.51,13.74,4.44,27.47-.44,41.16-5.37,15-15.26,25.75-29.66,32.82a52.07,52.07,0,0,1-25.8,5.72c-23.6-1-40.42-12.42-50.89-33.51C511.24,774.6,508.2,768.78,507.69,762Z"/><path class="cls-7" d="M507.76,477c4,4.87,5.61,11.13,9.54,16.15,12.51,16,29,23.94,48.93,22.65,22.17-1.44,38.77-12.55,48.41-33,5.88-12.49,7.23-25.37,3.45-38.73a41.53,41.53,0,0,1-.81-5.38c3,2.51,3,6.16,3.48,9.52,1.27,8,2.85,15.88,2.8,24.1-.16,30-25.62,56.27-56.6,56.27-19.48,0-35-7.8-46.52-23C514.13,497.2,509.41,487.65,507.76,477Z"/><path class="cls-7" d="M577.5,688.48a79,79,0,0,0-36.9,2.84,40.18,40.18,0,0,1,29.14-5.3C572.31,686.52,575.33,686.39,577.5,688.48Z"/><path class="cls-7" d="M507.71,584.44a104.83,104.83,0,0,0,0,34.81C502.94,607.65,502.64,596.05,507.71,584.44Z"/><path class="cls-7" d="M560.38,544.21c-8.47,1.17-16.58,3.78-24.67,6.42C543.1,545.28,551.11,542.33,560.38,544.21Z"/><path class="cls-7" d="M511.88,717.42c-2.48,7.34-5.37,14.56-5.69,22.46,0,.65-.9,1.26-1.39,1.89-1.23-8.52,2.29-15.95,5.45-23.45C510.44,717.87,511.32,717.71,511.88,717.42Z"/><path class="cls-7" d="M561.4,401.39a165,165,0,0,0-22.82,5.23C545.46,401.7,552.92,399.35,561.4,401.39Z"/><path class="cls-7" d="M531.51,553.46l-13.72,12.37A19.76,19.76,0,0,1,531.51,553.46Z"/><path class="cls-7" d="M509.43,437.65c-1.47,5.6-2.88,11.22-3.18,17a2.64,2.64,0,0,1-1.47,2.43c-1.2-6.22,1.06-11.9,2.69-17.69C507.76,438.37,508.23,437.64,509.43,437.65Z"/><path class="cls-7" d="M614.27,574.82,603.4,560.48C609.67,563.25,612.73,568.45,614.27,574.82Z"/><path class="cls-7" d="M505,458.31c2.1,5.89,2,12.13,2.77,18.22A24.75,24.75,0,0,1,505,458.31Z"/><path class="cls-7" d="M583.4,547.6l-16.77-3.34C572.84,542.26,578.32,543.93,583.4,547.6Z"/><path class="cls-7" d="M526.83,413.88c-2.53,3.72-5.89,6.65-9.24,9.58C518.73,418.4,522.07,415.45,526.83,413.88Z"/><path class="cls-7" d="M576.43,403c-3.61-.44-7.37.17-10.79-1.56C569.39,400.85,573.4,398.57,576.43,403Z"/><path class="cls-7" d="M504.81,748.54c2.91,4.1,2.5,8.91,2.9,13.54C505.39,757.86,503.81,753.48,504.81,748.54Z"/><path class="cls-7" d="M538.05,406.81c-2.53,2.93-6.18,4.05-9.43,5.81C530.21,408.16,534.29,407.74,538.05,406.81Z"/><path class="cls-7" d="M588.34,406.84a22.29,22.29,0,0,1-9.74-3.33C582.86,401.67,585.5,404.53,588.34,406.84Z"/><path class="cls-7" d="M511.83,574.59c-.84,3.52-1.67,7-4.13,9.87A10,10,0,0,1,511.83,574.59Z"/><path class="cls-7" d="M586.37,691.47c-3.12-.1-6.12-.54-8.4-3C581.42,687.64,583.92,689.49,586.37,691.47Z"/><path class="cls-7" d="M514.51,427.62c-.58,2.51-1.47,4.84-3.75,6.35C511.05,431.28,511.43,428.66,514.51,427.62Z"/><path class="cls-7" d="M603.25,702.83a10.14,10.14,0,0,1-5.75-4.53C600.74,698.13,602.46,699.89,603.25,702.83Z"/><path class="cls-7" d="M589.39,550.4c-2.41-.11-4.62-.62-6.06-2.81A5.62,5.62,0,0,1,589.39,550.4Z"/><path class="cls-7" d="M617.31,724.41c-1.36-1.85-3.1-3.52-2.87-6.12C617.84,719.18,617.45,721.86,617.31,724.41Z"/><path class="cls-7" d="M600.32,557.56a8.21,8.21,0,0,1-5.37-3.94C597.69,553.63,599.66,554.71,600.32,557.56Z"/><path class="cls-7" d="M617.31,438.68a6.08,6.08,0,0,1-2.62-5.09C617.94,434.06,617.47,436.45,617.31,438.68Z"/><path class="cls-7" d="M593.39,409.74c-2.17-.15-4.16-.63-5.12-2.91C590.88,406.22,592.45,407.43,593.39,409.74Z"/><path class="cls-7" d="M517.79,708.42c-.18,1.94-.94,3.45-3,4C514.43,710.06,514.83,708.28,517.79,708.42Z"/><path class="cls-7" d="M617.31,581.48a6.4,6.4,0,0,1-2.66-5C617.91,576.88,617.48,579.25,617.31,581.48Z"/><path class="cls-7" d="M535.73,550.65c-.6,2.07-2.15,2.72-4.11,2.74C531.79,550.68,533.47,550.23,535.73,550.65Z"/><path class="cls-7" d="M590.41,694c-1.86,0-3.4-.59-4.12-2.51C588.41,691.06,590.11,691.37,590.41,694Z"/><path class="cls-7" d="M597.4,698.23c-1.66-.5-3.54-.71-4-2.89C595.6,695.11,597.3,695.56,597.4,698.23Z"/><path class="cls-7" d="M594.42,553.46c-1.84-.31-3.47-1-4.27-2.84C592.47,550.23,594.25,550.64,594.42,553.46Z"/><path class="cls-7" d="M514.8,712.38c-.26,2.11-.86,4-2.93,5.09C511.74,715.14,512.38,713.25,514.8,712.38Z"/><path class="cls-7" d="M539.9,691.44c-1.15,1.3-2.23,2.74-4.29,2.44C536,691.22,537.82,691.12,539.9,691.44Z"/><path class="cls-7" d="M531.88,695.61c-.48,2.21-2.29,2.56-4.1,2.92C528.34,696.42,529.46,695.1,531.88,695.61Z"/><path class="cls-7" d="M514.53,570.42c-.27,1.8-.7,3.49-2.69,4.18C511.75,572.57,512.09,570.82,514.53,570.42Z"/><path class="cls-7" d="M597.35,412.69a5,5,0,0,1-4-3C595.62,409.45,597.35,409.91,597.35,412.69Z"/><path class="cls-7" d="M606.28,420.63a3.07,3.07,0,0,1-2.91-3C605,418,607,418,606.28,420.63Z"/><path class="cls-7" d="M603.26,417.2a5.13,5.13,0,0,1-4.19-3.39C601.57,413.58,602.86,414.84,603.26,417.2Z"/><path class="cls-7" d="M517.55,566.46a4.14,4.14,0,0,1-2.77,3.35C514.5,567.7,515.34,566.52,517.55,566.46Z"/><path class="cls-7" d="M524.65,701.35a3.53,3.53,0,0,1-3,2.93Q521.59,701.22,524.65,701.35Z"/><path class="cls-7" d="M520.62,705.3a3.5,3.5,0,0,1-2.85,3.12C517.55,706.31,518.51,705.29,520.62,705.3Z"/><path class="cls-7" d="M527.83,698.52a3.31,3.31,0,0,1-3.15,2.8C524.66,699.18,525.63,698.16,527.83,698.52Z"/><path class="cls-7" d="M603.39,560.47a3.37,3.37,0,0,1-3.07-2.92C602.39,557.43,603.4,558.41,603.39,560.47Z"/><path class="cls-7" d="M517.46,423.59a3.56,3.56,0,0,1-2.65,3.35Q514.35,423.85,517.46,423.59Z"/><path class="cls-7" d="M606.22,705.56c-1.55,0-2.62-.62-2.84-2.29C605,703.26,606.1,703.78,606.22,705.56Z"/><path class="cls-7" d="M608.31,708.66a3,3,0,0,1-2.19-3.23C607.83,705.84,608,707.3,608.31,708.66Z"/><path class="cls-7" d="M610.25,425.76a2,2,0,0,1-1.74-2.15C609.93,423.64,610.5,424.36,610.25,425.76Z"/><path class="cls-7" d="M613.18,715.47a1.83,1.83,0,0,1-1.69-2.22C613,713.3,613.5,714.05,613.18,715.47Z"/><path class="cls-7" d="M613,429.9a1.91,1.91,0,0,1-1.59-2.29C613,427.69,613.55,428.41,613,429.9Z"/><path class="cls-7" d="M610.27,711.37a1.72,1.72,0,0,1-1.6-2.12C610,709.33,610.47,710.11,610.27,711.37Z"/><path class="cls-7" d="M614.38,718.18a2.61,2.61,0,0,1-1.22-2.79C614.72,715.81,614.42,717.06,614.38,718.18Z"/><path class="cls-7" d="M534.53,694.3a2.79,2.79,0,0,1-2.73,1.29C532.11,693.92,533.4,694.27,534.53,694.3Z"/><path class="cls-7" d="M611.42,427.57a1.71,1.71,0,0,1-1.17-1.85C611.26,425.94,611.47,426.67,611.42,427.57Z"/><path class="cls-7" d="M528.58,412.65a1.67,1.67,0,0,1-1.82,1.24C526.88,412.77,527.66,412.6,528.58,412.65Z"/><path class="cls-7" d="M614.26,432.09a2.49,2.49,0,0,1-1.19-2.24C614.48,430.07,614.38,431.07,614.26,432.09Z"/><path class="cls-7" d="M593.39,695.31l-1.38-.9A1.29,1.29,0,0,1,593.39,695.31Z"/><path class="cls-7" d="M611.29,712.68c-.33-.44-.66-.88-1-1.33A1.25,1.25,0,0,1,611.29,712.68Z"/><path class="cls-7" d="M521.62,704.3a1,1,0,0,1-1,1Z"/><path class="cls-14" d="M542.86,637c-4.81-.1-7.15-2.54-9.1-5.62-7.13-11.23-6.71-8.29,2.81-16,2.32-1.87,4.79-3.54,7.15-5.36,3-2.29,5.27-1.86,7.58,1.15,7.19,9.33,5.12,9.72,15.75,1.61,4.58-3.5,7.52-8.21,10.32-13.15,1.77-3.11,1-4.79-1.53-6.64-9-6.54-9-6.58-3.37-16.18,1-1.72,2-3.41,3.12-5.08,3.41-5.29,5.38-5.77,10.75-2.67a50.58,50.58,0,0,1,5.15,3c2.94,2.19,5.17,5.07,4.24,8.91-4.8,19.76-14.54,36.25-32.32,47.08C556.77,632.17,550,636,542.86,637Z"/><path class="cls-14" d="M563.22,481.68a41.55,41.55,0,0,0,12.12-1.54c1.36-.35,3.93-3,4.8.53.66,2.66.32,5.3-3,6.51-4.47,1.63-9.19,1.8-13.78,1.86-10.28.14-19.82-1.9-26.13-11.36-4.75-7.13-5.57-15-4-23,4.41-21.9,23.42-29.27,41.59-24.51,9.78,2.57,16,9.39,17.83,19.46,1.5,8.27,1,16.32-6,22.43a10.47,10.47,0,0,1-13.21.55c-1.71-1.34-2.82-1.62-4.76-.36-5.35,3.48-11.06,3.57-16.36.08-5.82-3.82-6.4-9.9-5.26-16,1.18-6.31,4.88-10.92,11.33-12.6,5.26-1.38,10.59-.53,15.87.11,3.12.38,4,2.38,3.71,5.35-.4,4.64-.66,9.29-.72,13.94,0,1.92.21,4.29,2.94,4.43,2.35.12,2.83-1.93,3.39-3.67,3.37-10.45-.18-21.32-8.39-25.74-13.66-7.37-32.15,2.18-33.68,17.59-.53,5.25-1.05,10.73,1.5,15.7C547.35,479.79,554.65,482.39,563.22,481.68Zm-7.86-22.23c.1,4.6.77,7.87,5.36,8.41,4.07.47,6.82-1.77,7.76-6.47a22,22,0,0,0,.63-4.39c0-2.31,1.56-5.26-1.24-6.71-3.23-1.68-6.48-.53-9.17,1.64A8.61,8.61,0,0,0,555.36,459.45Z"/><path class="cls-14" d="M562.78,709.21c21.05-.08,35.23,22.62,25.76,41.49-5.86,11.66-14.78,21.1-23.17,30.9-1.79,2.09-3.26,1.76-4.87-.12C552,771.54,543,762,537.2,750.05,528.33,731.76,542.4,709.28,562.78,709.21Zm15.59,29.49c.12-8.83-6.83-16.32-15.22-16.39-8.23-.07-15.24,7-15.47,15.6-.23,8.94,6.38,15.82,15.43,16.05C571,754.16,578.25,746.92,578.37,738.7Z"/><path class="cls-3" d="M555.36,459.45a8.61,8.61,0,0,1,3.34-7.52c2.69-2.17,5.94-3.32,9.17-1.64,2.8,1.45,1.22,4.4,1.24,6.71a22,22,0,0,1-.63,4.39c-.94,4.7-3.69,6.94-7.76,6.47C556.13,467.32,555.46,464.05,555.36,459.45Z"/><path class="cls-3" d="M578.37,738.7c-.12,8.22-7.36,15.46-15.26,15.26-9.05-.23-15.66-7.11-15.43-16.05.23-8.6,7.24-15.67,15.47-15.6C571.54,722.38,578.49,729.87,578.37,738.7Z"/></g></g></svg>